{
.appVersion = "3414";
.formatVersion = 3;
DisplayStrings = (
"ӄ"
);
date = "2025-04-26 21:58:05 +0000";
familyName = "Outpost Mono";
fontMaster = (
{
guides = (
{
pos = (759,-110);
},
{
angle = 90;
pos = (767,287);
},
{
pos = (774,661);
}
);
id = m01;
metricValues = (
{
over = 16;
pos = 800;
},
{
over = 16;
pos = 620;
},
{
over = 16;
pos = 450;
},
{
over = -16;
},
{
over = -16;
pos = -200;
},
{
}
);
name = Regular;
}
);
glyphs = (
{
color = 4;
glyphname = A;
lastChange = "2025-07-02 18:21:57 +0000";
layers = (
{
anchors = (
{
name = bottom;
pos = (268,0);
},
{
name = ogonek;
pos = (486,0);
},
{
name = top;
pos = (268,620);
}
);
hints = (
{
name = _corner.round;
origin = (0,9);
scale = (2,2);
type = Corner;
},
{
name = _corner.round;
options = 2;
origin = (0,8);
scale = (2,2);
type = Corner;
},
{
name = _corner.round;
origin = (0,2,0,4);
stem = 1000;
type = Corner;
},
{
name = _corner.round;
origin = (0,4,0,6);
stem = 1000;
type = Corner;
}
);
layerId = m01;
shapes = (
{
closed = 1;
nodes = (
(50,0,l),
(110,0,l),
(109,579,l),
(90,560,l),
(445,560,l),
(425,579,l),
(426,0,l),
(486,0,l),
(485,620,l),
(49,620,l)
);
},
{
closed = 1;
nodes = (
(78,330,l),
(456,330,l),
(456,390,l),
(78,390,l)
);
}
);
width = 536;
}
);
unicode = 65;
},
{
glyphname = "Alpha-latin";
lastChange = "2025-06-30 17:16:23 +0000";
layers = (
{
anchors = (
{
name = bottom;
pos = (120,0);
},
{
name = center;
pos = (120,225);
},
{
name = ogonek;
pos = (334,10);
},
{
name = top;
pos = (120,450);
},
{
name = topright;
pos = (368,450);
}
);
hints = (
{
name = _corner.round;
origin = (1,0);
scale = (2,2);
type = Corner;
},
{
name = _corner.round;
options = 2;
origin = (1,1);
scale = (2,2);
type = Corner;
},
{
name = _corner.round;
origin = (2,0,2,2);
stem = 1000;
type = Corner;
},
{
name = _corner.round;
origin = (2,0,2,6);
stem = 1000;
type = Corner;
},
{
name = _corner.round;
origin = (2,2,2,4);
stem = 1000;
type = Corner;
},
{
name = _corner.round;
origin = (2,4,2,6);
stem = 1000;
type = Corner;
},
{
name = _corner.round;
origin = (1,2);
scale = (2,2);
type = Corner;
},
{
name = _corner.round;
options = 2;
origin = (1,3);
scale = (2,2);
type = Corner;
},
{
name = _corner.round;
origin = (0,0);
type = Corner;
},
{
name = _corner.round;
origin = (0,7);
type = Corner;
}
);
layerId = m01;
shapes = (
{
closed = 1;
nodes = (
(398,0,l),
(521,0,l),
(521,60,l),
(458,60,l),
(458,560,l),
(521,560,l),
(521,620,l),
(398,620,l)
);
},
{
closed = 1;
nodes = (
(12,620,l),
(12,0,l),
(398,0,l),
(398,620,l)
);
},
{
closed = 1;
nodes = (
(72,575,l),
(49,560,l),
(363,560,l),
(338,575,l),
(338,35,l),
(363,60,l),
(49,60,l),
(72,35,l)
);
}
);
width = 536;
}
);
unicode = 11373;
},
{
glyphname = AE;
lastChange = "2025-06-29 23:24:16 +0000";
layers = (
{
anchors = (
{
name = bottom;
pos = (268,0);
},
{
name = ogonek;
pos = (482,10);
},
{
name = top;
pos = (268,620);
},
{
name = topleft;
pos = (556,620);
}
);
hints = (
{
name = _corner.round;
origin = (0,9);
scale = (2,2);
type = Corner;
},
{
name = _corner.round;
origin = (0,2,0,4);
stem = 1000;
type = Corner;
}
);
layerId = m01;
shapes = (
{
closed = 1;
nodes = (
(51,0,l),
(111,0,l),
(110,589,l),
(91,560,l),
(280,560,l),
(266,589,l),
(267,0,l),
(327,0,l),
(326,620,l),
(50,620,l)
);
},
{
closed = 1;
nodes = (
(92,330,l),
(281,330,l),
(281,390,l),
(92,390,l)
);
},
{
closed = 1;
nodes = (
(296,560,l),
(506,560,l),
(506,620,l),
(296,620,l)
);
},
{
closed = 1;
nodes = (
(296,330,l),
(470,330,l),
(470,390,l),
(296,390,l)
);
},
{
closed = 1;
nodes = (
(296,0,l),
(506,0,l),
(506,60,l),
(296,60,l)
);
}
);
width = 536;
}
);
unicode = 198;
},
{
color = 4;
glyphname = B;
lastChange = "2025-07-02 18:21:57 +0000";
layers = (
{
anchors = (
{
name = bottom;
pos = (268,0);
},
{
name = center;
pos = (134,155);
},
{
name = top;
pos = (268,620);
}
);
hints = (
{
name = _corner.round;
origin = (0,1);
scale = (2,2);
type = Corner;
},
{
name = _corner.round;
options = 2;
origin = (0,2);
scale = (2,2);
type = Corner;
},
{
name = _corner.round;
origin = (1,2,1,4);
stem = 1000;
type = Corner;
},
{
name = _corner.round;
origin = (1,4,1,6);
stem = 1000;
type = Corner;
},
{
name = _corner.round;
origin = (2,1);
scale = (2,2);
type = Corner;
},
{
name = _corner.round;
options = 2;
origin = (2,2);
scale = (2,2);
type = Corner;
},
{
name = _corner.round;
origin = (3,2,3,4);
stem = 1000;
type = Corner;
},
{
name = _corner.round;
origin = (3,4,3,6);
stem = 1000;
type = Corner;
}
);
layerId = m01;
shapes = (
{
closed = 1;
nodes = (
(50,330,l),
(486,330,l),
(486,620,l),
(50,620,l)
);
},
{
closed = 1;
nodes = (
(110,589,l),
(79,560,l),
(451,560,l),
(426,589,l),
(426,383,l),
(436,390,l),
(79,390,l),
(110,375,l)
);
},
{
closed = 1;
nodes = (
(50,0,l),
(486,0,l),
(486,390,l),
(50,390,l)
);
},
{
closed = 1;
nodes = (
(110,361,l),
(79,330,l),
(454,330,l),
(426,361,l),
(426,28,l),
(454,60,l),
(79,60,l),
(110,28,l)
);
}
);
width = 536;
}
);
unicode = 66;
},
{
glyphname = Bhook;
lastChange = "2025-06-30 16:16:57 +0000";
layers = (
{
anchors = (
{
name = bottom;
pos = (268,0);
},
{
name = center;
pos = (134,155);
},
{
name = top;
pos = (268,620);
}
);
hints = (
{
name = _corner.round;
origin = (0,1);
scale = (2,2);
type = Corner;
},
{
name = _corner.round;
options = 2;
origin = (0,2);
scale = (2,2);
type = Corner;
},
{
name = _corner.round;
origin = (1,2,1,4);
stem = 1000;
type = Corner;
},
{
name = _corner.round;
origin = (1,4,1,6);
stem = 1000;
type = Corner;
},
{
name = _corner.round;
origin = (2,1);
scale = (2,2);
type = Corner;
},
{
name = _corner.round;
options = 2;
origin = (2,2);
scale = (2,2);
type = Corner;
},
{
name = _corner.round;
origin = (3,2,3,4);
stem = 1000;
type = Corner;
},
{
name = _corner.round;
origin = (3,4,3,6);
stem = 1000;
type = Corner;
}
);
layerId = m01;
shapes = (
{
closed = 1;
nodes = (
(132,330,l),
(518,330,l),
(518,620,l),
(132,620,l)
);
},
{
closed = 1;
nodes = (
(192,589,l),
(161,560,l),
(483,560,l),
(458,589,l),
(458,383,l),
(468,390,l),
(161,390,l),
(192,375,l)
);
},
{
closed = 1;
nodes = (
(132,0,l),
(518,0,l),
(518,390,l),
(132,390,l)
);
},
{
closed = 1;
nodes = (
(192,361,l),
(161,330,l),
(486,330,l),
(458,361,l),
(458,28,l),
(486,60,l),
(161,60,l),
(192,28,l)
);
},
{
alignment = -1;
pos = (-403,0);
ref = _part.hook;
}
);
width = 536;
}
);
unicode = 385;
},
{
glyphname = Bstroke;
lastChange = "2025-07-01 20:00:44 +0000";
layers = (
{
layerId = m01;
shapes = (
{
ref = B;
},
{
closed = 1;
nodes = (
(10,220,l),
(10,170,l),
(250,170,l),
(250,220,l)
);
}
);
width = 536;
}
);
unicode = 579;
},
{
color = 4;
glyphname = C;
lastChange = "2025-07-02 18:21:57 +0000";
layers = (
{
anchors = (
{
name = bottom;
pos = (268,0);
},
{
name = top;
pos = (268,620);
}
);
hints = (
{
name = _corner.round;
origin = (0,0);
scale = (2,2);
type = Corner;
},
{
name = _corner.round;
origin = (0,9);
scale = (2,2);
type = Corner;
},
{
name = _corner.round;
origin = (0,3,0,5);
stem = 1000;
type = Corner;
},
{
name = _corner.round;
origin = (0,5,0,7);
stem = 1000;
type = Corner;
}
);
layerId = m01;
shapes = (
{
closed = 1;
nodes = (
(50,0,l),
(486,0,l),
(486,60,l),
(92,60,l),
(110,38,l),
(110,581,l),
(92,560,l),
(486,560,l),
(486,620,l),
(50,620,l)
);
}
);
width = 536;
}
);
unicode = 67;
},
{
color = 4;
glyphname = D;
lastChange = "2025-07-02 18:21:57 +0000";
layers = (
{
anchors = (
{
name = bottom;
pos = (268,0);
},
{
name = center;
pos = (134,310);
},
{
name = top;
pos = (268,620);
}
);
hints = (
{
name = _corner.round;
origin = (0,1);
scale = (2,2);
type = Corner;
},
{
name = _corner.round;
origin = (0,2);
scale = (2,2);
type = Corner;
},
{
name = _corner.round;
origin = (1,2,1,4);
stem = 1000;
type = Corner;
},
{
name = _corner.round;
origin = (1,4,1,6);
stem = 1000;
type = Corner;
}
);
layerId = m01;
shapes = (
{
closed = 1;
nodes = (
(50,0,l),
(486,0,l),
(486,620,l),
(50,620,l)
);
},
{
closed = 1;
nodes = (
(110,589,l),
(82,560,l),
(446,560,l),
(426,589,l),
(426,27,l),
(446,60,l),
(82,60,l),
(110,27,l)
);
}
);
width = 536;
}
);
unicode = 68;
},
{
glyphname = Dcroat;
lastChange = "2025-06-30 01:54:48 +0000";
layers = (
{
layerId = m01;
shapes = (
{
pos = (30,0);
ref = D;
},
{
closed = 1;
nodes = (
(20,335,l),
(20,285,l),
(302,285,l),
(302,335,l)
);
}
);
width = 536;
}
);
unicode = 272;
},
{
glyphname = Dhook;
lastChange = "2025-06-30 16:19:09 +0000";
layers = (
{
anchors = (
{
name = bottom;
pos = (286,0);
},
{
name = center;
pos = (152,310);
},
{
name = top;
pos = (286,620);
}
);
hints = (
{
name = _corner.round;
origin = (0,1);
scale = (2,2);
type = Corner;
},
{
name = _corner.round;
origin = (0,2);
scale = (2,2);
type = Corner;
},
{
name = _corner.round;
origin = (1,2,1,4);
stem = 1000;
type = Corner;
},
{
name = _corner.round;
origin = (1,4,1,6);
stem = 1000;
type = Corner;
}
);
layerId = m01;
shapes = (
{
closed = 1;
nodes = (
(140,0,l),
(516,0,l),
(516,620,l),
(140,620,l)
);
},
{
closed = 1;
nodes = (
(200,589,l),
(172,560,l),
(476,560,l),
(456,589,l),
(456,27,l),
(476,60,l),
(172,60,l),
(200,27,l)
);
},
{
alignment = -1;
pos = (-394,0);
ref = _part.hook;
}
);
width = 536;
}
);
unicode = 394;
},
{
glyphname = Dtail;
lastChange = "2025-06-30 16:33:37 +0000";
layers = (
{
layerId = m01;
shapes = (
{
ref = D;
},
{
closed = 1;
nodes = (
(10,280,l),
(290,280,l),
(290,340,l),
(10,340,l)
);
}
);
width = 536;
}
);
unicode = 393;
},
{
color = 4;
glyphname = E;
lastChange = "2025-07-02 18:21:57 +0000";
layers = (
{
anchors = (
{
name = bottom;
pos = (268,0);
},
{
name = ogonek;
pos = (482,10);
},
{
name = top;
pos = (268,620);
},
{
name = topleft;
pos = (20,620);
}
);
layerId = m01;
shapes = (
{
closed = 1;
nodes = (
(50,0,l),
(486,0,l),
(486,60,l),
(76,60,l),
(110,28,l),
(110,590,l),
(76,560,l),
(486,560,l),
(486,620,l),
(50,620,l)
);
},
{
closed = 1;
nodes = (
(76,330,l),
(410,330,l),
(410,390,l),
(76,390,l)
);
}
);
width = 536;
}
);
unicode = 69;
},
{
glyphname = Eopen;
lastChange = "2025-06-30 17:10:52 +0000";
layers = (
{
anchors = (
{
name = bottom;
pos = (268,0);
},
{
name = ogonek;
pos = (482,10);
},
{
name = top;
pos = (268,620);
},
{
name = topleft;
pos = (20,620);
}
);
hints = (
{
name = _corner.round;
origin = (0,0);
scale = (2,2);
type = Corner;
},
{
name = _corner.round;
origin = (0,7);
scale = (2,2);
type = Corner;
},
{
name = _corner.round;
origin = (0,3);
type = Corner;
},
{
name = _corner.round;
options = 2;
origin = (0,4);
scale = (-1,1);
type = Corner;
},
{
name = _corner.round;
origin = (1,6);
scale = (2,2);
type = Corner;
},
{
name = _corner.round;
origin = (1,3);
type = Corner;
},
{
name = _corner.round;
options = 2;
origin = (1,2);
scale = (-1,1);
type = Corner;
},
{
name = _corner.round;
origin = (1,7);
scale = (2,2);
type = Corner;
}
);
layerId = m01;
shapes = (
{
closed = 1;
nodes = (
(50,330,l),
(410,330,l),
(410,390,l),
(110,390,l),
(110,560,l),
(486,560,l),
(486,620,l),
(50,620,l)
);
},
{
closed = 1;
nodes = (
(486,0,l),
(486,60,l),
(110,60,l),
(110,330,l),
(410,330,l),
(410,390,l),
(50,390,l),
(50,0,l)
);
}
);
width = 536;
}
);
unicode = 400;
},
{
glyphname = Esh;
lastChange = "2025-06-30 17:09:29 +0000";
layers = (
{
hints = (
{
name = _corner.round;
origin = (0,1);
scale = (0.5,0.5);
type = Corner;
},
{
name = _corner.round;
origin = (0,2);
scale = (0.5,0.5);
type = Corner;
},
{
name = _corner.round;
origin = (0,3);
scale = (0.5,0.5);
type = Corner;
}
);
layerId = m01;
shapes = (
{
attr = {
strokeWidth = 60;
};
closed = 0;
nodes = (
(483,587,l),
(59,587,l),
(295,353,l),
(59,31,l),
(483,31,l)
);
}
);
width = 536;
}
);
unicode = 425;
},
{
glyphname = Schwa;
lastChange = "2025-06-30 01:57:07 +0000";
layers = (
{
anchors = (
{
name = bottom;
pos = (268,0);
},
{
name = ogonekabove;
pos = (54,440);
},
{
name = top;
pos = (268,450);
}
);
hints = (
{
name = _corner.round;
origin = (0,3);
scale = (2,2);
type = Corner;
},
{
name = _corner.round;
origin = (0,4);
scale = (2,2);
type = Corner;
},
{
name = _corner.round;
origin = (0,2);
scale = (2,2);
type = Corner;
},
{
name = _corner.round;
origin = (0,1);
scale = (2,2);
type = Corner;
},
{
name = _corner.round;
origin = (0,11,0,13);
stem = 1000;
type = Corner;
},
{
name = _corner.round;
origin = (0,13,0,15);
stem = 1000;
type = Corner;
},
{
name = _corner.round;
origin = (0,9,0,11);
stem = 1000;
type = Corner;
},
{
name = _corner.round;
origin = (0,7,0,9);
stem = 1000;
type = Corner;
}
);
layerId = m01;
shapes = (
{
closed = 1;
nodes = (
(451,340,l),
(50,340,l),
(50,0,l),
(486,0,l),
(486,620,l),
(50,620,l),
(50,560,l),
(451,560,l),
(426,593,l),
(426,25,l),
(451,60,l),
(85,60,l),
(110,25,l),
(110,296,l),
(85,280,l),
(451,280,l)
);
}
);
width = 536;
}
);
unicode = 399;
},
{
glyphname = Ezh;
lastChange = "2025-07-01 20:15:52 +0000";
layers = (
{
anchors = (
{
name = bottom;
pos = (268,0);
},
{
name = top;
pos = (268,620);
}
);
hints = (
{
name = _corner.round;
origin = (0,0);
scale = (2,2);
type = Corner;
},
{
name = _corner.round;
origin = (0,3);
type = Corner;
},
{
name = _corner.round;
options = 2;
origin = (0,4);
scale = (-1,1);
type = Corner;
},
{
name = _corner.round;
origin = (0,7);
scale = (2,2);
type = Corner;
},
{
name = _corner.round;
origin = (1,0);
scale = (0.5,0.5);
type = Corner;
},
{
name = _corner.round;
origin = (1,1);
scale = (0.5,0.5);
type = Corner;
}
);
layerId = m01;
shapes = (
{
closed = 1;
nodes = (
(486,390,l),
(206,390,l),
(206,330,l),
(426,330,l),
(426,60,l),
(50,60,l),
(50,0,l),
(486,0,l)
);
},
{
attr = {
strokeWidth = 60;
};
closed = 0;
nodes = (
(226,368,l),
(465,590,l),
(41,590,l)
);
}
);
width = 536;
}
);
unicode = 439;
},
{
color = 4;
glyphname = F;
lastChange = "2025-07-02 18:21:57 +0000";
layers = (
{
anchors = (
{
name = bottom;
pos = (268,0);
},
{
name = top;
pos = (268,620);
}
);
layerId = m01;
shapes = (
{
closed = 1;
nodes = (
(50,0,l),
(110,0,l),
(110,595,l),
(81,560,l),
(486,560,l),
(486,620,l),
(50,620,l)
);
},
{
closed = 1;
nodes = (
(81,330,l),
(410,330,l),
(410,390,l),
(81,390,l)
);
}
);
width = 536;
}
);
unicode = 70;
},
{
color = 4;
glyphname = G;
lastChange = "2025-07-02 18:21:57 +0000";
layers = (
{
anchors = (
{
name = bottom;
pos = (268,0);
},
{
name = top;
pos = (268,620);
}
);
hints = (
{
name = _corner.round;
origin = (0,0);
scale = (2,2);
type = Corner;
},
{
name = _corner.round;
origin = (0,15);
scale = (2,2);
type = Corner;
},
{
name = _corner.round;
origin = (0,1);
scale = (2,2);
type = Corner;
},
{
name = _corner.round;
origin = (0,2);
scale = (2,2);
type = Corner;
},
{
name = _corner.round;
origin = (0,5,0,7);
stem = 1000;
type = Corner;
},
{
name = _corner.round;
origin = (0,7,0,9);
stem = 1000;
type = Corner;
},
{
name = _corner.round;
origin = (0,9,0,11);
stem = 1000;
type = Corner;
},
{
name = _corner.round;
origin = (0,11,0,13);
stem = 1000;
type = Corner;
}
);
layerId = m01;
shapes = (
{
closed = 1;
nodes = (
(50,0,l),
(486,0,l),
(486,390,l),
(221,390,l),
(221,330,l),
(443,330,l),
(426,355,l),
(426,38,l),
(443,60,l),
(93,60,l),
(110,38,l),
(110,590,l),
(93,560,l),
(446,560,l),
(446,620,l),
(50,620,l)
);
}
);
width = 536;
}
);
unicode = 71;
},
{
glyphname = Gstroke;
lastChange = "2025-06-30 18:35:45 +0000";
layers = (
{
layerId = m01;
shapes = (
{
ref = G;
},
{
closed = 1;
nodes = (
(306,153,l),
(526,153,l),
(526,213,l),
(306,213,l)
);
}
);
width = 536;
}
);
unicode = 484;
},
{
color = 4;
glyphname = H;
lastChange = "2025-07-02 18:21:57 +0000";
layers = (
{
anchors = (
{
name = bottom;
pos = (268,0);
},
{
name = center;
pos = (268,465);
},
{
name = top;
pos = (268,620);
},
{
name = topleft;
pos = (20,620);
}
);
layerId = m01;
shapes = (
{
closed = 1;
nodes = (
(50,0,l),
(110,0,l),
(110,620,l),
(50,620,l)
);
},
{
closed = 1;
nodes = (
(426,0,l),
(486,0,l),
(486,620,l),
(426,620,l)
);
},
{
closed = 1;
nodes = (
(82,330,l),
(457,330,l),
(457,390,l),
(82,390,l)
);
}
);
width = 536;
}
);
unicode = 72;
},
{
glyphname = Hbar;
lastChange = "2025-06-30 01:57:41 +0000";
layers = (
{
layerId = m01;
shapes = (
{
ref = H;
},
{
closed = 1;
nodes = (
(18,461,l),
(518,461,l),
(518,516,l),
(18,516,l)
);
}
);
width = 536;
}
);
unicode = 294;
},
{
glyphname = Hhook;
lastChange = "2025-06-30 16:21:47 +0000";
layers = (
{
anchors = (
{
name = bottom;
pos = (295,0);
},
{
name = center;
pos = (295,465);
},
{
name = top;
pos = (295,620);
},
{
name = topleft;
pos = (47,620);
}
);
layerId = m01;
shapes = (
{
closed = 1;
nodes = (
(140,0,l),
(200,0,l),
(200,620,l),
(140,620,l)
);
},
{
closed = 1;
nodes = (
(456,0,l),
(516,0,l),
(516,620,l),
(456,620,l)
);
},
{
closed = 1;
nodes = (
(185,330,l),
(470,330,l),
(470,390,l),
(185,390,l)
);
},
{
alignment = -1;
pos = (-395,0);
ref = _part.hook;
}
);
width = 536;
}
);
unicode = 42922;
},
{
glyphname = Hturned;
lastChange = "2025-06-30 02:05:32 +0000";
layers = (
{
anchors = (
{
name = bottom;
pos = (268,0);
},
{
name = center;
pos = (268,465);
},
{
name = top;
pos = (268,620);
},
{
name = topleft;
pos = (20,620);
}
);
layerId = m01;
shapes = (
{
closed = 1;
nodes = (
(50,330,l),
(110,330,l),
(110,620,l),
(50,620,l)
);
},
{
closed = 1;
nodes = (
(426,0,l),
(486,0,l),
(486,620,l),
(426,620,l)
);
},
{
closed = 1;
nodes = (
(95,330,l),
(440,330,l),
(440,390,l),
(95,390,l)
);
}
);
width = 536;
}
);
unicode = 42893;
},
{
color = 4;
glyphname = I;
lastChange = "2025-07-02 18:21:57 +0000";
layers = (
{
anchors = (
{
name = bottom;
pos = (268,0);
},
{
name = ogonek;
pos = (482,10);
},
{
name = top;
pos = (268,620);
},
{
name = topleft;
pos = (20,620);
}
);
layerId = m01;
shapes = (
{
closed = 1;
nodes = (
(50,620,l),
(50,560,l),
(253,560,l),
(238,591,l),
(238,27,l),
(253,60,l),
(50,60,l),
(50,0,l),
(486,0,l),
(486,60,l),
(283,60,l),
(298,27,l),
(298,591,l),
(283,560,l),
(486,560,l),
(486,620,l)
);
}
);
width = 536;
}
);
unicode = 73;
},
{
glyphname = IJ;
lastChange = "2025-06-29 23:26:06 +0000";
layers = (
{
anchors = (
{
name = bottom;
pos = (268,0);
},
{
name = ogonek;
pos = (482,10);
},
{
name = top;
pos = (268,620);
},
{
name = topleft;
pos = (20,620);
}
);
hints = (
{
name = _corner.round;
origin = (1,6);
scale = (2,2);
type = Corner;
},
{
name = _corner.round;
origin = (1,7);
scale = (2,2);
type = Corner;
},
{
name = _corner.round;
origin = (1,0,1,2);
stem = 1000;
type = Corner;
},
{
name = _corner.round;
origin = (1,2,1,4);
stem = 1000;
type = Corner;
}
);
layerId = m01;
shapes = (
{
closed = 1;
nodes = (
(30,620,l),
(30,560,l),
(123,560,l),
(108,591,l),
(108,27,l),
(123,60,l),
(30,60,l),
(30,0,l),
(236,0,l),
(236,60,l),
(153,60,l),
(168,27,l),
(168,591,l),
(153,560,l),
(246,560,l),
(246,620,l)
);
},
{
closed = 1;
nodes = (
(446,27,l),
(475,60,l),
(278,60,l),
(306,27,l),
(306,240,l),
(246,240,l),
(246,0,l),
(506,0,l),
(506,620,l),
(446,620,l)
);
}
);
width = 536;
}
);
unicode = 306;
},
{
glyphname = "Iota-latin";
lastChange = "2025-06-30 16:31:54 +0000";
layers = (
{
anchors = (
{
name = bottom;
pos = (238,0);
},
{
name = ogonek;
pos = (452,10);
},
{
name = top;
pos = (238,620);
},
{
name = topleft;
pos = (-10,620);
}
);
layerId = m01;
shapes = (
{
closed = 1;
nodes = (
(33,620,l),
(33,560,l),
(216,560,l),
(201,591,l),
(201,27,l),
(216,60,l),
(33,60,l),
(33,0,l),
(429,0,l),
(429,60,l),
(246,60,l),
(261,27,l),
(261,591,l),
(246,560,l),
(429,560,l),
(429,620,l)
);
},
{
alignment = -1;
angle = 90;
pos = (989,-535);
ref = _part.hook;
}
);
width = 536;
}
);
unicode = 406;
},
{
glyphname = Istroke;
lastChange = "2025-06-30 16:36:10 +0000";
layers = (
{
layerId = m01;
shapes = (
{
ref = I;
},
{
closed = 1;
nodes = (
(90,280,l),
(446,280,l),
(446,340,l),
(90,340,l)
);
}
);
width = 536;
}
);
unicode = 407;
},
{
color = 4;
glyphname = J;
lastChange = "2025-07-02 18:21:57 +0000";
layers = (
{
anchors = (
{
name = bottom;
pos = (268,0);
},
{
name = top;
pos = (268,620);
}
);
hints = (
{
name = _corner.round;
origin = (0,6);
scale = (2,2);
type = Corner;
},
{
name = _corner.round;
origin = (0,7);
scale = (2,2);
type = Corner;
},
{
name = _corner.round;
origin = (0,0,0,2);
stem = 1000;
type = Corner;
},
{
name = _corner.round;
origin = (0,2,0,4);
stem = 1000;
type = Corner;
}
);
layerId = m01;
shapes = (
{
closed = 1;
nodes = (
(426,38,l),
(451,60,l),
(87,60,l),
(110,38,l),
(110,240,l),
(50,240,l),
(50,0,l),
(486,0,l),
(486,620,l),
(426,620,l)
);
}
);
width = 536;
}
);
unicode = 74;
},
{
color = 4;
glyphname = K;
lastChange = "2025-07-02 18:21:57 +0000";
layers = (
{
anchors = (
{
name = bottom;
pos = (268,0);
},
{
name = top;
pos = (268,620);
}
);
layerId = m01;
shapes = (
{
closed = 1;
nodes = (
(50,0,l),
(110,0,l),
(110,620,l),
(50,620,l)
);
},
{
closed = 1;
nodes = (
(224,332,l),
(437,0,l),
(509,0,l),
(261,393,l)
);
},
{
closed = 1;
nodes = (
(466,620,l),
(394,620,l),
(79,232,l),
(78,123,l)
);
}
);
width = 536;
}
);
unicode = 75;
},
{
glyphname = Khook;
lastChange = "2025-06-30 16:32:41 +0000";
layers = (
{
anchors = (
{
name = bottom;
pos = (268,0);
},
{
name = top;
pos = (268,620);
}
);
layerId = m01;
shapes = (
{
closed = 1;
nodes = (
(30,0,l),
(90,0,l),
(90,620,l),
(30,620,l)
);
},
{
closed = 1;
nodes = (
(204,332,l),
(417,0,l),
(489,0,l),
(241,393,l)
);
},
{
closed = 1;
nodes = (
(446,620,l),
(386,620,l),
(71,232,l),
(58,123,l)
);
},
{
alignment = -1;
pos = (-24,154);
ref = _part.hook;
}
);
width = 536;
}
);
unicode = 408;
},
{
color = 4;
glyphname = L;
lastChange = "2025-07-02 18:21:57 +0000";
layers = (
{
anchors = (
{
name = bottom;
pos = (268,0);
},
{
name = center;
pos = (268,310);
},
{
name = top;
pos = (268,620);
},
{
name = topright;
pos = (516,620);
}
);
layerId = m01;
shapes = (
{
closed = 1;
nodes = (
(50,620,l),
(50,0,l),
(486,0,l),
(486,60,l),
(79,60,l),
(110,31,l),
(110,620,l)
);
}
);
width = 536;
}
);
unicode = 76;
},
{
glyphname = Lslash;
lastChange = "2025-06-30 01:51:10 +0000";
layers = (
{
anchors = (
{
name = bottom;
pos = (268,0);
},
{
name = center;
pos = (268,310);
},
{
name = top;
pos = (268,620);
},
{
name = topright;
pos = (516,620);
}
);
layerId = m01;
shapes = (
{
closed = 1;
nodes = (
(110,620,l),
(110,0,l),
(496,0,l),
(496,60,l),
(143,60,l),
(170,31,l),
(170,620,l)
);
},
{
closed = 1;
nodes = (
(70,283,l),
(286,408,l),
(256,460,l),
(40,335,l)
);
}
);
width = 536;
}
);
unicode = 321;
},
{
color = 4;
glyphname = M;
lastChange = "2025-07-02 18:21:57 +0000";
layers = (
{
anchors = (
{
name = bottom;
pos = (268,0);
},
{
name = top;
pos = (268,620);
}
);
guides = (
{
pos = (-199,630);
}
);
layerId = m01;
shapes = (
{
closed = 1;
nodes = (
(90,0,l),
(90,588,l),
(59,588,l),
(234,237,l),
(302,237,l),
(472,578,l),
(446,594,l),
(446,0,l),
(506,0,l),
(506,620,l),
(426,620,l),
(247,261,l),
(289,261,l),
(110,620,l),
(30,620,l),
(30,0,l)
);
}
);
width = 536;
}
);
unicode = 77;
},
{
color = 4;
glyphname = N;
lastChange = "2025-07-02 18:21:57 +0000";
layers = (
{
anchors = (
{
name = bottom;
pos = (268,0);
},
{
name = top;
pos = (268,620);
}
);
layerId = m01;
shapes = (
{
closed = 1;
nodes = (
(486,0,l),
(486,620,l),
(426,620,l),
(426,15,l),
(446,20,l),
(145,620,l),
(54,620,l),
(50,0,l),
(110,0,l),
(114,594,l),
(94,589,l),
(389,0,l)
);
}
);
width = 536;
}
);
unicode = 78;
},
{
glyphname = Nhookleft;
lastChange = "2025-06-30 16:22:38 +0000";
layers = (
{
anchors = (
{
name = bottom;
pos = (268,0);
},
{
name = top;
pos = (268,620);
}
);
layerId = m01;
shapes = (
{
closed = 1;
nodes = (
(225,620,l),
(161,620,l),
(432,0,l),
(496,0,l)
);
},
{
closed = 1;
nodes = (
(134,620,l),
(130,0,l),
(190,0,l),
(190,620,l)
);
},
{
closed = 1;
nodes = (
(526,0,l),
(526,620,l),
(466,620,l),
(466,0,l)
);
},
{
alignment = -1;
pos = (-401,0);
ref = _part.hook;
}
);
width = 536;
}
);
unicode = 413;
},
{
glyphname = Eng;
lastChange = "2025-06-30 16:23:59 +0000";
layers = (
{
anchors = (
{
name = bottom;
pos = (268,0);
},
{
name = top;
pos = (268,620);
}
);
layerId = m01;
shapes = (
{
closed = 1;
nodes = (
(145,620,l),
(81,620,l),
(372,0,l),
(432,0,l)
);
},
{
closed = 1;
nodes = (
(54,620,l),
(50,0,l),
(110,0,l),
(110,620,l)
);
},
{
closed = 1;
nodes = (
(432,0,l),
(432,620,l),
(372,620,l),
(372,0,l)
);
},
{
alignment = -1;
angle = 90;
pos = (992,-535);
ref = _part.hook;
}
);
width = 536;
}
);
unicode = 330;
},
{
color = 4;
glyphname = O;
lastChange = "2025-07-02 18:21:57 +0000";
layers = (
{
anchors = (
{
name = bottom;
pos = (268,0);
},
{
name = center;
pos = (268,310);
},
{
name = ogonek;
pos = (482,10);
},
{
name = top;
pos = (268,620);
},
{
name = topleft;
pos = (20,620);
},
{
name = topright;
pos = (516,620);
}
);
hints = (
{
name = _corner.round;
origin = (0,1);
scale = (2,2);
type = Corner;
},
{
name = _corner.round;
origin = (0,2);
scale = (2,2);
type = Corner;
},
{
name = _corner.round;
origin = (0,0);
scale = (2,2);
type = Corner;
},
{
name = _corner.round;
origin = (0,3);
scale = (2,2);
type = Corner;
},
{
name = _corner.round;
origin = (1,0,1,2);
stem = 1000;
type = Corner;
},
{
name = _corner.round;
origin = (1,0,1,6);
stem = 1000;
type = Corner;
},
{
name = _corner.round;
origin = (1,2,1,4);
stem = 1000;
type = Corner;
},
{
name = _corner.round;
origin = (1,4,1,6);
stem = 1000;
type = Corner;
}
);
layerId = m01;
shapes = (
{
closed = 1;
nodes = (
(50,0,l),
(486,0,l),
(486,620,l),
(50,620,l)
);
},
{
closed = 1;
nodes = (
(110,582,l),
(85,560,l),
(449,560,l),
(426,582,l),
(426,39,l),
(449,60,l),
(85,60,l),
(110,39,l)
);
}
);
width = 536;
}
);
unicode = 79;
},
{
glyphname = Oopen;
lastChange = "2025-06-30 16:25:29 +0000";
layers = (
{
anchors = (
{
name = bottom;
pos = (268,0);
},
{
name = center;
pos = (268,310);
},
{
name = ogonek;
pos = (482,10);
},
{
name = top;
pos = (268,620);
},
{
name = topleft;
pos = (20,620);
},
{
name = topright;
pos = (516,620);
}
);
hints = (
{
name = _corner.round;
origin = (0,7);
scale = (2,2);
type = Corner;
},
{
name = _corner.round;
origin = (0,8);
scale = (2,2);
type = Corner;
},
{
name = _corner.round;
origin = (0,1,0,3);
stem = 1000;
type = Corner;
},
{
name = _corner.round;
origin = (0,3,0,5);
stem = 1000;
type = Corner;
}
);
layerId = m01;
shapes = (
{
closed = 1;
nodes = (
(50,560,l),
(461,560,l),
(426,592,l),
(426,27,l),
(461,60,l),
(50,60,l),
(50,0,l),
(486,0,l),
(486,620,l),
(50,620,l)
);
}
);
width = 536;
}
);
unicode = 390;
},
{
glyphname = Oslash;
lastChange = "2025-06-29 23:27:37 +0000";
layers = (
{
layerId = m01;
shapes = (
{
pos = (-7,0);
ref = O;
},
{
closed = 1;
nodes = (
(27,0,l),
(87,0,l),
(509,620,l),
(449,620,l)
);
}
);
width = 536;
}
);
unicode = 216;
},
{
glyphname = OE;
lastChange = "2025-06-29 23:28:52 +0000";
layers = (
{
anchors = (
{
name = bottom;
pos = (268,0);
},
{
name = center;
pos = (268,310);
},
{
name = ogonek;
pos = (482,10);
},
{
name = top;
pos = (268,620);
},
{
name = topleft;
pos = (20,620);
},
{
name = topright;
pos = (516,620);
}
);
hints = (
{
name = _corner.round;
origin = (0,0);
scale = (2,2);
type = Corner;
},
{
name = _corner.round;
origin = (0,3);
scale = (2,2);
type = Corner;
},
{
name = _corner.round;
origin = (1,0,1,2);
stem = 1000;
type = Corner;
},
{
name = _corner.round;
origin = (1,0,1,6);
stem = 1000;
type = Corner;
},
{
name = _corner.round;
origin = (1,2,1,4);
stem = 1000;
type = Corner;
},
{
name = _corner.round;
origin = (1,4,1,6);
stem = 1000;
type = Corner;
}
);
layerId = m01;
shapes = (
{
closed = 1;
nodes = (
(45,0,l),
(331,0,l),
(331,620,l),
(45,620,l)
);
},
{
closed = 1;
nodes = (
(105,592,l),
(70,560,l),
(306,560,l),
(271,592,l),
(271,27,l),
(306,60,l),
(70,60,l),
(105,27,l)
);
},
{
closed = 1;
nodes = (
(291,0,l),
(491,0,l),
(491,60,l),
(291,60,l)
);
},
{
closed = 1;
nodes = (
(291,330,l),
(445,330,l),
(445,390,l),
(291,390,l)
);
},
{
closed = 1;
nodes = (
(291,560,l),
(491,560,l),
(491,620,l),
(291,620,l)
);
}
);
width = 536;
}
);
unicode = 338;
},
{
color = 4;
glyphname = P;
lastChange = "2025-07-02 18:21:57 +0000";
layers = (
{
anchors = (
{
name = bottom;
pos = (268,0);
},
{
name = top;
pos = (268,620);
}
);
hints = (
{
name = _corner.round;
origin = (0,1);
scale = (2,2);
type = Corner;
},
{
name = _corner.round;
options = 2;
origin = (0,2);
scale = (2,2);
type = Corner;
},
{
name = _corner.round;
origin = (0,8,0,10);
stem = 1000;
type = Corner;
},
{
name = _corner.round;
origin = (0,10,0,12);
stem = 1000;
type = Corner;
}
);
layerId = m01;
shapes = (
{
closed = 1;
nodes = (
(85,330,l),
(488,330,l),
(488,620,l),
(52,620,l),
(52,0,l),
(112,0,l),
(112,585,l),
(85,560,l),
(450,560,l),
(428,585,l),
(428,370,l),
(450,390,l),
(85,390,l)
);
}
);
width = 536;
}
);
unicode = 80;
},
{
glyphname = Phook;
lastChange = "2025-06-30 16:26:12 +0000";
layers = (
{
anchors = (
{
name = bottom;
pos = (351,0);
},
{
name = top;
pos = (351,620);
}
);
hints = (
{
name = _corner.round;
origin = (0,1);
scale = (2,2);
type = Corner;
},
{
name = _corner.round;
options = 2;
origin = (0,2);
scale = (2,2);
type = Corner;
},
{
name = _corner.round;
origin = (0,8,0,10);
stem = 1000;
type = Corner;
},
{
name = _corner.round;
origin = (0,10,0,12);
stem = 1000;
type = Corner;
}
);
layerId = m01;
shapes = (
{
closed = 1;
nodes = (
(159,330,l),
(526,330,l),
(526,620,l),
(135,620,l),
(135,0,l),
(195,0,l),
(195,595,l),
(159,560,l),
(488,560,l),
(466,595,l),
(466,357,l),
(488,390,l),
(159,390,l)
);
},
{
alignment = -1;
pos = (-400,0);
ref = _part.hook;
}
);
width = 536;
}
);
unicode = 420;
},
{
glyphname = Thorn;
lastChange = "2025-06-29 23:30:45 +0000";
layers = (
{
anchors = (
{
name = bottom;
pos = (398,-83);
},
{
name = top;
pos = (398,537);
}
);
hints = (
{
name = _corner.round;
origin = (1,7);
scale = (2,2);
type = Corner;
},
{
name = _corner.round;
options = 2;
origin = (1,8);
scale = (2,2);
type = Corner;
},
{
name = _corner.round;
origin = (1,3,1,5);
stem = 1000;
type = Corner;
},
{
name = _corner.round;
origin = (1,1,1,3);
stem = 1000;
type = Corner;
}
);
layerId = m01;
shapes = (
{
closed = 1;
nodes = (
(92,0,l),
(152,0,l),
(152,620,l),
(92,620,l)
);
},
{
closed = 1;
nodes = (
(134,395,l),
(417,395,l),
(395,430,l),
(395,192,l),
(417,225,l),
(134,225,l),
(134,165,l),
(455,165,l),
(455,455,l),
(134,455,l)
);
}
);
width = 600;
}
);
unicode = 222;
},
{
color = 4;
glyphname = Q;
lastChange = "2025-07-02 18:21:57 +0000";
layers = (
{
anchors = (
{
name = bottom;
pos = (268,0);
},
{
name = top;
pos = (268,620);
}
);
hints = (
{
name = _corner.round;
origin = (0,0);
scale = (2,2);
type = Corner;
},
{
name = _corner.round;
origin = (0,3);
scale = (2,2);
type = Corner;
},
{
name = _corner.round;
origin = (0,1);
scale = (2,2);
type = Corner;
},
{
name = _corner.round;
origin = (0,2);
scale = (2,2);
type = Corner;
},
{
name = _corner.round;
origin = (1,0,1,2);
stem = 1000;
type = Corner;
},
{
name = _corner.round;
origin = (1,0,1,6);
stem = 1000;
type = Corner;
},
{
name = _corner.round;
origin = (1,2,1,4);
stem = 1000;
type = Corner;
},
{
name = _corner.round;
origin = (1,4,1,6);
stem = 1000;
type = Corner;
}
);
layerId = m01;
shapes = (
{
closed = 1;
nodes = (
(50,0,l),
(486,0,l),
(486,620,l),
(50,620,l)
);
},
{
closed = 1;
nodes = (
(110,585,l),
(86,560,l),
(450,560,l),
(426,585,l),
(426,35,l),
(450,60,l),
(86,60,l),
(110,35,l)
);
},
{
closed = 1;
nodes = (
(306,25,l),
(306,-112,l),
(366,-112,l),
(366,25,l)
);
}
);
width = 536;
}
);
unicode = 81;
},
{
color = 4;
glyphname = R;
lastChange = "2025-07-02 18:21:57 +0000";
layers = (
{
anchors = (
{
name = bottom;
pos = (268,0);
},
{
name = top;
pos = (268,620);
}
);
hints = (
{
name = _corner.round;
origin = (0,1);
scale = (2,2);
type = Corner;
},
{
name = _corner.round;
options = 2;
origin = (0,2);
scale = (2,2);
type = Corner;
},
{
name = _corner.round;
origin = (0,8,0,10);
stem = 1000;
type = Corner;
},
{
name = _corner.round;
origin = (0,10,0,12);
stem = 1000;
type = Corner;
},
{
name = _corner.round;
origin = (1,5);
scale = (2,2);
type = Corner;
},
{
name = _corner.round;
origin = (1,1,1,3);
stem = 1000;
type = Corner;
}
);
layerId = m01;
shapes = (
{
closed = 1;
nodes = (
(77,330,l),
(486,330,l),
(486,620,l),
(50,620,l),
(50,0,l),
(110,0,l),
(110,585,l),
(77,560,l),
(451,560,l),
(426,585,l),
(426,377,l),
(443,390,l),
(77,390,l)
);
},
{
closed = 1;
nodes = (
(77,330,l),
(443,330,l),
(426,358,l),
(426,0,l),
(486,0,l),
(486,390,l),
(77,390,l)
);
}
);
width = 536;
}
);
unicode = 82;
},
{
glyphname = Rstroke;
lastChange = "2025-06-30 16:35:02 +0000";
layers = (
{
layerId = m01;
shapes = (
{
ref = R;
},
{
closed = 1;
nodes = (
(10,330,l),
(290,330,l),
(290,390,l),
(10,390,l)
);
}
);
width = 536;
}
);
unicode = 588;
},
{
color = 4;
glyphname = S;
lastChange = "2025-07-02 18:21:57 +0000";
layers = (
{
anchors = (
{
name = bottom;
pos = (268,0);
},
{
name = top;
pos = (268,620);
}
);
hints = (
{
name = _corner.round;
origin = (0,1);
scale = (2,2);
type = Corner;
},
{
name = _corner.round;
options = 2;
origin = (0,0);
scale = (2,2);
type = Corner;
},
{
name = _corner.round;
origin = (0,8);
scale = (2,2);
type = Corner;
},
{
name = _corner.round;
origin = (0,9);
scale = (2,2);
type = Corner;
},
{
name = _corner.round;
origin = (0,2,0,4);
stem = 1000;
type = Corner;
},
{
name = _corner.round;
origin = (0,4,0,6);
stem = 1000;
type = Corner;
},
{
name = _corner.round;
origin = (0,10,0,12);
stem = 1000;
type = Corner;
},
{
name = _corner.round;
origin = (0,12,0,14);
stem = 1000;
type = Corner;
}
);
layerId = m01;
shapes = (
{
closed = 1;
nodes = (
(50,620,l),
(50,330,l),
(446,330,l),
(426,345,l),
(426,43,l),
(451,60,l),
(50,60,l),
(50,0,l),
(486,0,l),
(486,390,l),
(94,390,l),
(110,371,l),
(110,578,l),
(94,560,l),
(456,560,l),
(456,620,l)
);
}
);
width = 536;
}
);
unicode = 83;
},
{
glyphname = Germandbls;
lastChange = "2025-06-29 23:39:53 +0000";
layers = (
{
hints = (
{
name = _corner.round;
origin = (0,0);
scale = (2,2);
type = Corner;
},
{
name = _corner.round;
options = 2;
origin = (0,1);
scale = (2,2);
type = Corner;
},
{
name = _corner.round;
origin = (2,1);
scale = (0.5,0.5);
type = Corner;
},
{
name = _corner.round;
origin = (2,2);
scale = (0.5,0.5);
type = Corner;
},
{
name = _corner.round;
origin = (0,6,0,8);
stem = 1000;
type = Corner;
},
{
name = _corner.round;
origin = (0,4,0,6);
stem = 1000;
type = Corner;
}
);
layerId = m01;
shapes = (
{
closed = 1;
nodes = (
(486,0,l),
(486,363,l),
(290,363,l),
(290,303,l),
(451,303,l),
(426,333,l),
(426,35,l),
(451,60,l),
(160,60,l),
(160,0,l)
);
},
{
closed = 1;
nodes = (
(110,0,l),
(110,620,l),
(50,620,l),
(50,0,l)
);
},
{
attr = {
strokeWidth = 60;
};
closed = 0;
nodes = (
(90,590,l),
(409,590,l),
(211,333,l),
(292,333,l)
);
}
);
width = 536;
}
);
unicode = 7838;
},
{
color = 4;
glyphname = T;
lastChange = "2025-07-02 18:21:57 +0000";
layers = (
{
anchors = (
{
name = bottom;
pos = (268,0);
},
{
name = center;
pos = (268,310);
},
{
name = top;
pos = (268,620);
}
);
layerId = m01;
shapes = (
{
closed = 1;
nodes = (
(516,560,l),
(516,620,l),
(20,620,l),
(20,560,l)
);
},
{
closed = 1;
nodes = (
(238,0,l),
(298,0,l),
(298,585,l),
(238,585,l)
);
}
);
width = 536;
}
);
unicode = 84;
},
{
glyphname = Thook;
lastChange = "2025-06-30 16:19:56 +0000";
layers = (
{
anchors = (
{
name = bottom;
pos = (268,0);
},
{
name = center;
pos = (268,310);
},
{
name = top;
pos = (268,620);
}
);
layerId = m01;
shapes = (
{
closed = 1;
nodes = (
(144,620,l),
(144,560,l),
(253,560,l),
(238,595,l),
(238,0,l),
(298,0,l),
(298,595,l),
(283,560,l),
(516,560,l),
(516,620,l)
);
},
{
alignment = -1;
pos = (-390,0);
ref = _part.hook;
}
);
width = 536;
}
);
unicode = 428;
},
{
color = 4;
glyphname = U;
lastChange = "2025-07-02 18:21:57 +0000";
layers = (
{
anchors = (
{
name = bottom;
pos = (268,0);
},
{
name = ogonek;
pos = (482,10);
},
{
name = top;
pos = (268,620);
},
{
name = topright;
pos = (516,620);
}
);
hints = (
{
name = _corner.round;
origin = (0,0);
scale = (2,2);
type = Corner;
},
{
name = _corner.round;
origin = (0,1);
scale = (2,2);
type = Corner;
},
{
name = _corner.round;
origin = (0,4,0,6);
stem = 1000;
type = Corner;
},
{
name = _corner.round;
origin = (0,6,0,8);
stem = 1000;
type = Corner;
}
);
layerId = m01;
shapes = (
{
closed = 1;
nodes = (
(50,0,l),
(486,0,l),
(486,620,l),
(426,620,l),
(426,36,l),
(447,60,l),
(88,60,l),
(110,36,l),
(110,620,l),
(50,620,l)
);
}
);
width = 536;
}
);
unicode = 85;
},
{
glyphname = Ubar;
lastChange = "2025-06-30 16:34:45 +0000";
layers = (
{
layerId = m01;
shapes = (
{
ref = U;
},
{
closed = 1;
nodes = (
(10,280,l),
(526,280,l),
(526,340,l),
(10,340,l)
);
}
);
width = 536;
}
);
unicode = 580;
},
{
glyphname = Uhorn;
lastChange = "2025-06-30 18:27:15 +0000";
layers = (
{
anchors = (
{
name = bottom;
pos = (208,0);
},
{
name = ogonek;
pos = (422,10);
},
{
name = top;
pos = (208,620);
},
{
name = topright;
pos = (456,620);
}
);
hints = (
{
name = _corner.round;
origin = (0,0);
scale = (2,2);
type = Corner;
},
{
name = _corner.round;
origin = (0,1);
scale = (2,2);
type = Corner;
},
{
name = _corner.round;
origin = (0,4,0,6);
stem = 1000;
type = Corner;
},
{
name = _corner.round;
origin = (0,6,0,8);
stem = 1000;
type = Corner;
}
);
layerId = m01;
shapes = (
{
closed = 1;
nodes = (
(20,0,l),
(386,0,l),
(386,620,l),
(326,620,l),
(326,26,l),
(356,60,l),
(50,60,l),
(80,26,l),
(80,620,l),
(20,620,l)
);
},
{
alignment = -1;
pos = (-90,0);
ref = "_part.horn-sm";
}
);
width = 536;
}
);
unicode = 431;
},
{
glyphname = Uhornacute;
lastChange = "2025-07-01 20:45:39 +0000";
layers = (
{
hints = (
{
name = _corner.round;
origin = (0,0);
scale = (2,2);
type = Corner;
},
{
name = _corner.round;
origin = (0,1);
scale = (2,2);
type = Corner;
},
{
name = _corner.round;
origin = (0,4,0,6);
stem = 1000;
type = Corner;
},
{
name = _corner.round;
origin = (0,6,0,8);
stem = 1000;
type = Corner;
}
);
layerId = m01;
shapes = (
{
closed = 1;
nodes = (
(20,0,l),
(386,0,l),
(386,620,l),
(326,620,l),
(326,26,l),
(356,60,l),
(50,60,l),
(80,26,l),
(80,620,l),
(20,620,l)
);
},
{
alignment = -1;
pos = (-90,0);
ref = "_part.horn-sm";
},
{
pos = (-20,140);
ref = acutecomb;
}
);
width = 600;
}
);
unicode = 7912;
},
{
glyphname = Uhorndotbelow;
lastChange = "2025-06-30 18:29:31 +0000";
layers = (
{
hints = (
{
name = _corner.round;
origin = (2,0);
type = Corner;
},
{
name = _corner.round;
origin = (2,7);
type = Corner;
},
{
name = _corner.round;
origin = (2,3);
scale = (2,2);
type = Corner;
},
{
name = _corner.round;
options = 2;
origin = (2,4);
scale = (2,2);
type = Corner;
}
);
layerId = m01;
shapes = (
{
ref = dotbelowcomb;
},
{
alignment = -1;
pos = (-90,0);
ref = "_part.horn-sm";
},
{
closed = 1;
nodes = (
(80,60,l),
(80,620,l),
(20,620,l),
(20,0,l),
(386,0,l),
(386,620,l),
(326,620,l),
(326,60,l)
);
}
);
width = 536;
}
);
unicode = 7920;
},
{
glyphname = Uhorngrave;
lastChange = "2025-06-30 18:29:45 +0000";
layers = (
{
hints = (
{
name = _corner.round;
origin = (1,0);
type = Corner;
},
{
name = _corner.round;
origin = (1,3);
scale = (2,2);
type = Corner;
},
{
name = _corner.round;
options = 2;
origin = (1,4);
scale = (2,2);
type = Corner;
},
{
name = _corner.round;
origin = (1,7);
type = Corner;
}
);
layerId = m01;
shapes = (
{
alignment = -1;
pos = (-90,0);
ref = "_part.horn-sm";
},
{
closed = 1;
nodes = (
(80,60,l),
(80,620,l),
(20,620,l),
(20,0,l),
(386,0,l),
(386,620,l),
(326,620,l),
(326,60,l)
);
},
{
pos = (-101,0);
ref = gravecomb;
}
);
width = 600;
}
);
unicode = 7914;
},
{
glyphname = Uhornhookabove;
lastChange = "2025-07-01 20:45:14 +0000";
layers = (
{
hints = (
{
name = _corner.round;
origin = (1,0);
type = Corner;
},
{
name = _corner.round;
origin = (1,3);
scale = (2,2);
type = Corner;
},
{
name = _corner.round;
options = 2;
origin = (1,4);
scale = (2,2);
type = Corner;
},
{
name = _corner.round;
origin = (1,7);
type = Corner;
}
);
layerId = m01;
shapes = (
{
alignment = -1;
pos = (-90,0);
ref = "_part.horn-sm";
},
{
closed = 1;
nodes = (
(80,60,l),
(80,620,l),
(20,620,l),
(20,0,l),
(386,0,l),
(386,620,l),
(326,620,l),
(326,60,l)
);
},
{
pos = (-51,141);
ref = hookabovecomb;
}
);
width = 600;
}
);
unicode = 7916;
},
{
glyphname = Uhorntilde;
lastChange = "2025-07-01 20:45:24 +0000";
layers = (
{
hints = (
{
name = _corner.round;
origin = (1,0);
type = Corner;
},
{
name = _corner.round;
origin = (1,3);
scale = (2,2);
type = Corner;
},
{
name = _corner.round;
options = 2;
origin = (1,4);
scale = (2,2);
type = Corner;
},
{
name = _corner.round;
origin = (1,7);
type = Corner;
}
);
layerId = m01;
shapes = (
{
alignment = -1;
pos = (-90,0);
ref = "_part.horn-sm";
},
{
closed = 1;
nodes = (
(80,60,l),
(80,620,l),
(20,620,l),
(20,0,l),
(386,0,l),
(386,620,l),
(326,620,l),
(326,60,l)
);
},
{
pos = (-56,139);
ref = tildecomb;
}
);
width = 600;
}
);
unicode = 7918;
},
{
glyphname = "Upsilon-latin";
lastChange = "2025-06-30 17:08:11 +0000";
layers = (
{
hints = (
{
name = _corner.round;
origin = (0,14);
type = Corner;
},
{
name = _corner.round;
origin = (0,5);
type = Corner;
},
{
name = _corner.round;
origin = (0,3);
scale = (2,2);
type = Corner;
},
{
name = _corner.round;
origin = (0,2);
scale = (2,2);
type = Corner;
},
{
name = _corner.round;
origin = (0,1);
scale = (2,2);
type = Corner;
},
{
name = _corner.round;
origin = (0,0);
scale = (2,2);
type = Corner;
},
{
name = _corner.round;
origin = (1,1);
type = Corner;
},
{
name = _corner.round;
origin = (2,2);
type = Corner;
},
{
name = _corner.round;
options = 1;
origin = (2,2);
scale = (1,-1);
type = Corner;
},
{
name = _corner.round;
options = 1;
origin = (2,0);
scale = (1,-1);
type = Corner;
},
{
name = _corner.round;
origin = (0,6,0,8);
stem = 1000;
type = Corner;
},
{
name = _corner.round;
origin = (0,8,0,10);
stem = 1000;
type = Corner;
},
{
name = _corner.round;
origin = (0,10,0,12);
stem = 1000;
type = Corner;
},
{
name = _corner.round;
origin = (0,12,0,14);
stem = 1000;
type = Corner;
}
);
layerId = m01;
shapes = (
{
closed = 1;
nodes = (
(50,560,l),
(50,0,l),
(486,0,l),
(486,560,l),
(302,560,l),
(302,500,l),
(447,500,l),
(426,525,l),
(426,28,l),
(461,60,l),
(75,60,l),
(110,28,l),
(110,525,l),
(87,500,l),
(234,500,l),
(234,560,l)
);
},
{
closed = 1;
nodes = (
(234,560,l),
(234,620,l),
(25,620,l),
(25,560,l)
);
},
{
closed = 1;
nodes = (
(511,560,l),
(511,620,l),
(302,620,l),
(302,560,l)
);
}
);
width = 536;
}
);
unicode = 433;
},
{
color = 4;
glyphname = V;
lastChange = "2025-07-02 18:21:57 +0000";
layers = (
{
anchors = (
{
name = bottom;
pos = (268,0);
},
{
name = top;
pos = (268,620);
}
);
layerId = m01;
shapes = (
{
closed = 1;
nodes = (
(315,0,l),
(486,620,l),
(424,620,l),
(257,17,l),
(279,17,l),
(112,620,l),
(50,620,l),
(221,0,l)
);
}
);
width = 536;
}
);
unicode = 86;
},
{
glyphname = "Gamma-latin";
lastChange = "2025-06-30 17:20:39 +0000";
layers = (
{
layerId = m01;
shapes = (
{
attr = {
lineCapEnd = 4;
lineCapStart = 4;
strokeWidth = 60;
};
closed = 0;
nodes = (
(113,620,l),
(279,326,ls),
(298,293,o),
(374,159,o),
(374,112,cs),
(374,64,o),
(343,30,o),
(300,30,cs),
(257,30,o),
(226,64,o),
(226,112,cs),
(226,159,o),
(302,293,o),
(321,326,cs),
(487,620,l)
);
}
);
width = 600;
}
);
unicode = 404;
},
{
glyphname = Vhook;
lastChange = "2025-06-30 16:27:32 +0000";
layers = (
{
anchors = (
{
name = bottom;
pos = (268,0);
},
{
name = top;
pos = (268,620);
}
);
layerId = m01;
shapes = (
{
closed = 1;
nodes = (
(315,0,l),
(486,620,l),
(426,620,l),
(259,17,l),
(279,17,l),
(112,620,l),
(50,620,l),
(221,0,l)
);
},
{
alignment = -1;
angle = -90;
pos = (-134,1155);
ref = _part.hook;
}
);
width = 536;
}
);
unicode = 434;
},
{
color = 4;
glyphname = W;
lastChange = "2025-07-02 18:21:57 +0000";
layers = (
{
anchors = (
{
name = bottom;
pos = (268,0);
},
{
name = top;
pos = (268,620);
}
);
guides = (
{
pos = (404,132);
}
);
layerId = m01;
shapes = (
{
closed = 1;
nodes = (
(30,0,l),
(110,0,l),
(289,339,l),
(247,339,l),
(426,0,l),
(506,0,l),
(506,620,l),
(446,620,l),
(446,27,l),
(469,46,l),
(302,363,l),
(234,363,l),
(65,44,l),
(90,29,l),
(90,620,l),
(30,620,l)
);
}
);
width = 536;
}
);
unicode = 87;
},
{
glyphname = Whook;
lastChange = "2025-06-30 16:28:31 +0000";
layers = (
{
anchors = (
{
name = bottom;
pos = (268,0);
},
{
name = top;
pos = (268,620);
}
);
layerId = m01;
shapes = (
{
closed = 1;
nodes = (
(30,0,l),
(110,0,l),
(269,339,l),
(227,339,l),
(386,0,l),
(466,0,l),
(466,620,l),
(406,620,l),
(406,27,l),
(429,46,l),
(282,363,l),
(214,363,l),
(65,44,l),
(90,29,l),
(90,620,l),
(30,620,l)
);
},
{
alignment = -1;
pos = (-4,154);
ref = _part.hook;
}
);
width = 536;
}
);
unicode = 11378;
},
{
color = 4;
glyphname = X;
lastChange = "2025-07-02 18:21:57 +0000";
layers = (
{
anchors = (
{
name = bottom;
pos = (268,0);
},
{
name = top;
pos = (268,620);
}
);
layerId = m01;
shapes = (
{
closed = 1;
nodes = (
(45,620,l),
(443,0,l),
(514,0,l),
(116,620,l)
);
},
{
closed = 1;
nodes = (
(305,311,l),
(493,620,l),
(425,620,l),
(237,311,l)
);
},
{
closed = 1;
nodes = (
(244,332,l),
(22,0,l),
(90,0,l),
(299,310,l)
);
}
);
width = 536;
}
);
unicode = 88;
},
{
color = 4;
glyphname = Y;
lastChange = "2025-07-02 18:21:57 +0000";
layers = (
{
anchors = (
{
name = bottom;
pos = (268,0);
},
{
name = top;
pos = (268,620);
},
{
name = topleft;
pos = (20,620);
}
);
layerId = m01;
shapes = (
{
closed = 1;
nodes = (
(240,0,l),
(300,0,l),
(300,294,l),
(240,294,l)
);
},
{
closed = 1;
nodes = (
(295,278,l),
(121,620,l),
(52,620,l),
(240,255,l)
);
},
{
closed = 1;
nodes = (
(300,256,l),
(484,620,l),
(416,620,l),
(245,280,l)
);
}
);
width = 536;
}
);
unicode = 89;
},
{
glyphname = Yhook;
lastChange = "2025-06-30 16:29:38 +0000";
layers = (
{
anchors = (
{
name = bottom;
pos = (268,0);
},
{
name = top;
pos = (268,620);
},
{
name = topleft;
pos = (20,620);
}
);
layerId = m01;
shapes = (
{
closed = 1;
nodes = (
(210,0,l),
(270,0,l),
(270,294,l),
(210,294,l)
);
},
{
closed = 1;
nodes = (
(257,278,l),
(83,620,l),
(22,620,l),
(210,255,l)
);
},
{
closed = 1;
nodes = (
(270,256,l),
(454,620,l),
(394,620,l),
(223,280,l)
);
},
{
alignment = -1;
pos = (-16,154);
ref = _part.hook;
}
);
width = 536;
}
);
unicode = 435;
},
{
color = 4;
glyphname = Z;
lastChange = "2025-07-02 18:21:57 +0000";
layers = (
{
anchors = (
{
name = bottom;
pos = (268,0);
},
{
name = center;
pos = (268,310);
},
{
name = top;
pos = (268,620);
}
);
layerId = m01;
shapes = (
{
closed = 1;
nodes = (
(75,560,l),
(414,560,l),
(413,600,l),
(50,60,l),
(50,0,l),
(486,0,l),
(486,60,l),
(97,60,l),
(96,20,l),
(460,560,l),
(460,620,l),
(75,620,l)
);
}
);
width = 536;
}
);
unicode = 90;
},
{
glyphname = Saltillo;
lastChange = "2025-06-30 02:01:08 +0000";
layers = (
{
layerId = m01;
shapes = (
{
closed = 1;
nodes = (
(277,415,l),
(327,415,l),
(332,705,l),
(272,705,l)
);
}
);
width = 600;
}
);
unicode = 42891;
},
{
glyphname = Bsmall;
lastChange = "2025-06-30 18:37:29 +0000";
layers = (
{
anchors = (
{
name = bottom;
pos = (268,0);
},
{
name = center;
pos = (134,155);
},
{
name = top;
pos = (268,620);
}
);
hints = (
{
name = _corner.round;
origin = (0,1);
scale = (2,2);
type = Corner;
},
{
name = _corner.round;
options = 2;
origin = (0,2);
scale = (2,2);
type = Corner;
},
{
name = _corner.round;
origin = (1,2,1,4);
stem = 1000;
type = Corner;
},
{
name = _corner.round;
origin = (1,4,1,6);
stem = 1000;
type = Corner;
},
{
name = _corner.round;
origin = (2,1);
scale = (2,2);
type = Corner;
},
{
name = _corner.round;
options = 2;
origin = (2,2);
scale = (2,2);
type = Corner;
},
{
name = _corner.round;
origin = (3,2,3,4);
stem = 1000;
type = Corner;
},
{
name = _corner.round;
origin = (3,4,3,6);
stem = 1000;
type = Corner;
}
);
layerId = m01;
shapes = (
{
closed = 1;
nodes = (
(50,205,l),
(486,205,l),
(486,450,l),
(50,450,l)
);
},
{
closed = 1;
nodes = (
(110,419,l),
(79,390,l),
(451,390,l),
(426,419,l),
(426,258,l),
(436,265,l),
(79,265,l),
(110,250,l)
);
},
{
closed = 1;
nodes = (
(50,0,l),
(486,0,l),
(486,265,l),
(50,265,l)
);
},
{
closed = 1;
nodes = (
(110,236,l),
(79,205,l),
(454,205,l),
(426,236,l),
(426,28,l),
(454,60,l),
(79,60,l),
(110,28,l)
);
}
);
width = 536;
}
);
unicode = 665;
},
{
glyphname = Gsmall;
lastChange = "2025-06-30 18:38:13 +0000";
layers = (
{
anchors = (
{
name = bottom;
pos = (268,0);
},
{
name = top;
pos = (268,620);
}
);
hints = (
{
name = _corner.round;
origin = (0,0);
scale = (2,2);
type = Corner;
},
{
name = _corner.round;
origin = (0,15);
scale = (2,2);
type = Corner;
},
{
name = _corner.round;
origin = (0,1);
scale = (2,2);
type = Corner;
},
{
name = _corner.round;
origin = (0,2);
scale = (2,2);
type = Corner;
},
{
name = _corner.round;
origin = (0,5,0,7);
stem = 1000;
type = Corner;
},
{
name = _corner.round;
origin = (0,7,0,9);
stem = 1000;
type = Corner;
},
{
name = _corner.round;
origin = (0,9,0,11);
stem = 1000;
type = Corner;
},
{
name = _corner.round;
origin = (0,11,0,13);
stem = 1000;
type = Corner;
}
);
layerId = m01;
shapes = (
{
closed = 1;
nodes = (
(50,0,l),
(486,0,l),
(486,265,l),
(221,265,l),
(221,205,l),
(443,205,l),
(426,235,l),
(426,26,l),
(443,60,l),
(93,60,l),
(110,26,l),
(110,420,l),
(93,390,l),
(446,390,l),
(446,450,l),
(50,450,l)
);
}
);
width = 536;
}
);
unicode = 610;
},
{
glyphname = Hsmall;
lastChange = "2025-06-30 18:39:16 +0000";
layers = (
{
anchors = (
{
name = bottom;
pos = (268,0);
},
{
name = center;
pos = (268,465);
},
{
name = top;
pos = (268,620);
},
{
name = topleft;
pos = (20,620);
}
);
layerId = m01;
shapes = (
{
closed = 1;
nodes = (
(50,0,l),
(110,0,l),
(110,450,l),
(50,450,l)
);
},
{
closed = 1;
nodes = (
(426,0,l),
(486,0,l),
(486,450,l),
(426,450,l)
);
},
{
closed = 1;
nodes = (
(95,205,l),
(440,205,l),
(440,265,l),
(95,265,l)
);
}
);
width = 536;
}
);
unicode = 668;
},
{
glyphname = Ismall;
lastChange = "2025-06-30 18:39:32 +0000";
layers = (
{
anchors = (
{
name = bottom;
pos = (268,0);
},
{
name = ogonek;
pos = (482,10);
},
{
name = top;
pos = (268,620);
},
{
name = topleft;
pos = (20,620);
}
);
layerId = m01;
shapes = (
{
closed = 1;
nodes = (
(50,450,l),
(50,390,l),
(253,390,l),
(238,421,l),
(238,27,l),
(253,60,l),
(50,60,l),
(50,0,l),
(486,0,l),
(486,60,l),
(283,60,l),
(298,27,l),
(298,421,l),
(283,390,l),
(486,390,l),
(486,450,l)
);
}
);
width = 536;
}
);
unicode = 618;
},
{
glyphname = Lsmall;
lastChange = "2025-06-30 18:39:43 +0000";
layers = (
{
anchors = (
{
name = bottom;
pos = (268,0);
},
{
name = center;
pos = (268,310);
},
{
name = top;
pos = (268,620);
},
{
name = topright;
pos = (516,620);
}
);
layerId = m01;
shapes = (
{
closed = 1;
nodes = (
(50,450,l),
(50,0,l),
(486,0,l),
(486,60,l),
(83,60,l),
(110,31,l),
(110,450,l)
);
}
);
width = 536;
}
);
unicode = 671;
},
{
glyphname = Nsmall;
lastChange = "2025-06-30 18:39:57 +0000";
layers = (
{
anchors = (
{
name = bottom;
pos = (268,0);
},
{
name = top;
pos = (268,620);
}
);
layerId = m01;
shapes = (
{
closed = 1;
nodes = (
(145,450,l),
(81,450,l),
(392,0,l),
(456,0,l)
);
},
{
closed = 1;
nodes = (
(54,450,l),
(50,0,l),
(110,0,l),
(110,450,l)
);
},
{
closed = 1;
nodes = (
(486,0,l),
(486,450,l),
(426,450,l),
(426,0,l)
);
}
);
width = 536;
}
);
unicode = 628;
},
{
glyphname = OEsmall;
lastChange = "2025-06-30 18:40:19 +0000";
layers = (
{
anchors = (
{
name = bottom;
pos = (268,0);
},
{
name = center;
pos = (268,310);
},
{
name = ogonek;
pos = (482,10);
},
{
name = top;
pos = (268,620);
},
{
name = topleft;
pos = (20,620);
},
{
name = topright;
pos = (516,620);
}
);
hints = (
{
name = _corner.round;
origin = (0,0);
scale = (2,2);
type = Corner;
},
{
name = _corner.round;
origin = (0,3);
scale = (2,2);
type = Corner;
},
{
name = _corner.round;
origin = (1,0,1,2);
stem = 1000;
type = Corner;
},
{
name = _corner.round;
origin = (1,0,1,6);
stem = 1000;
type = Corner;
},
{
name = _corner.round;
origin = (1,2,1,4);
stem = 1000;
type = Corner;
},
{
name = _corner.round;
origin = (1,4,1,6);
stem = 1000;
type = Corner;
}
);
layerId = m01;
shapes = (
{
closed = 1;
nodes = (
(45,0,l),
(331,0,l),
(331,450,l),
(45,450,l)
);
},
{
closed = 1;
nodes = (
(105,422,l),
(70,390,l),
(306,390,l),
(271,422,l),
(271,27,l),
(306,60,l),
(70,60,l),
(105,27,l)
);
},
{
closed = 1;
nodes = (
(291,0,l),
(491,0,l),
(491,60,l),
(291,60,l)
);
},
{
closed = 1;
nodes = (
(291,210,l),
(445,210,l),
(445,270,l),
(291,270,l)
);
},
{
closed = 1;
nodes = (
(291,390,l),
(491,390,l),
(491,450,l),
(291,450,l)
);
}
);
width = 536;
}
);
unicode = 630;
},
{
glyphname = Rsmall;
lastChange = "2025-06-30 18:40:56 +0000";
layers = (
{
anchors = (
{
name = bottom;
pos = (268,0);
},
{
name = top;
pos = (268,620);
}
);
hints = (
{
name = _corner.round;
origin = (0,1);
scale = (2,2);
type = Corner;
},
{
name = _corner.round;
options = 2;
origin = (0,2);
scale = (2,2);
type = Corner;
},
{
name = _corner.round;
origin = (0,8,0,10);
stem = 1000;
type = Corner;
},
{
name = _corner.round;
origin = (0,10,0,12);
stem = 1000;
type = Corner;
},
{
name = _corner.round;
origin = (1,5);
scale = (2,2);
type = Corner;
},
{
name = _corner.round;
origin = (1,1,1,3);
stem = 1000;
type = Corner;
}
);
layerId = m01;
shapes = (
{
closed = 1;
nodes = (
(78,195,l),
(486,195,l),
(486,450,l),
(50,450,l),
(50,0,l),
(110,0,l),
(110,435,l),
(65,390,l),
(471,390,l),
(426,435,l),
(426,195,l),
(471,255,l),
(78,255,l)
);
},
{
closed = 1;
nodes = (
(78,195,l),
(456,195,l),
(426,228,l),
(426,0,l),
(486,0,l),
(486,255,l),
(78,255,l)
);
}
);
width = 536;
}
);
unicode = 640;
},
{
glyphname = Ysmall;
lastChange = "2025-06-30 18:41:18 +0000";
layers = (
{
anchors = (
{
name = bottom;
pos = (268,0);
},
{
name = top;
pos = (268,620);
},
{
name = topleft;
pos = (20,620);
}
);
layerId = m01;
shapes = (
{
closed = 1;
nodes = (
(240,0,l),
(300,0,l),
(300,204,l),
(240,204,l)
);
},
{
closed = 1;
nodes = (
(295,188,l),
(121,450,l),
(52,450,l),
(240,165,l)
);
},
{
closed = 1;
nodes = (
(300,166,l),
(484,450,l),
(416,450,l),
(245,190,l)
);
}
);
width = 536;
}
);
unicode = 655;
},
{
color = 4;
glyphname = a;
lastChange = "2025-07-02 18:21:57 +0000";
layers = (
{
anchors = (
{
name = bottom;
pos = (268,0);
},
{
name = ogonek;
pos = (482,10);
},
{
name = top;
pos = (268,450);
}
);
hints = (
{
name = _corner.round;
origin = (0,4);
scale = (2,2);
type = Corner;
},
{
name = _corner.round;
origin = (0,1);
scale = (2,2);
type = Corner;
},
{
name = _corner.round;
origin = (0,2);
scale = (2,2);
type = Corner;
},
{
name = _corner.round;
origin = (0,1);
scale = (2,2);
type = Corner;
},
{
name = _corner.round;
origin = (0,11,0,13);
stem = 1000;
type = Corner;
},
{
name = _corner.round;
origin = (0,13,0,15);
stem = 1000;
type = Corner;
},
{
name = _corner.round;
origin = (0,7,0,9);
stem = 1000;
type = Corner;
}
);
layerId = m01;
shapes = (
{
closed = 1;
nodes = (
(450,270,l),
(50,270,l),
(50,0,l),
(486,0,l),
(486,450,l),
(80,450,l),
(80,390,l),
(450,390,l),
(426,415,l),
(426,38,l),
(450,60,l),
(89,60,l),
(110,38,l),
(110,230,l),
(89,210,l),
(450,210,l)
);
}
);
width = 536;
}
);
unicode = 97;
},
{
glyphname = "alpha-latin";
lastChange = "2025-06-30 17:25:22 +0000";
layers = (
{
hints = (
{
name = _corner.round;
origin = (0,0);
type = Corner;
},
{
name = _corner.round;
origin = (0,7);
type = Corner;
},
{
name = _corner.round;
origin = (1,0);
scale = (2,2);
type = Corner;
},
{
name = _corner.round;
options = 2;
origin = (1,1);
scale = (2,2);
type = Corner;
},
{
name = _corner.round;
origin = (1,2);
scale = (2,2);
type = Corner;
},
{
name = _corner.round;
options = 2;
origin = (1,3);
scale = (2,2);
type = Corner;
},
{
name = _corner.round;
origin = (2,0,2,2);
stem = 1000;
type = Corner;
},
{
name = _corner.round;
origin = (2,0,2,6);
stem = 1000;
type = Corner;
},
{
name = _corner.round;
origin = (2,2,2,4);
stem = 1000;
type = Corner;
},
{
name = _corner.round;
origin = (2,4,2,6);
stem = 1000;
type = Corner;
}
);
layerId = m01;
shapes = (
{
closed = 1;
nodes = (
(398,0,l),
(521,0,l),
(521,60,l),
(458,60,l),
(458,390,l),
(521,390,l),
(521,450,l),
(398,450,l)
);
},
{
closed = 1;
nodes = (
(12,450,l),
(12,0,l),
(398,0,l),
(398,450,l)
);
},
{
closed = 1;
nodes = (
(72,405,l),
(49,390,l),
(363,390,l),
(338,405,l),
(338,35,l),
(363,60,l),
(49,60,l),
(72,35,l)
);
}
);
width = 536;
}
);
unicode = 593;
},
{
glyphname = ae;
lastChange = "2025-06-29 23:44:14 +0000";
layers = (
{
anchors = (
{
name = bottom;
pos = (268,0);
},
{
name = ogonek;
pos = (482,10);
},
{
name = top;
pos = (268,450);
}
);
hints = (
{
name = _corner.round;
origin = (0,4);
scale = (2,2);
type = Corner;
},
{
name = _corner.round;
origin = (0,1);
scale = (2,2);
type = Corner;
},
{
name = _corner.round;
origin = (0,2);
scale = (2,2);
type = Corner;
},
{
name = _corner.round;
origin = (0,11,0,13);
stem = 1000;
type = Corner;
},
{
name = _corner.round;
origin = (0,13,0,15);
stem = 1000;
type = Corner;
},
{
name = _corner.round;
origin = (0,7,0,9);
stem = 1000;
type = Corner;
},
{
name = _corner.round;
origin = (1,3);
scale = (2,2);
type = Corner;
},
{
name = _corner.round;
origin = (1,2);
scale = (2,2);
type = Corner;
},
{
name = _corner.round;
origin = (1,1);
scale = (2,2);
type = Corner;
},
{
name = _corner.round;
origin = (1,11,1,13);
stem = 1000;
type = Corner;
},
{
name = _corner.round;
origin = (1,13,1,15);
stem = 1000;
type = Corner;
},
{
name = _corner.round;
origin = (1,9,1,11);
stem = 1000;
type = Corner;
},
{
name = _corner.round;
origin = (1,7,1,9);
stem = 1000;
type = Corner;
}
);
layerId = m01;
shapes = (
{
closed = 1;
nodes = (
(263,260,l),
(30,260,l),
(30,0,l),
(296,0,l),
(296,450,l),
(60,450,l),
(60,390,l),
(248,390,l),
(236,404,l),
(236,38,l),
(263,60,l),
(65,60,l),
(90,38,l),
(90,220,l),
(65,200,l),
(263,200,l)
);
},
{
closed = 1;
nodes = (
(271,200,l),
(506,200,l),
(506,450,l),
(236,450,l),
(236,0,l),
(506,0,l),
(506,60,l),
(271,60,l),
(296,27,l),
(296,415,l),
(271,390,l),
(471,390,l),
(446,415,l),
(446,244,l),
(471,260,l),
(271,260,l)
);
}
);
width = 536;
}
);
unicode = 230;
},
{
color = 4;
glyphname = b;
lastChange = "2025-07-02 18:21:57 +0000";
layers = (
{
anchors = (
{
name = bottom;
pos = (268,0);
},
{
name = center;
pos = (134,640);
},
{
name = top;
pos = (268,450);
}
);
hints = (
{
name = _corner.round;
origin = (0,10);
scale = (2,2);
type = Corner;
},
{
name = _corner.round;
origin = (0,11);
scale = (2,2);
type = Corner;
},
{
name = _corner.round;
origin = (0,1,0,3);
stem = 1000;
type = Corner;
},
{
name = _corner.round;
origin = (0,3,0,5);
stem = 1000;
type = Corner;
}
);
layerId = m01;
shapes = (
{
closed = 1;
nodes = (
(83,390,l),
(444,390,l),
(426,414,l),
(426,36,l),
(444,60,l),
(83,60,l),
(110,36,l),
(110,620,l),
(50,620,l),
(50,0,l),
(486,0,l),
(486,450,l),
(83,450,l)
);
}
);
width = 536;
}
);
unicode = 98;
},
{
glyphname = bilabialpercussive;
lastChange = "2025-06-30 20:52:52 +0000";
layers = (
{
hints = (
{
name = _corner.round;
origin = (0,1);
scale = (0.5,0.5);
type = Corner;
},
{
name = _corner.round;
origin = (0,2);
scale = (0.5,0.5);
type = Corner;
},
{
name = _corner.round;
origin = (0,3);
scale = (0.5,0.5);
type = Corner;
},
{
name = _corner.round;
origin = (1,1);
scale = (0.5,0.5);
type = Corner;
},
{
name = _corner.round;
origin = (1,2);
scale = (0.5,0.5);
type = Corner;
},
{
name = _corner.round;
origin = (1,3);
scale = (0.5,0.5);
type = Corner;
}
);
layerId = m01;
shapes = (
{
attr = {
lineCapEnd = "4";
lineCapStart = "4";
strokeWidth = 50;
};
closed = 0;
nodes = (
(63,269,l),
(178,15,l),
(268,232,l),
(358,15,l),
(473,269,l)
);
},
{
attr = {
lineCapEnd = "4";
lineCapStart = "4";
strokeWidth = 50;
};
closed = 0;
nodes = (
(63,620,l),
(178,366,l),
(268,583,l),
(358,366,l),
(473,620,l)
);
}
);
width = 536;
}
);
unicode = 684;
},
{
glyphname = bmiddletilde;
lastChange = "2025-06-30 20:59:48 +0000";
layers = (
{
anchors = (
{
name = bottom;
pos = (308,0);
},
{
name = center;
pos = (174,640);
},
{
name = top;
pos = (77,615);
}
);
hints = (
{
name = _corner.round;
origin = (0,10);
scale = (2,2);
type = Corner;
},
{
name = _corner.round;
origin = (0,11);
scale = (2,2);
type = Corner;
},
{
name = _corner.round;
origin = (0,1,0,3);
stem = 1000;
type = Corner;
},
{
name = _corner.round;
origin = (0,3,0,5);
stem = 1000;
type = Corner;
}
);
layerId = m01;
shapes = (
{
closed = 1;
nodes = (
(161,390,l),
(484,390,l),
(466,414,l),
(466,36,l),
(484,60,l),
(161,60,l),
(190,36,l),
(190,620,l),
(130,620,l),
(130,0,l),
(526,0,l),
(526,450,l),
(161,450,l)
);
},
{
attr = {
identifier = ID0x330147af0;
strokeWidth = 50;
};
closed = 0;
nodes = (
(35,479,l),
(35,553,o),
(69,570,o),
(98,570,cs),
(157,570,o),
(156,499,o),
(221,499,cs),
(257,499,o),
(283,510,o),
(283,590,cs)
);
}
);
width = 536;
}
);
unicode = 7532;
},
{
color = 4;
glyphname = c;
lastChange = "2025-07-02 18:21:57 +0000";
layers = (
{
anchors = (
{
name = bottom;
pos = (268,0);
},
{
name = top;
pos = (268,450);
}
);
hints = (
{
name = _corner.round;
origin = (0,1);
scale = (2,2);
type = Corner;
},
{
name = _corner.round;
origin = (0,0);
scale = (2,2);
type = Corner;
},
{
name = _corner.round;
origin = (0,4,0,6);
stem = 1000;
type = Corner;
},
{
name = _corner.round;
origin = (0,6,0,8);
stem = 1000;
type = Corner;
}
);
layerId = m01;
shapes = (
{
closed = 1;
nodes = (
(50,450,l),
(50,0,l),
(486,0,l),
(486,60,l),
(87,60,l),
(110,35,l),
(110,415,l),
(87,390,l),
(486,390,l),
(486,450,l)
);
}
);
width = 536;
}
);
unicode = 99;
},
{
glyphname = ccurl;
lastChange = "2025-06-30 22:02:51 +0000";
layers = (
{
anchors = (
{
name = bottom;
pos = (268,0);
},
{
name = top;
pos = (268,450);
}
);
hints = (
{
name = _corner.round;
origin = (0,1);
scale = (2,2);
type = Corner;
},
{
name = _corner.round;
origin = (0,0);
scale = (2,2);
type = Corner;
},
{
name = _corner.round;
origin = (0,4,0,6);
stem = 1000;
type = Corner;
},
{
name = _corner.round;
origin = (0,6,0,8);
stem = 1000;
type = Corner;
}
);
layerId = m01;
shapes = (
{
closed = 1;
nodes = (
(50,450,l),
(50,0,l),
(407,0,l),
(407,60,l),
(81,60,l),
(110,35,l),
(110,415,l),
(81,390,l),
(486,390,l),
(486,450,l)
);
},
{
ref = _part.curl;
}
);
width = 536;
}
);
unicode = 597;
},
{
glyphname = "chi-latin";
lastChange = "2025-07-01 15:26:09 +0000";
layers = (
{
layerId = m01;
shapes = (
{
attr = {
strokeWidth = 60;
};
closed = 0;
nodes = (
(556,-157,l),
(491,-181,o),
(447,-170,o),
(422,-136,cs),
(388,-89,o),
(195,293,o),
(160,355,cs),
(126,415,o),
(82,424,o),
(36,419,cs)
);
},
{
closed = 1;
nodes = (
(68,-200,l),
(128,-200,l),
(525,450,l),
(465,450,l)
);
}
);
width = 600;
}
);
unicode = 43859;
},
{
color = 4;
glyphname = d;
lastChange = "2025-07-02 18:21:57 +0000";
layers = (
{
anchors = (
{
name = bottom;
pos = (268,0);
},
{
name = center;
pos = (402,640);
},
{
name = top;
pos = (268,450);
},
{
name = topright;
pos = (516,800);
}
);
hints = (
{
name = _corner.round;
origin = (0,9);
scale = (2,2);
type = Corner;
},
{
name = _corner.round;
origin = (0,8);
scale = (2,2);
type = Corner;
},
{
name = _corner.round;
origin = (0,2,0,4);
stem = 1000;
type = Corner;
},
{
name = _corner.round;
origin = (0,4,0,6);
stem = 1000;
type = Corner;
}
);
layerId = m01;
shapes = (
{
closed = 1;
nodes = (
(426,35,l),
(451,60,l),
(89,60,l),
(110,35,l),
(110,415,l),
(89,390,l),
(451,390,l),
(451,450,l),
(50,450,l),
(50,0,l),
(486,0,l),
(486,620,l),
(426,620,l)
);
}
);
width = 536;
}
);
unicode = 100;
},
{
glyphname = dcaron;
lastChange = "2025-07-03 16:26:21 +0000";
layers = (
{
anchors = (
{
name = bottom;
pos = (268,0);
},
{
name = center;
pos = (402,640);
},
{
name = top;
pos = (268,450);
},
{
name = topright;
pos = (516,800);
}
);
hints = (
{
name = _corner.round;
origin = (0,9);
scale = (2,2);
type = Corner;
},
{
name = _corner.round;
origin = (0,8);
scale = (2,2);
type = Corner;
},
{
name = _corner.round;
origin = (0,2,0,4);
stem = 1000;
type = Corner;
},
{
name = _corner.round;
origin = (0,4,0,6);
stem = 1000;
type = Corner;
}
);
layerId = m01;
shapes = (
{
closed = 1;
nodes = (
(346,35,l),
(371,60,l),
(89,60,l),
(110,35,l),
(110,415,l),
(89,390,l),
(371,390,l),
(371,450,l),
(50,450,l),
(50,0,l),
(406,0,l),
(406,620,l),
(346,620,l)
);
},
{
closed = 1;
nodes = (
(449,472,l),
(498,462,l),
(526,617,l),
(477,627,l)
);
},
{
closed = 1;
nodes = (
(508,581,o),
(526,599,o),
(526,621,cs),
(526,643,o),
(508,661,o),
(486,661,cs),
(464,661,o),
(446,643,o),
(446,621,cs),
(446,599,o),
(464,581,o),
(486,581,cs)
);
}
);
width = 536;
}
);
unicode = 271;
},
{
glyphname = dcroat;
lastChange = "2025-07-03 16:26:41 +0000";
layers = (
{
layerId = m01;
shapes = (
{
ref = d;
},
{
closed = 1;
nodes = (
(184,665,l),
(184,615,l),
(526,615,l),
(526,665,l)
);
}
);
width = 536;
}
);
unicode = 273;
},
{
glyphname = dezh;
lastChange = "2025-06-30 22:02:22 +0000";
layers = (
{
anchors = (
{
name = bottom;
pos = (268,0);
},
{
name = center;
pos = (402,640);
},
{
name = top;
pos = (268,450);
},
{
name = topright;
pos = (516,800);
}
);
hints = (
{
name = _corner.round;
type = Corner;
},
{
name = _corner.round;
type = Corner;
},
{
name = _corner.round;
origin = (0,8);
scale = (2,2);
type = Corner;
},
{
name = _corner.round;
origin = (0,9);
scale = (2,2);
type = Corner;
},
{
name = _corner.round;
origin = (1,0);
scale = (2,2);
type = Corner;
},
{
name = _corner.round;
origin = (1,3);
type = Corner;
},
{
name = _corner.round;
options = 2;
origin = (1,4);
scale = (-1,1);
type = Corner;
},
{
name = _corner.round;
origin = (1,7);
scale = (2,2);
type = Corner;
},
{
name = _corner.round;
origin = (2,1);
scale = (0.5,0.5);
type = Corner;
},
{
name = _corner.round;
origin = (0,2,0,4);
stem = 1000;
type = Corner;
},
{
name = _corner.round;
origin = (0,4,0,6);
stem = 1000;
type = Corner;
}
);
layerId = m01;
shapes = (
{
closed = 1;
nodes = (
(216,35,l),
(241,60,l),
(49,60,l),
(80,35,l),
(80,415,l),
(49,390,l),
(241,390,l),
(241,450,l),
(20,450,l),
(20,0,l),
(276,0,l),
(276,620,l),
(216,620,l)
);
},
{
closed = 1;
nodes = (
(522,180,l),
(308,180,l),
(308,120,l),
(462,120,l),
(462,-50,l),
(286,-50,l),
(286,-110,l),
(522,-110,l)
);
},
{
attr = {
identifier = ID0x32f4f0070;
strokeWidth = 60;
};
closed = 0;
nodes = (
(333,163,l),
(508,420,l),
(247,420,l)
);
}
);
width = 536;
}
);
unicode = 676;
},
{
glyphname = dmiddletilde;
lastChange = "2025-06-30 21:02:21 +0000";
layers = (
{
hints = (
{
name = _corner.round;
origin = (0,1);
scale = (2,2);
type = Corner;
},
{
name = _corner.round;
origin = (0,0);
scale = (2,2);
type = Corner;
},
{
name = _corner.round;
origin = (0,7,0,9);
stem = 1000;
type = Corner;
},
{
name = _corner.round;
origin = (0,9,0,11);
stem = 1000;
type = Corner;
}
);
layerId = m01;
shapes = (
{
closed = 1;
nodes = (
(10,450,l),
(10,0,l),
(406,0,l),
(406,620,l),
(346,620,l),
(346,36,l),
(375,60,l),
(52,60,l),
(70,36,l),
(70,414,l),
(52,390,l),
(375,390,l),
(375,450,l)
);
},
{
attr = {
identifier = ID0x330147af0;
strokeWidth = 50;
};
closed = 0;
nodes = (
(501,479,l),
(501,553,o),
(467,570,o),
(438,570,cs),
(379,570,o),
(380,499,o),
(315,499,cs),
(279,499,o),
(253,510,o),
(253,590,cs)
);
}
);
width = 536;
}
);
unicode = 7533;
},
{
glyphname = dzaltone;
lastChange = "2025-06-30 21:01:23 +0000";
layers = (
{
anchors = (
{
name = bottom;
pos = (268,0);
},
{
name = center;
pos = (402,640);
},
{
name = top;
pos = (268,450);
},
{
name = topright;
pos = (516,800);
}
);
hints = (
{
name = _corner.round;
type = Corner;
},
{
name = _corner.round;
type = Corner;
},
{
name = _corner.round;
origin = (0,8);
scale = (2,2);
type = Corner;
},
{
name = _corner.round;
origin = (0,9);
scale = (2,2);
type = Corner;
},
{
name = _corner.round;
origin = (0,2,0,4);
stem = 1000;
type = Corner;
},
{
name = _corner.round;
origin = (0,4,0,6);
stem = 1000;
type = Corner;
}
);
layerId = m01;
shapes = (
{
closed = 1;
nodes = (
(206,35,l),
(231,60,l),
(49,60,l),
(80,35,l),
(80,415,l),
(49,390,l),
(231,390,l),
(231,450,l),
(20,450,l),
(20,0,l),
(266,0,l),
(266,620,l),
(206,620,l)
);
},
{
closed = 1;
nodes = (
(296,0,l),
(520,0,l),
(520,60,l),
(350,60,l),
(345,25,l),
(520,390,l),
(520,450,l),
(255,450,l),
(255,390,l),
(471,390,l),
(471,425,l),
(296,60,l)
);
}
);
width = 536;
}
);
unicode = 675;
},
{
glyphname = dzcurl;
lastChange = "2025-06-30 21:59:11 +0000";
layers = (
{
anchors = (
{
name = bottom;
pos = (268,0);
},
{
name = center;
pos = (268,225);
},
{
name = top;
pos = (268,450);
},
{
name = topright;
pos = (1052,800);
}
);
hints = (
{
name = _corner.round;
origin = (2,3);
scale = (2,2);
type = Corner;
},
{
name = _corner.round;
options = 2;
origin = (2,4);
scale = (2,2);
type = Corner;
},
{
name = _corner.round;
origin = (2,0);
type = Corner;
},
{
name = _corner.round;
origin = (2,10);
type = Corner;
}
);
layerId = m01;
shapes = (
{
closed = 1;
nodes = (
(210,0,l),
(436,0,l),
(436,60,l),
(264,60,l),
(259,25,l),
(464,390,l),
(464,450,l),
(209,450,l),
(209,390,l),
(415,390,l),
(415,425,l),
(210,60,l)
);
},
{
pos = (29,0);
ref = _part.curl;
},
{
closed = 1;
nodes = (
(70,390,l),
(211,390,l),
(211,450,l),
(10,450,l),
(10,0,l),
(246,0,l),
(246,620,l),
(186,620,l),
(186,35,l),
(211,60,l),
(70,60,l)
);
}
);
width = 536;
}
);
unicode = 677;
},
{
glyphname = eth;
lastChange = "2025-06-29 23:46:35 +0000";
layers = (
{
layerId = m01;
shapes = (
{
attr = {
strokeWidth = 60;
};
closed = 0;
nodes = (
(243,703,l),
(369,601,o),
(452,430,o),
(452,258,cs),
(452,132,o),
(375,43,o),
(267,44,cs),
(159,44,o),
(83,131,o),
(84,259,cs),
(85,373,o),
(163,455,o),
(275,455,cs),
(377,455,o),
(450,373,o),
(452,258,cs)
);
},
{
closed = 1;
nodes = (
(216,534,l),
(451,619,l),
(434,666,l),
(199,581,l)
);
}
);
width = 536;
}
);
unicode = 240;
},
{
color = 4;
glyphname = e;
lastChange = "2025-07-02 18:21:57 +0000";
layers = (
{
anchors = (
{
name = bottom;
pos = (268,0);
},
{
name = ogonek;
pos = (486,0);
},
{
name = top;
pos = (268,450);
}
);
hints = (
{
name = _corner.round;
origin = (0,3);
scale = (2,2);
type = Corner;
},
{
name = _corner.round;
origin = (0,4);
scale = (2,2);
type = Corner;
},
{
name = _corner.round;
origin = (0,2);
scale = (2,2);
type = Corner;
},
{
name = _corner.round;
origin = (0,1);
scale = (2,2);
type = Corner;
},
{
name = _corner.round;
origin = (0,11,0,13);
stem = 1000;
type = Corner;
},
{
name = _corner.round;
origin = (0,13,0,15);
stem = 1000;
type = Corner;
},
{
name = _corner.round;
origin = (0,9,0,11);
stem = 1000;
type = Corner;
},
{
name = _corner.round;
origin = (0,7,0,9);
stem = 1000;
type = Corner;
}
);
layerId = m01;
shapes = (
{
closed = 1;
nodes = (
(85,210,l),
(486,210,l),
(486,450,l),
(50,450,l),
(50,0,l),
(486,0,l),
(486,60,l),
(85,60,l),
(110,40,l),
(110,413,l),
(85,390,l),
(444,390,l),
(426,413,l),
(426,254,l),
(444,270,l),
(85,270,l)
);
}
);
width = 536;
}
);
unicode = 101;
},
{
glyphname = eopen;
lastChange = "2025-07-02 20:36:03 +0000";
layers = (
{
hints = (
{
name = _corner.round;
origin = (0,0);
scale = (2,2);
type = Corner;
},
{
name = _corner.round;
origin = (0,3);
type = Corner;
},
{
name = _corner.round;
options = 2;
origin = (0,4);
scale = (-1,1);
type = Corner;
},
{
name = _corner.round;
origin = (0,7);
scale = (2,2);
type = Corner;
},
{
name = _corner.round;
origin = (1,6);
scale = (2,2);
type = Corner;
},
{
name = _corner.round;
origin = (1,3);
type = Corner;
},
{
name = _corner.round;
options = 2;
origin = (1,2);
scale = (-1,1);
type = Corner;
},
{
name = _corner.round;
origin = (1,7);
scale = (2,2);
type = Corner;
}
);
layerId = m01;
shapes = (
{
closed = 1;
nodes = (
(45,205,l),
(405,205,l),
(405,265,l),
(105,265,l),
(105,390,l),
(481,390,l),
(481,450,l),
(45,450,l)
);
},
{
closed = 1;
nodes = (
(481,0,l),
(481,60,l),
(105,60,l),
(105,205,l),
(405,205,l),
(405,265,l),
(45,265,l),
(45,0,l)
);
}
);
width = 536;
}
);
unicode = 603;
},
{
glyphname = eopenreversedclosed;
lastChange = "2025-06-30 19:07:41 +0000";
layers = (
{
hints = (
{
name = _corner.round;
options = 1;
origin = (0,8);
scale = (-2,2);
type = Corner;
},
{
name = _corner.round;
options = 1;
origin = (0,5);
scale = (-1,1);
type = Corner;
},
{
name = _corner.round;
options = 2;
origin = (0,4);
type = Corner;
},
{
name = _corner.round;
options = 1;
origin = (0,9);
scale = (-2,2);
type = Corner;
},
{
name = _corner.round;
options = 1;
origin = (1,0);
scale = (-2,2);
type = Corner;
},
{
name = _corner.round;
options = 1;
origin = (1,3);
scale = (-1,1);
type = Corner;
},
{
name = _corner.round;
options = 2;
origin = (1,4);
type = Corner;
},
{
name = _corner.round;
options = 1;
origin = (1,9);
scale = (-2,2);
type = Corner;
},
{
name = _corner.round;
origin = (0,3);
type = Corner;
},
{
name = _corner.round;
origin = (1,5);
type = Corner;
},
{
name = _corner.round;
origin = (0,0);
scale = (2,2);
type = Corner;
},
{
name = _corner.round;
origin = (1,8);
scale = (2,2);
type = Corner;
}
);
layerId = m01;
shapes = (
{
closed = 1;
nodes = (
(45,450,l),
(45,194,l),
(105,194,l),
(105,390,l),
(421,390,l),
(421,265,l),
(155,265,l),
(155,205,l),
(481,205,l),
(481,450,l)
);
},
{
closed = 1;
nodes = (
(481,265,l),
(155,265,l),
(155,205,l),
(421,205,l),
(421,60,l),
(105,60,l),
(105,194,l),
(45,194,l),
(45,0,l),
(481,0,l)
);
}
);
width = 526;
}
);
unicode = 606;
},
{
glyphname = eopenreversedhook;
lastChange = "2025-06-30 21:52:05 +0000";
layers = (
{
hints = (
{
name = _corner.round;
options = 1;
origin = (0,6);
scale = (-2,2);
type = Corner;
},
{
name = _corner.round;
options = 1;
origin = (0,3);
scale = (-1,1);
type = Corner;
},
{
name = _corner.round;
options = 2;
origin = (0,2);
type = Corner;
},
{
name = _corner.round;
options = 1;
origin = (0,7);
scale = (-2,2);
type = Corner;
},
{
name = _corner.round;
options = 1;
origin = (1,0);
scale = (-2,2);
type = Corner;
},
{
name = _corner.round;
options = 1;
origin = (1,3);
scale = (-1,1);
type = Corner;
},
{
name = _corner.round;
options = 2;
origin = (1,4);
type = Corner;
},
{
name = _corner.round;
options = 1;
origin = (1,7);
scale = (-2,2);
type = Corner;
}
);
layerId = m01;
shapes = (
{
closed = 1;
nodes = (
(20,450,l),
(20,390,l),
(296,390,l),
(296,265,l),
(96,265,l),
(96,205,l),
(356,205,l),
(356,450,l)
);
},
{
closed = 1;
nodes = (
(356,265,l),
(96,265,l),
(96,205,l),
(296,205,l),
(296,60,l),
(20,60,l),
(20,0,l),
(356,0,l)
);
},
{
alignment = -1;
pos = (-9,671);
ref = _part.hook;
scale = (1,-1);
},
{
closed = 1;
nodes = (
(297,205,l),
(461,205,l),
(461,265,l),
(297,265,l)
);
}
);
width = 536;
}
);
unicode = 605;
},
{
glyphname = esh;
lastChange = "2025-06-30 17:47:24 +0000";
layers = (
{
layerId = m01;
shapes = (
{
alignment = -1;
angle = 180;
pos = (705,466);
ref = _part.hook;
},
{
closed = 1;
nodes = (
(235,0,l),
(295,0,l),
(295,466,l),
(235,466,l)
);
},
{
alignment = -1;
pos = (-175,0);
ref = _part.hook;
}
);
width = 536;
}
);
unicode = 643;
},
{
glyphname = schwahook;
lastChange = "2025-06-30 19:09:59 +0000";
layers = (
{
anchors = (
{
name = bottom;
pos = (238,0);
},
{
name = ogonekabove;
pos = (24,440);
},
{
name = top;
pos = (238,450);
}
);
hints = (
{
name = _corner.round;
origin = (0,3);
scale = (2,2);
type = Corner;
},
{
name = _corner.round;
origin = (0,4);
scale = (2,2);
type = Corner;
},
{
name = _corner.round;
origin = (0,2);
scale = (2,2);
type = Corner;
},
{
name = _corner.round;
origin = (0,1);
scale = (2,2);
type = Corner;
},
{
name = _corner.round;
origin = (0,11,0,13);
stem = 1000;
type = Corner;
},
{
name = _corner.round;
origin = (0,13,0,15);
stem = 1000;
type = Corner;
},
{
name = _corner.round;
origin = (0,9,0,11);
stem = 1000;
type = Corner;
},
{
name = _corner.round;
origin = (0,7,0,9);
stem = 1000;
type = Corner;
}
);
layerId = m01;
shapes = (
{
closed = 1;
nodes = (
(466,240,l),
(10,240,l),
(10,0,l),
(386,0,l),
(386,450,l),
(10,450,l),
(10,390,l),
(351,390,l),
(326,423,l),
(326,25,l),
(351,60,l),
(45,60,l),
(70,25,l),
(70,196,l),
(45,180,l),
(466,180,l)
);
},
{
alignment = -1;
pos = (-4,646);
ref = _part.hook;
scale = (1,-1);
}
);
width = 536;
}
);
unicode = 602;
},
{
glyphname = ezh;
lastChange = "2025-06-30 17:48:28 +0000";
layers = (
{
hints = (
{
name = _corner.round;
origin = (0,0);
scale = (2,2);
type = Corner;
},
{
name = _corner.round;
origin = (0,3);
type = Corner;
},
{
name = _corner.round;
options = 2;
origin = (0,4);
scale = (-1,1);
type = Corner;
},
{
name = _corner.round;
origin = (0,7);
scale = (2,2);
type = Corner;
},
{
name = _corner.round;
origin = (1,1);
scale = (0.5,0.5);
type = Corner;
}
);
layerId = m01;
shapes = (
{
closed = 1;
nodes = (
(486,260,l),
(206,260,l),
(206,200,l),
(426,200,l),
(426,60,l),
(50,60,l),
(50,0,l),
(486,0,l)
);
},
{
attr = {
strokeWidth = 60;
};
closed = 0;
nodes = (
(224,236,l),
(465,420,l),
(41,420,l)
);
}
);
width = 536;
}
);
unicode = 658;
},
{
color = 4;
glyphname = f;
lastChange = "2025-07-02 18:21:57 +0000";
layers = (
{
anchors = (
{
name = bottom;
pos = (268,0);
},
{
name = top;
pos = (268,800);
}
);
hints = (
{
name = _corner.round;
origin = (0,0);
scale = (2,2);
type = Corner;
},
{
name = _corner.round;
origin = (0,3,0,5);
stem = 1000;
type = Corner;
}
);
layerId = m01;
shapes = (
{
closed = 1;
nodes = (
(216,619,l),
(216,0,l),
(276,0,l),
(276,578,l),
(261,559,l),
(486,559,l),
(486,619,l)
);
},
{
closed = 1;
nodes = (
(30,390,l),
(486,390,l),
(486,450,l),
(30,450,l)
);
}
);
width = 536;
}
);
unicode = 102;
},
{
glyphname = fengdigraph;
lastChange = "2025-06-30 20:57:53 +0000";
layers = (
{
anchors = (
{
name = bottom;
pos = (268,0);
},
{
name = top;
pos = (268,800);
}
);
hints = (
{
name = _corner.round;
origin = (0,0);
scale = (2,2);
type = Corner;
},
{
name = _corner.round;
origin = (2,9);
scale = (2,2);
type = Corner;
},
{
name = _corner.round;
origin = (0,3,0,5);
stem = 1000;
type = Corner;
},
{
name = _corner.round;
origin = (2,5,2,7);
stem = 1000;
type = Corner;
}
);
layerId = m01;
shapes = (
{
closed = 1;
nodes = (
(96,619,l),
(96,0,l),
(156,0,l),
(156,590,l),
(141,559,l),
(286,559,l),
(286,619,l)
);
},
{
closed = 1;
nodes = (
(20,390,l),
(336,390,l),
(336,450,l),
(20,450,l)
);
},
{
closed = 1;
nodes = (
(222,450,l),
(222,0,l),
(282,0,l),
(282,415,l),
(254,390,l),
(486,390,l),
(458,415,l),
(458,0,l),
(518,0,l),
(518,450,l)
);
},
{
alignment = -1;
angle = 180;
pos = (928,466);
ref = _part.hook;
}
);
width = 536;
}
);
unicode = 681;
},
{
color = 4;
glyphname = g;
lastChange = "2025-07-02 18:21:57 +0000";
layers = (
{
anchors = (
{
name = bottom;
pos = (268,-200);
},
{
name = top;
pos = (268,450);
}
);
hints = (
{
name = _corner.round;
origin = (0,13);
scale = (2,2);
type = Corner;
},
{
name = _corner.round;
origin = (0,14);
scale = (2,2);
type = Corner;
},
{
name = _corner.round;
origin = (0,11);
scale = (2,2);
type = Corner;
},
{
name = _corner.round;
origin = (0,1,0,3);
stem = 1000;
type = Corner;
},
{
name = _corner.round;
origin = (0,3,0,5);
stem = 1000;
type = Corner;
},
{
name = _corner.round;
origin = (0,7,0,9);
stem = 1000;
type = Corner;
}
);
layerId = m01;
shapes = (
{
closed = 1;
nodes = (
(451,60,l),
(85,60,l),
(110,35,l),
(110,415,l),
(85,390,l),
(451,390,l),
(426,415,l),
(426,-161,l),
(451,-140,l),
(50,-140,l),
(50,-200,l),
(486,-200,l),
(486,450,l),
(50,450,l),
(50,0,l),
(451,0,l)
);
}
);
width = 536;
}
);
unicode = 103;
},
{
glyphname = "gamma-latin";
lastChange = "2025-06-30 17:50:44 +0000";
layers = (
{
layerId = m01;
shapes = (
{
attr = {
lineCapEnd = "4";
lineCapStart = "4";
strokeWidth = 60;
};
closed = 0;
nodes = (
(124,450,l),
(261,262,ls),
(305,202,o),
(359,130,o),
(360,96,cs),
(361,59,o),
(335,30,o),
(300,30,cs),
(265,30,o),
(239,59,o),
(240,96,cs),
(241,130,o),
(295,202,o),
(339,262,cs),
(476,450,l)
);
}
);
width = 600;
}
);
unicode = 611;
},
{
glyphname = glottalstop;
lastChange = "2025-06-30 17:52:18 +0000";
layers = (
{
hints = (
{
name = _corner.round;
origin = (0,4);
scale = (2,2);
type = Corner;
},
{
name = _corner.round;
options = 2;
origin = (0,5);
scale = (2,2);
type = Corner;
},
{
name = _corner.round;
origin = (0,12);
scale = (2,2);
type = Corner;
},
{
name = _corner.round;
origin = (0,8,0,10);
stem = 1000;
type = Corner;
},
{
name = _corner.round;
origin = (0,10,0,12);
stem = 1000;
type = Corner;
},
{
name = _corner.round;
origin = (0,2,0,4);
stem = 1000;
type = Corner;
}
);
layerId = m01;
shapes = (
{
closed = 1;
nodes = (
(210,0,l),
(270,0,l),
(270,308,l),
(245,283,l),
(453,283,l),
(453,620,l),
(84,620,l),
(84,560,l),
(418,560,l),
(393,585,l),
(393,318,l),
(418,343,l),
(210,343,l)
);
}
);
width = 536;
}
);
unicode = 660;
},
{
glyphname = glottalstopreversed;
lastChange = "2025-06-30 17:53:11 +0000";
layers = (
{
hints = (
{
name = _corner.round;
origin = (0,7);
scale = (2,2);
type = Corner;
},
{
name = _corner.round;
options = 2;
origin = (0,6);
scale = (2,2);
type = Corner;
},
{
name = _corner.round;
origin = (0,12);
scale = (2,2);
type = Corner;
},
{
name = _corner.round;
options = 1;
origin = (0,2,0,4);
scale = (-1,1);
stem = 1000;
type = Corner;
},
{
name = _corner.round;
origin = (0,0,0,2);
stem = 1000;
type = Corner;
},
{
name = _corner.round;
origin = (0,8,0,10);
stem = 1000;
type = Corner;
}
);
layerId = m01;
shapes = (
{
closed = 1;
nodes = (
(119,343,l),
(144,318,l),
(144,585,l),
(119,560,l),
(453,560,l),
(453,620,l),
(84,620,l),
(84,283,l),
(292,283,l),
(267,308,l),
(267,0,l),
(327,0,l),
(327,343,l)
);
}
);
width = 536;
}
);
unicode = 661;
},
{
glyphname = glottalstopsmall;
lastChange = "2025-06-30 17:53:22 +0000";
layers = (
{
hints = (
{
name = _corner.round;
origin = (0,4);
scale = (2,2);
type = Corner;
},
{
name = _corner.round;
options = 2;
origin = (0,5);
scale = (2,2);
type = Corner;
},
{
name = _corner.round;
origin = (0,12);
scale = (2,2);
type = Corner;
},
{
name = _corner.round;
origin = (0,8,0,10);
stem = 1000;
type = Corner;
},
{
name = _corner.round;
origin = (0,10,0,12);
stem = 1000;
type = Corner;
},
{
name = _corner.round;
origin = (0,2,0,4);
stem = 1000;
type = Corner;
}
);
layerId = m01;
shapes = (
{
closed = 1;
nodes = (
(210,0,l),
(270,0,l),
(270,138,l),
(245,113,l),
(453,113,l),
(453,450,l),
(84,450,l),
(84,390,l),
(418,390,l),
(393,415,l),
(393,148,l),
(418,173,l),
(210,173,l)
);
}
);
width = 600;
}
);
unicode = 578;
},
{
glyphname = glottalstopstroke;
lastChange = "2025-06-30 19:10:53 +0000";
layers = (
{
layerId = m01;
shapes = (
{
ref = glottalstop;
},
{
closed = 1;
nodes = (
(115,127,l),
(365,127,l),
(365,177,l),
(115,177,l)
);
}
);
width = 536;
}
);
unicode = 673;
},
{
glyphname = glottalstopstrokereversed;
lastChange = "2025-06-30 19:10:48 +0000";
layers = (
{
layerId = m01;
shapes = (
{
ref = glottalstopreversed;
},
{
closed = 1;
nodes = (
(172,127,l),
(422,127,l),
(422,177,l),
(172,177,l)
);
}
);
width = 536;
}
);
unicode = 674;
},
{
glyphname = gstroke;
lastChange = "2025-06-30 18:35:59 +0000";
layers = (
{
layerId = m01;
shapes = (
{
ref = g;
},
{
closed = 1;
nodes = (
(306,153,l),
(526,153,l),
(526,213,l),
(306,213,l)
);
}
);
width = 536;
}
);
unicode = 485;
},
{
color = 4;
glyphname = h;
lastChange = "2025-07-02 18:21:57 +0000";
layers = (
{
anchors = (
{
name = bottom;
pos = (268,0);
},
{
name = center;
pos = (134,640);
},
{
name = top;
pos = (268,800);
}
);
hints = (
{
name = _corner.round;
origin = (1,6);
scale = (2,2);
type = Corner;
},
{
name = _corner.round;
origin = (1,2,1,4);
stem = 1000;
type = Corner;
}
);
layerId = m01;
shapes = (
{
closed = 1;
nodes = (
(50,620,l),
(50,0,l),
(110,0,l),
(110,620,l)
);
},
{
closed = 1;
nodes = (
(80,450,l),
(80,390,l),
(451,390,l),
(426,415,l),
(426,0,l),
(486,0,l),
(486,450,l)
);
}
);
width = 536;
}
);
unicode = 104;
},
{
glyphname = hbar;
lastChange = "2025-06-30 18:50:47 +0000";
layers = (
{
layerId = m01;
shapes = (
{
ref = h;
},
{
closed = 1;
nodes = (
(20,564,l),
(20,514,l),
(270,514,l),
(270,564,l)
);
}
);
width = 536;
}
);
unicode = 295;
},
{
color = 4;
glyphname = i;
lastChange = "2025-07-02 18:21:57 +0000";
layers = (
{
anchors = (
{
name = bottom;
pos = (268,0);
}
);
layerId = m01;
shapes = (
{
closed = 1;
nodes = (
(298,25,l),
(298,450,l),
(83,450,l),
(83,390,l),
(270,390,l),
(238,425,l),
(238,25,l)
);
},
{
closed = 1;
nodes = (
(285,520,o),
(303,538,o),
(303,560,cs),
(303,582,o),
(285,600,o),
(263,600,cs),
(241,600,o),
(223,582,o),
(223,560,cs),
(223,538,o),
(241,520,o),
(263,520,cs)
);
},
{
closed = 1;
nodes = (
(50,60,l),
(50,0,l),
(486,0,l),
(486,60,l)
);
}
);
width = 536;
}
);
unicode = 105;
},
{
glyphname = idotless;
lastChange = "2025-06-30 01:58:10 +0000";
layers = (
{
anchors = (
{
name = bottom;
pos = (268,0);
}
);
layerId = m01;
shapes = (
{
closed = 1;
nodes = (
(83,450,l),
(83,390,l),
(253,390,l),
(238,425,l),
(238,25,l),
(253,60,l),
(50,60,l),
(50,0,l),
(486,0,l),
(486,60,l),
(283,60,l),
(298,25,l),
(298,450,l)
);
}
);
width = 536;
}
);
unicode = 305;
},
{
glyphname = iacute;
lastChange = "2025-07-01 20:43:19 +0000";
layers = (
{
anchors = (
{
name = bottom;
pos = (268,0);
}
);
layerId = m01;
shapes = (
{
closed = 1;
nodes = (
(83,450,l),
(83,390,l),
(253,390,l),
(238,425,l),
(238,25,l),
(253,60,l),
(50,60,l),
(50,0,l),
(486,0,l),
(486,60,l),
(283,60,l),
(298,25,l),
(298,450,l)
);
},
{
pos = (44,-25);
ref = acutecomb;
}
);
width = 536;
}
);
unicode = 237;
},
{
glyphname = icircumflex;
lastChange = "2025-07-01 20:43:48 +0000";
layers = (
{
layerId = m01;
shapes = (
{
closed = 1;
nodes = (
(83,450,l),
(83,390,l),
(253,390,l),
(238,425,l),
(238,25,l),
(253,60,l),
(50,60,l),
(50,0,l),
(486,0,l),
(486,60,l),
(283,60,l),
(298,25,l),
(298,450,l)
);
},
{
pos = (0,12);
ref = circumflexcomb;
}
);
width = 536;
}
);
unicode = 238;
},
{
glyphname = idieresis;
lastChange = "2025-07-01 20:44:06 +0000";
layers = (
{
layerId = m01;
shapes = (
{
closed = 1;
nodes = (
(83,450,l),
(83,390,l),
(253,390,l),
(238,425,l),
(238,25,l),
(253,60,l),
(50,60,l),
(50,0,l),
(486,0,l),
(486,60,l),
(283,60,l),
(298,25,l),
(298,450,l)
);
},
{
pos = (0,-6);
ref = dieresiscomb;
}
);
width = 536;
}
);
unicode = 239;
},
{
glyphname = igrave;
lastChange = "2025-07-01 20:44:18 +0000";
layers = (
{
layerId = m01;
shapes = (
{
closed = 1;
nodes = (
(83,450,l),
(83,390,l),
(253,390,l),
(238,425,l),
(238,25,l),
(253,60,l),
(50,60,l),
(50,0,l),
(486,0,l),
(486,60,l),
(283,60,l),
(298,25,l),
(298,450,l)
);
},
{
pos = (-50,1);
ref = gravecomb;
}
);
width = 536;
}
);
unicode = 236;
},
{
glyphname = imacron;
lastChange = "2025-07-01 20:44:28 +0000";
layers = (
{
anchors = (
{
name = bottom;
pos = (268,0);
}
);
layerId = m01;
shapes = (
{
closed = 1;
nodes = (
(83,450,l),
(83,390,l),
(253,390,l),
(238,425,l),
(238,25,l),
(253,60,l),
(50,60,l),
(50,0,l),
(486,0,l),
(486,60,l),
(283,60,l),
(298,25,l),
(298,450,l)
);
},
{
pos = (0,-51);
ref = macroncomb;
}
);
width = 536;
}
);
unicode = 299;
},
{
glyphname = istroke;
lastChange = "2025-06-30 18:51:13 +0000";
layers = (
{
layerId = m01;
shapes = (
{
ref = idotless;
},
{
ref = dotaccentcomb;
},
{
closed = 1;
nodes = (
(140,317,l),
(140,267,l),
(396,267,l),
(396,317,l)
);
}
);
width = 536;
}
);
unicode = 616;
},
{
glyphname = ij;
lastChange = "2025-06-29 23:52:13 +0000";
layers = (
{
anchors = (
{
name = bottom;
pos = (268,0);
}
);
hints = (
{
name = _corner.round;
origin = (3,2);
scale = (2,2);
type = Corner;
},
{
name = _corner.round;
origin = (3,8);
type = Corner;
}
);
layerId = m01;
shapes = (
{
closed = 1;
nodes = (
(53,450,l),
(53,390,l),
(173,390,l),
(158,425,l),
(158,25,l),
(173,60,l),
(30,60,l),
(30,0,l),
(346,0,l),
(346,60,l),
(203,60,l),
(218,25,l),
(218,450,l)
);
},
{
closed = 1;
nodes = (
(195,520,o),
(213,538,o),
(213,560,cs),
(213,582,o),
(195,600,o),
(173,600,cs),
(151,600,o),
(133,582,o),
(133,560,cs),
(133,538,o),
(151,520,o),
(173,520,cs)
);
},
{
closed = 1;
nodes = (
(488,520,o),
(506,538,o),
(506,560,cs),
(506,582,o),
(488,600,o),
(466,600,cs),
(444,600,o),
(426,582,o),
(426,560,cs),
(426,538,o),
(444,520,o),
(466,520,cs)
);
},
{
closed = 1;
nodes = (
(205,-140,l),
(205,-200,l),
(501,-200,l),
(501,450,l),
(296,450,l),
(296,390,l),
(456,390,l),
(441,435,l),
(441,-140,l)
);
}
);
width = 536;
}
);
unicode = 307;
},
{
color = 4;
glyphname = j;
lastChange = "2025-07-02 18:21:57 +0000";
layers = (
{
guides = (
{
angle = 180;
pos = (110,60);
}
);
hints = (
{
name = _corner.round;
origin = (1,2);
scale = (2,2);
type = Corner;
},
{
name = _corner.round;
origin = (1,8);
type = Corner;
}
);
layerId = m01;
shapes = (
{
closed = 1;
nodes = (
(433,520,o),
(451,538,o),
(451,560,cs),
(451,582,o),
(433,600,o),
(411,600,cs),
(389,600,o),
(371,582,o),
(371,560,cs),
(371,538,o),
(389,520,o),
(411,520,cs)
);
},
{
closed = 1;
nodes = (
(40,-140,l),
(40,-200,l),
(446,-200,l),
(446,450,l),
(211,450,l),
(211,390,l),
(417,390,l),
(386,418,l),
(386,-140,l)
);
}
);
width = 536;
}
);
unicode = 106;
},
{
glyphname = jdotless;
lastChange = "2025-06-29 23:52:29 +0000";
layers = (
{
hints = (
{
name = _corner.round;
origin = (0,2);
scale = (2,2);
type = Corner;
},
{
name = _corner.round;
origin = (0,8);
type = Corner;
}
);
layerId = m01;
shapes = (
{
closed = 1;
nodes = (
(40,-140,l),
(40,-200,l),
(446,-200,l),
(446,450,l),
(211,450,l),
(211,390,l),
(401,390,l),
(386,435,l),
(386,-140,l)
);
}
);
width = 536;
}
);
unicode = 567;
},
{
glyphname = jcrossedtail;
lastChange = "2025-07-01 15:14:13 +0000";
layers = (
{
layerId = m01;
shapes = (
{
closed = 1;
nodes = (
(318,520,o),
(336,538,o),
(336,560,cs),
(336,582,o),
(318,600,o),
(296,600,cs),
(274,600,o),
(256,582,o),
(256,560,cs),
(256,538,o),
(274,520,o),
(296,520,cs)
);
},
{
closed = 1;
nodes = (
(271,-105,l),
(331,-105,l),
(331,450,l),
(96,450,l),
(96,390,l),
(286,390,l),
(271,435,l)
);
},
{
alignment = -1;
angle = 90;
pos = (331,302);
ref = _part.curl;
scale = (-1,1);
}
);
width = 536;
}
);
unicode = 669;
},
{
glyphname = jdotlessstroke;
lastChange = "2025-06-30 21:33:53 +0000";
layers = (
{
layerId = m01;
shapes = (
{
ref = jdotless;
},
{
closed = 1;
nodes = (
(316,199,l),
(513,199,l),
(513,259,l),
(316,259,l)
);
}
);
width = 536;
}
);
unicode = 607;
},
{
glyphname = jdotlessstrokehook;
lastChange = "2025-06-30 21:34:21 +0000";
layers = (
{
layerId = m01;
shapes = (
{
ref = jdotless;
},
{
closed = 1;
nodes = (
(316,199,l),
(513,199,l),
(513,259,l),
(316,259,l)
);
},
{
alignment = -1;
pos = (-24,-16);
ref = _part.hook;
}
);
width = 536;
}
);
unicode = 644;
},
{
color = 4;
glyphname = k;
lastChange = "2025-07-02 18:21:57 +0000";
layers = (
{
anchors = (
{
name = bottom;
pos = (268,0);
},
{
name = top;
pos = (268,800);
}
);
layerId = m01;
shapes = (
{
closed = 1;
nodes = (
(63,620,l),
(63,0,l),
(123,0,l),
(123,620,l)
);
},
{
closed = 1;
nodes = (
(91,116,l),
(434,450,l),
(353,450,l),
(91,205,l)
);
},
{
closed = 1;
nodes = (
(398,0,l),
(473,0,l),
(243,304,l),
(200,261,l)
);
}
);
width = 536;
}
);
unicode = 107;
},
{
color = 4;
glyphname = l;
lastChange = "2025-07-02 18:21:57 +0000";
layers = (
{
anchors = (
{
name = bottom;
pos = (268,0);
},
{
name = center;
pos = (268,225);
},
{
name = top;
pos = (268,800);
},
{
name = topright;
pos = (516,800);
}
);
layerId = m01;
shapes = (
{
closed = 1;
nodes = (
(50,60,l),
(50,0,l),
(486,0,l),
(486,60,l)
);
},
{
closed = 1;
nodes = (
(298,28,l),
(298,620,l),
(83,620,l),
(83,560,l),
(263,560,l),
(238,595,l),
(238,28,l)
);
}
);
width = 536;
}
);
unicode = 108;
},
{
glyphname = lezh;
lastChange = "2025-06-30 22:04:06 +0000";
layers = (
{
anchors = (
{
name = bottom;
pos = (268,0);
},
{
name = center;
pos = (268,225);
},
{
name = top;
pos = (268,800);
},
{
name = topright;
pos = (516,800);
}
);
hints = (
{
name = _corner.round;
origin = (2,0);
scale = (2,2);
type = Corner;
},
{
name = _corner.round;
origin = (2,3);
type = Corner;
},
{
name = _corner.round;
options = 2;
origin = (2,4);
scale = (-1,1);
type = Corner;
},
{
name = _corner.round;
origin = (2,7);
scale = (2,2);
type = Corner;
},
{
name = _corner.round;
origin = (3,1);
scale = (0.5,0.5);
type = Corner;
}
);
layerId = m01;
shapes = (
{
closed = 1;
nodes = (
(20,60,l),
(20,0,l),
(402,0,l),
(402,60,l)
);
},
{
closed = 1;
nodes = (
(258,28,l),
(258,620,l),
(43,620,l),
(43,560,l),
(223,560,l),
(198,595,l),
(198,28,l)
);
},
{
closed = 1;
nodes = (
(522,180,l),
(308,180,l),
(308,120,l),
(462,120,l),
(462,-60,l),
(286,-60,l),
(286,-120,l),
(522,-120,l)
);
},
{
attr = {
identifier = ID0x32f4f0070;
strokeWidth = 60;
};
closed = 0;
nodes = (
(333,163,l),
(508,420,l),
(247,420,l)
);
}
);
width = 536;
}
);
unicode = 622;
},
{
glyphname = lsdigraph;
lastChange = "2025-06-30 21:37:21 +0000";
layers = (
{
anchors = (
{
name = bottom;
pos = (268,0);
},
{
name = center;
pos = (268,225);
},
{
name = top;
pos = (268,800);
},
{
name = topright;
pos = (516,800);
}
);
hints = (
{
name = _corner.round;
origin = (1,8);
scale = (2,2);
type = Corner;
},
{
name = _corner.round;
options = 2;
origin = (1,9);
scale = (2,2);
type = Corner;
},
{
name = _corner.round;
origin = (1,1);
scale = (2,2);
type = Corner;
},
{
name = _corner.round;
options = 2;
origin = (1,0);
scale = (2,2);
type = Corner;
},
{
name = _corner.round;
origin = (1,4,1,6);
stem = 1000;
type = Corner;
},
{
name = _corner.round;
origin = (1,12,1,14);
stem = 1000;
type = Corner;
},
{
name = _corner.round;
origin = (1,10,1,12);
stem = 1000;
type = Corner;
},
{
name = _corner.round;
origin = (1,2,1,4);
stem = 1000;
type = Corner;
}
);
layerId = m01;
shapes = (
{
closed = 1;
nodes = (
(188,28,l),
(188,620,l),
(33,620,l),
(33,560,l),
(153,560,l),
(128,595,l),
(128,28,l)
);
},
{
closed = 1;
nodes = (
(226,450,l),
(226,210,l),
(485,210,l),
(456,234,l),
(456,25,l),
(485,60,l),
(20,60,l),
(20,0,l),
(516,0,l),
(516,270,l),
(271,270,l),
(286,244,l),
(286,415,l),
(271,390,l),
(476,390,l),
(476,450,l)
);
}
);
width = 536;
}
);
unicode = 682;
},
{
glyphname = lslash;
lastChange = "2025-06-30 01:52:28 +0000";
layers = (
{
layerId = m01;
shapes = (
{
ref = l;
},
{
closed = 1;
nodes = (
(170,274,l),
(387,399,l),
(357,451,l),
(140,326,l)
);
}
);
width = 536;
}
);
unicode = 322;
},
{
glyphname = lzdigraph;
lastChange = "2025-06-30 21:09:33 +0000";
layers = (
{
anchors = (
{
name = bottom;
pos = (268,0);
},
{
name = center;
pos = (268,225);
},
{
name = top;
pos = (268,800);
},
{
name = topright;
pos = (516,800);
}
);
layerId = m01;
shapes = (
{
closed = 1;
nodes = (
(10,60,l),
(10,0,l),
(206,0,l),
(206,60,l)
);
},
{
closed = 1;
nodes = (
(168,28,l),
(168,620,l),
(43,620,l),
(43,560,l),
(133,560,l),
(108,595,l),
(108,28,l)
);
},
{
closed = 1;
nodes = (
(197,0,l),
(526,0,l),
(526,60,l),
(251,60,l),
(246,25,l),
(495,390,l),
(495,450,l),
(146,450,l),
(146,390,l),
(446,390,l),
(446,425,l),
(197,60,l)
);
}
);
width = 536;
}
);
unicode = 683;
},
{
color = 4;
glyphname = m;
lastChange = "2025-07-02 18:21:57 +0000";
layers = (
{
anchors = (
{
name = bottom;
pos = (268,0);
},
{
name = top;
pos = (268,450);
}
);
hints = (
{
name = _corner.round;
origin = (0,9);
scale = (2,2);
type = Corner;
},
{
name = _corner.round;
origin = (1,0);
scale = (2,2);
type = Corner;
},
{
name = _corner.round;
origin = (1,9);
scale = (2,2);
type = Corner;
},
{
name = _corner.round;
options = 2;
origin = (1,5,1,7);
scale = (-1,1);
stem = 1000;
type = Corner;
},
{
name = _corner.round;
options = 1;
origin = (0,0);
scale = (2,-2);
type = Corner;
},
{
name = _corner.round;
options = 1;
origin = (0,3,0,5);
scale = (1,-1);
stem = 1000;
type = Corner;
},
{
name = _corner.round;
origin = (1,3,1,5);
stem = 1000;
type = Corner;
},
{
name = _corner.round;
origin = (0,5,0,7);
stem = 1000;
type = Corner;
}
);
layerId = m01;
shapes = (
{
closed = 1;
nodes = (
(30,450,l),
(30,0,l),
(90,0,l),
(90,415,l),
(60,390,l),
(263,390,l),
(238,415,l),
(238,0,l),
(298,0,l),
(298,450,l)
);
},
{
closed = 1;
nodes = (
(238,450,l),
(238,0,l),
(298,0,l),
(298,416,l),
(271,390,l),
(471,390,l),
(446,416,l),
(446,0,l),
(506,0,l),
(506,450,l)
);
}
);
width = 536;
}
);
unicode = 109;
},
{
glyphname = mlonglegturned;
lastChange = "2025-06-30 21:10:55 +0000";
layers = (
{
layerId = m01;
shapes = (
{
pos = (0,450);
ref = m;
scale = (1,-1);
},
{
closed = 1;
nodes = (
(446,-110,l),
(506,-110,l),
(506,128,l),
(446,128,l)
);
}
);
width = 536;
}
);
unicode = 624;
},
{
glyphname = mmiddletilde;
lastChange = "2025-06-30 21:17:31 +0000";
layers = (
{
anchors = (
{
name = bottom;
pos = (268,0);
},
{
name = top;
pos = (268,450);
}
);
hints = (
{
name = _corner.round;
origin = (0,9);
scale = (2,2);
type = Corner;
},
{
name = _corner.round;
origin = (1,0);
scale = (2,2);
type = Corner;
},
{
name = _corner.round;
origin = (1,9);
scale = (2,2);
type = Corner;
},
{
name = _corner.round;
options = 2;
origin = (1,5,1,7);
scale = (-1,1);
stem = 1000;
type = Corner;
},
{
name = _corner.round;
options = 1;
origin = (0,0);
scale = (2,-2);
type = Corner;
},
{
name = _corner.round;
options = 1;
origin = (0,3,0,5);
scale = (1,-1);
stem = 1000;
type = Corner;
},
{
name = _corner.round;
origin = (1,3,1,5);
stem = 1000;
type = Corner;
},
{
name = _corner.round;
origin = (0,5,0,7);
stem = 1000;
type = Corner;
}
);
layerId = m01;
shapes = (
{
closed = 1;
nodes = (
(54,450,l),
(54,0,l),
(114,0,l),
(114,415,l),
(80,390,l),
(263,390,l),
(238,415,l),
(238,0,l),
(298,0,l),
(298,450,l)
);
},
{
closed = 1;
nodes = (
(238,450,l),
(238,0,l),
(298,0,l),
(298,416,l),
(271,390,l),
(451,390,l),
(422,416,l),
(422,0,l),
(482,0,l),
(482,450,l)
);
},
{
attr = {
identifier = ID0x31f142f90;
strokeWidth = 45;
};
closed = 0;
nodes = (
(25,138,l),
(25,228,o),
(77,249,o),
(126,249,cs),
(235,249,o),
(304,138,o),
(411,138,cs),
(486,138,o),
(511,169,o),
(511,249,cs)
);
}
);
width = 536;
}
);
unicode = 7535;
},
{
color = 4;
glyphname = n;
lastChange = "2025-07-02 18:21:57 +0000";
layers = (
{
anchors = (
{
name = bottom;
pos = (268,0);
},
{
name = top;
pos = (268,450);
}
);
hints = (
{
name = _corner.round;
origin = (0,9);
scale = (2,2);
type = Corner;
},
{
name = _corner.round;
origin = (0,5,0,7);
stem = 1000;
type = Corner;
}
);
layerId = m01;
shapes = (
{
closed = 1;
nodes = (
(50,450,l),
(50,0,l),
(110,0,l),
(110,415,l),
(82,390,l),
(448,390,l),
(426,415,l),
(426,0,l),
(486,0,l),
(486,450,l)
);
}
);
width = 536;
}
);
unicode = 110;
},
{
glyphname = nmiddletilde;
lastChange = "2025-06-30 21:14:21 +0000";
layers = (
{
anchors = (
{
name = bottom;
pos = (268,0);
},
{
name = top;
pos = (268,450);
}
);
hints = (
{
name = _corner.round;
origin = (0,9);
scale = (2,2);
type = Corner;
},
{
name = _corner.round;
origin = (0,5,0,7);
stem = 1000;
type = Corner;
}
);
layerId = m01;
shapes = (
{
closed = 1;
nodes = (
(86,450,l),
(86,0,l),
(146,0,l),
(146,415,l),
(118,390,l),
(410,390,l),
(392,415,l),
(392,0,l),
(452,0,l),
(452,450,l)
);
},
{
attr = {
identifier = ID0x31f142f90;
strokeWidth = 50;
};
closed = 0;
nodes = (
(31,168,l),
(31,258,o),
(81,279,o),
(129,279,cs),
(234,279,o),
(301,168,o),
(404,168,cs),
(477,168,o),
(501,199,o),
(501,279,cs)
);
}
);
width = 536;
}
);
unicode = 7536;
},
{
color = 4;
glyphname = o;
lastChange = "2025-07-02 18:21:57 +0000";
layers = (
{
anchors = (
{
name = bottom;
pos = (268,0);
},
{
name = center;
pos = (268,225);
},
{
name = ogonek;
pos = (482,10);
},
{
name = top;
pos = (268,450);
},
{
name = topright;
pos = (516,450);
}
);
hints = (
{
name = _corner.round;
origin = (0,3);
scale = (2,2);
type = Corner;
},
{
name = _corner.round;
origin = (0,0);
scale = (2,2);
type = Corner;
},
{
name = _corner.round;
options = 2;
origin = (0,1);
scale = (2,2);
type = Corner;
},
{
name = _corner.round;
options = 2;
origin = (0,2);
scale = (2,2);
type = Corner;
},
{
name = _corner.round;
origin = (1,0,1,2);
stem = 1000;
type = Corner;
},
{
name = _corner.round;
origin = (1,0,1,6);
stem = 1000;
type = Corner;
},
{
name = _corner.round;
origin = (1,2,1,4);
stem = 1000;
type = Corner;
},
{
name = _corner.round;
origin = (1,4,1,6);
stem = 1000;
type = Corner;
}
);
layerId = m01;
shapes = (
{
closed = 1;
nodes = (
(50,450,l),
(50,0,l),
(486,0,l),
(486,450,l)
);
},
{
closed = 1;
nodes = (
(110,415,l),
(87,390,l),
(451,390,l),
(426,415,l),
(426,35,l),
(451,60,l),
(87,60,l),
(110,35,l)
);
}
);
width = 536;
}
);
unicode = 111;
},
{
glyphname = obarred;
lastChange = "2025-06-30 18:51:54 +0000";
layers = (
{
layerId = m01;
shapes = (
{
pos = (0,2);
ref = o;
},
{
closed = 1;
nodes = (
(71,202,l),
(463,202,l),
(463,252,l),
(71,252,l)
);
}
);
width = 536;
}
);
unicode = 629;
},
{
glyphname = oopen;
lastChange = "2025-06-30 02:04:45 +0000";
layers = (
{
anchors = (
{
name = bottom;
pos = (268,0);
},
{
name = center;
pos = (268,225);
},
{
name = ogonek;
pos = (482,10);
},
{
name = top;
pos = (268,450);
},
{
name = topright;
pos = (516,450);
}
);
hints = (
{
name = _corner.round;
origin = (0,8);
scale = (2,2);
type = Corner;
},
{
name = _corner.round;
options = 2;
origin = (0,7);
scale = (2,2);
type = Corner;
},
{
name = _corner.round;
origin = (0,1,0,3);
stem = 1000;
type = Corner;
},
{
name = _corner.round;
origin = (0,3,0,5);
stem = 1000;
type = Corner;
}
);
layerId = m01;
shapes = (
{
closed = 1;
nodes = (
(67,390,l),
(434,390,l),
(409,415,l),
(409,35,l),
(434,60,l),
(67,60,l),
(67,0,l),
(469,0,l),
(469,450,l),
(67,450,l)
);
}
);
width = 536;
}
);
unicode = 596;
},
{
glyphname = oslash;
lastChange = "2025-06-29 23:53:55 +0000";
layers = (
{
layerId = m01;
shapes = (
{
pos = (-4,0);
ref = o;
},
{
closed = 1;
nodes = (
(37,-2,l),
(97,-2,l),
(491,450,l),
(431,450,l)
);
}
);
width = 536;
}
);
unicode = 248;
},
{
glyphname = oe;
lastChange = "2025-06-29 23:55:36 +0000";
layers = (
{
anchors = (
{
name = bottom;
pos = (268,0);
},
{
name = center;
pos = (268,225);
},
{
name = ogonek;
pos = (482,10);
},
{
name = top;
pos = (268,450);
},
{
name = topright;
pos = (516,450);
}
);
hints = (
{
name = _corner.round;
origin = (0,3);
scale = (2,2);
type = Corner;
},
{
name = _corner.round;
origin = (0,0);
scale = (2,2);
type = Corner;
},
{
name = _corner.round;
options = 2;
origin = (0,1);
scale = (2,2);
type = Corner;
},
{
name = _corner.round;
options = 2;
origin = (0,2);
scale = (2,2);
type = Corner;
},
{
name = _corner.round;
origin = (1,0,1,2);
stem = 1000;
type = Corner;
},
{
name = _corner.round;
origin = (1,0,1,6);
stem = 1000;
type = Corner;
},
{
name = _corner.round;
origin = (1,2,1,4);
stem = 1000;
type = Corner;
},
{
name = _corner.round;
origin = (1,4,1,6);
stem = 1000;
type = Corner;
},
{
name = _corner.round;
origin = (2,3);
scale = (2,2);
type = Corner;
},
{
name = _corner.round;
origin = (2,4);
scale = (2,2);
type = Corner;
},
{
name = _corner.round;
origin = (2,2);
scale = (2,2);
type = Corner;
},
{
name = _corner.round;
origin = (2,1);
scale = (2,2);
type = Corner;
},
{
name = _corner.round;
origin = (2,11,2,13);
stem = 1000;
type = Corner;
},
{
name = _corner.round;
origin = (2,13,2,15);
stem = 1000;
type = Corner;
},
{
name = _corner.round;
origin = (2,9,2,11);
stem = 1000;
type = Corner;
},
{
name = _corner.round;
origin = (2,7,2,9);
stem = 1000;
type = Corner;
}
);
layerId = m01;
shapes = (
{
closed = 1;
nodes = (
(30,450,l),
(30,0,l),
(298,0,l),
(298,450,l)
);
},
{
closed = 1;
nodes = (
(90,415,l),
(67,390,l),
(251,390,l),
(238,415,l),
(238,35,l),
(251,60,l),
(67,60,l),
(90,35,l)
);
},
{
closed = 1;
nodes = (
(285,210,l),
(506,210,l),
(506,450,l),
(238,450,l),
(238,0,l),
(506,0,l),
(506,60,l),
(285,60,l),
(298,27,l),
(298,425,l),
(285,390,l),
(471,390,l),
(446,425,l),
(446,254,l),
(471,270,l),
(285,270,l)
);
}
);
width = 536;
}
);
unicode = 339;
},
{
color = 4;
glyphname = p;
lastChange = "2025-07-02 18:21:57 +0000";
layers = (
{
anchors = (
{
name = bottom;
pos = (268,0);
},
{
name = top;
pos = (268,450);
}
);
hints = (
{
name = _corner.round;
origin = (0,2);
scale = (2,2);
type = Corner;
},
{
name = _corner.round;
origin = (0,1);
scale = (2,2);
type = Corner;
},
{
name = _corner.round;
origin = (0,8,0,10);
stem = 1000;
type = Corner;
},
{
name = _corner.round;
origin = (0,10,0,12);
stem = 1000;
type = Corner;
}
);
layerId = m01;
shapes = (
{
closed = 1;
nodes = (
(79,0,l),
(486,0,l),
(486,450,l),
(50,450,l),
(50,-200,l),
(110,-200,l),
(110,410,l),
(79,390,l),
(451,390,l),
(426,410,l),
(426,42,l),
(451,60,l),
(79,60,l)
);
}
);
width = 536;
}
);
unicode = 112;
},
{
glyphname = "phi-latin";
lastChange = "2025-07-01 15:20:16 +0000";
layers = (
{
anchors = (
{
name = bottom;
pos = (268,0);
},
{
name = center;
pos = (268,225);
},
{
name = ogonek;
pos = (482,10);
},
{
name = top;
pos = (268,450);
},
{
name = topright;
pos = (516,450);
}
);
hints = (
{
name = _corner.round;
origin = (0,0);
scale = (2,2);
type = Corner;
},
{
name = _corner.round;
options = 2;
origin = (0,1);
scale = (2,2);
type = Corner;
},
{
name = _corner.round;
options = 2;
origin = (0,2);
scale = (2,2);
type = Corner;
},
{
name = _corner.round;
origin = (0,3);
scale = (2,2);
type = Corner;
},
{
name = _corner.round;
origin = (1,0,1,2);
stem = 1000;
type = Corner;
},
{
name = _corner.round;
origin = (1,0,1,6);
stem = 1000;
type = Corner;
},
{
name = _corner.round;
origin = (1,2,1,4);
stem = 1000;
type = Corner;
},
{
name = _corner.round;
origin = (1,4,1,6);
stem = 1000;
type = Corner;
}
);
layerId = m01;
shapes = (
{
closed = 1;
nodes = (
(50,450,l),
(50,0,l),
(486,0,l),
(486,450,l)
);
},
{
closed = 1;
nodes = (
(110,405,l),
(87,390,l),
(451,390,l),
(426,405,l),
(426,35,l),
(451,60,l),
(87,60,l),
(110,35,l)
);
},
{
closed = 1;
nodes = (
(238,-110,l),
(298,-110,l),
(298,560,l),
(238,560,l)
);
}
);
width = 536;
}
);
unicode = 632;
},
{
glyphname = thorn;
lastChange = "2025-06-29 23:57:04 +0000";
layers = (
{
anchors = (
{
name = bottom;
pos = (268,0);
},
{
name = top;
pos = (268,450);
}
);
hints = (
{
name = _corner.round;
origin = (1,8);
scale = (2,2);
type = Corner;
},
{
name = _corner.round;
origin = (1,7);
scale = (2,2);
type = Corner;
},
{
name = _corner.round;
origin = (1,1,1,3);
stem = 1000;
type = Corner;
},
{
name = _corner.round;
origin = (1,3,1,5);
stem = 1000;
type = Corner;
}
);
layerId = m01;
shapes = (
{
closed = 1;
nodes = (
(50,-200,l),
(110,-200,l),
(110,620,l),
(50,620,l)
);
},
{
closed = 1;
nodes = (
(82,390,l),
(451,390,l),
(426,425,l),
(426,25,l),
(451,60,l),
(82,60,l),
(82,0,l),
(486,0,l),
(486,450,l),
(82,450,l)
);
}
);
width = 600;
}
);
unicode = 254;
},
{
glyphname = pmiddletilde;
lastChange = "2025-07-03 16:28:02 +0000";
layers = (
{
hints = (
{
name = _corner.round;
origin = (0,0);
scale = (2,2);
type = Corner;
},
{
name = _corner.round;
origin = (0,1);
scale = (2,2);
type = Corner;
},
{
name = _corner.round;
origin = (0,7,0,9);
scale = (-1,-1);
stem = 1000;
type = Corner;
},
{
name = _corner.round;
origin = (0,9,0,11);
scale = (-1,-1);
stem = 1000;
type = Corner;
}
);
layerId = m01;
shapes = (
{
closed = 1;
nodes = (
(521,0,l),
(521,450,l),
(125,450,l),
(125,-170,l),
(185,-170,l),
(185,414,l),
(156,390,l),
(479,390,l),
(461,414,l),
(461,36,l),
(479,60,l),
(156,60,l),
(156,0,l)
);
},
{
attr = {
identifier = ID0x330147af0;
strokeWidth = 50;
};
closed = 0;
nodes = (
(278,-140,l),
(278,-60,o),
(252,-49,o),
(216,-49,cs),
(151,-49,o),
(152,-120,o),
(93,-120,cs),
(64,-120,o),
(30,-103,o),
(30,-29,c)
);
}
);
width = 536;
}
);
unicode = 7537;
},
{
color = 4;
glyphname = q;
lastChange = "2025-07-02 18:21:57 +0000";
layers = (
{
anchors = (
{
name = bottom;
pos = (268,0);
},
{
name = top;
pos = (268,450);
}
);
hints = (
{
name = _corner.round;
origin = (0,4);
scale = (2,2);
type = Corner;
},
{
name = _corner.round;
origin = (0,3);
scale = (2,2);
type = Corner;
},
{
name = _corner.round;
origin = (0,7,0,9);
stem = 1000;
type = Corner;
},
{
name = _corner.round;
origin = (0,9,0,11);
stem = 1000;
type = Corner;
}
);
layerId = m01;
shapes = (
{
closed = 1;
nodes = (
(426,-200,l),
(486,-200,l),
(486,450,l),
(50,450,l),
(50,0,l),
(455,0,l),
(455,60,l),
(89,60,l),
(110,35,l),
(110,415,l),
(89,390,l),
(455,390,l),
(426,415,l)
);
}
);
width = 536;
}
);
unicode = 113;
},
{
glyphname = qhooktail;
lastChange = "2025-06-30 17:35:40 +0000";
layers = (
{
anchors = (
{
name = bottom;
pos = (268,0);
},
{
name = top;
pos = (268,450);
}
);
hints = (
{
name = _corner.round;
origin = (0,4);
scale = (2,2);
type = Corner;
},
{
name = _corner.round;
origin = (0,3);
scale = (2,2);
type = Corner;
},
{
name = _corner.round;
origin = (0,7,0,9);
stem = 1000;
type = Corner;
},
{
name = _corner.round;
origin = (0,9,0,11);
stem = 1000;
type = Corner;
}
);
layerId = m01;
shapes = (
{
closed = 1;
nodes = (
(396,-62,l),
(456,-62,l),
(456,450,l),
(20,450,l),
(20,0,l),
(425,0,l),
(425,60,l),
(49,60,l),
(80,35,l),
(80,415,l),
(49,390,l),
(425,390,l),
(396,415,l)
);
},
{
alignment = -1;
pos = (-14,404);
ref = _part.hook;
scale = (1,-1);
}
);
width = 536;
}
);
unicode = 587;
},
{
color = 4;
glyphname = r;
lastChange = "2025-07-02 18:21:57 +0000";
layers = (
{
anchors = (
{
name = bottom;
pos = (268,0);
},
{
name = top;
pos = (268,450);
}
);
hints = (
{
name = _corner.round;
origin = (0,9);
scale = (2,2);
type = Corner;
},
{
name = _corner.round;
origin = (0,5,0,7);
stem = 1000;
type = Corner;
}
);
layerId = m01;
shapes = (
{
closed = 1;
nodes = (
(50,450,l),
(50,0,l),
(110,0,l),
(110,419,l),
(85,390,l),
(441,390,l),
(426,409,l),
(426,304,l),
(486,304,l),
(486,450,l)
);
}
);
width = 536;
}
);
unicode = 114;
},
{
glyphname = ramshorn;
lastChange = "2025-06-30 21:08:16 +0000";
layers = (
{
layerId = m01;
shapes = (
{
attr = {
lineCapEnd = "4";
lineCapStart = "4";
strokeWidth = 60;
};
closed = 0;
nodes = (
(37,360,ls),
(37,385,o),
(59,420,o),
(100,420,cs),
(139,420,o),
(159,395,o),
(180,369,c),
(261,262,ls),
(306,203,o),
(359,130,o),
(360,96,cs),
(361,59,o),
(335,30,o),
(300,30,cs),
(265,30,o),
(239,59,o),
(240,96,cs),
(241,130,o),
(294,203,o),
(339,262,cs),
(420,369,l),
(441,395,o),
(461,420,o),
(500,420,cs),
(541,420,o),
(563,385,o),
(563,360,cs)
);
}
);
width = 600;
}
);
unicode = 612;
},
{
glyphname = rfishhook;
lastChange = "2025-06-30 17:44:39 +0000";
layers = (
{
anchors = (
{
name = bottom;
pos = (268,0);
},
{
name = top;
pos = (268,450);
}
);
hints = (
{
name = _corner.round;
origin = (0,2,0,4);
stem = 1000;
type = Corner;
},
{
name = _corner.round;
origin = (0,6);
scale = (2,2);
type = Corner;
}
);
layerId = m01;
shapes = (
{
closed = 1;
nodes = (
(50,0,l),
(110,0,l),
(110,415,l),
(85,390,l),
(486,390,l),
(486,450,l),
(50,450,l)
);
}
);
width = 536;
}
);
unicode = 638;
},
{
glyphname = rfishhookmiddletilde;
lastChange = "2025-06-30 21:12:14 +0000";
layers = (
{
anchors = (
{
name = bottom;
pos = (268,0);
},
{
name = top;
pos = (268,800);
}
);
hints = (
{
name = _corner.round;
origin = (0,0);
scale = (2,2);
type = Corner;
},
{
name = _corner.round;
origin = (0,3,0,5);
stem = 1000;
type = Corner;
}
);
layerId = m01;
shapes = (
{
closed = 1;
nodes = (
(216,619,l),
(216,0,l),
(276,0,l),
(276,590,l),
(261,559,l),
(486,559,l),
(486,619,l)
);
},
{
attr = {
identifier = ID0x31f142f90;
strokeWidth = 50;
};
closed = 0;
nodes = (
(73,288,l),
(73,362,o),
(106,399,o),
(162,399,cs),
(282,399,o),
(217,288,o),
(336,288,cs),
(387,288,o),
(423,319,o),
(423,399,cs)
);
}
);
width = 536;
}
);
unicode = 7539;
},
{
glyphname = rlonglegturned;
lastChange = "2025-07-01 15:28:27 +0000";
layers = (
{
anchors = (
{
name = bottom;
pos = (268,0);
},
{
name = top;
pos = (268,450);
}
);
hints = (
{
name = _corner.round;
origin = (0,9);
scale = (2,2);
type = Corner;
},
{
name = _corner.round;
origin = (0,5,0,7);
stem = 1000;
type = Corner;
}
);
layerId = m01;
shapes = (
{
closed = 1;
nodes = (
(486,0,l),
(486,620,l),
(426,620,l),
(426,19,l),
(451,60,l),
(95,60,l),
(110,29,l),
(110,146,l),
(50,146,l),
(50,0,l)
);
}
);
width = 536;
}
);
unicode = 634;
},
{
glyphname = rmiddletilde;
lastChange = "2025-06-30 21:03:59 +0000";
layers = (
{
anchors = (
{
name = bottom;
pos = (268,0);
},
{
name = top;
pos = (268,450);
}
);
hints = (
{
name = _corner.round;
origin = (0,9);
scale = (2,2);
type = Corner;
},
{
name = _corner.round;
origin = (0,5,0,7);
stem = 1000;
type = Corner;
}
);
layerId = m01;
shapes = (
{
closed = 1;
nodes = (
(130,450,l),
(130,0,l),
(190,0,l),
(190,431,l),
(165,390,l),
(471,390,l),
(456,421,l),
(456,304,l),
(516,304,l),
(516,450,l)
);
},
{
alignment = -1;
pos = (-110,-507);
ref = tildecomb;
}
);
width = 536;
}
);
unicode = 7538;
},
{
color = 4;
glyphname = s;
lastChange = "2025-07-02 18:21:57 +0000";
layers = (
{
anchors = (
{
name = bottom;
pos = (268,0);
},
{
name = top;
pos = (268,450);
}
);
hints = (
{
name = _corner.round;
origin = (0,8);
scale = (2,2);
type = Corner;
},
{
name = _corner.round;
options = 2;
origin = (0,9);
scale = (2,2);
type = Corner;
},
{
name = _corner.round;
origin = (0,1);
scale = (2,2);
type = Corner;
},
{
name = _corner.round;
options = 2;
origin = (0,0);
scale = (2,2);
type = Corner;
},
{
name = _corner.round;
origin = (0,2,0,4);
stem = 1000;
type = Corner;
},
{
name = _corner.round;
origin = (0,4,0,6);
stem = 1000;
type = Corner;
},
{
name = _corner.round;
origin = (0,10,0,12);
stem = 1000;
type = Corner;
},
{
name = _corner.round;
origin = (0,12,0,14);
stem = 1000;
type = Corner;
}
);
layerId = m01;
shapes = (
{
closed = 1;
nodes = (
(50,450,l),
(50,210,l),
(445,210,l),
(426,234,l),
(426,38,l),
(445,60,l),
(51,60,l),
(51,0,l),
(486,0,l),
(486,270,l),
(85,270,l),
(110,245,l),
(110,411,l),
(85,390,l),
(446,390,l),
(446,450,l)
);
}
);
width = 536;
}
);
unicode = 115;
},
{
glyphname = germandbls;
lastChange = "2025-06-30 01:47:11 +0000";
layers = (
{
anchors = (
{
name = bottom;
pos = (385,0);
},
{
name = center;
pos = (251,155);
},
{
name = top;
pos = (385,620);
}
);
hints = (
{
name = _corner.round;
options = 2;
origin = (0,10);
scale = (2,2);
type = Corner;
},
{
name = _corner.round;
origin = (0,11);
scale = (2,2);
type = Corner;
},
{
name = _corner.round;
origin = (1,7);
scale = (3,3);
type = Corner;
},
{
name = _corner.round;
origin = (1,8);
scale = (3,3);
type = Corner;
},
{
name = _corner.round;
origin = (0,1,0,3);
stem = 1000;
type = Corner;
},
{
name = _corner.round;
origin = (0,3,0,5);
stem = 1000;
type = Corner;
},
{
name = _corner.round;
origin = (1,3,1,5);
scale = (2,2);
stem = 1000;
type = Corner;
},
{
name = _corner.round;
origin = (0,9);
scale = (2,2);
type = Corner;
},
{
name = _corner.round;
origin = (0,5,0,7);
stem = 1000;
type = Corner;
},
{
name = _corner.round;
origin = (1,1,1,3);
scale = (2,2);
stem = 1000;
type = Corner;
}
);
layerId = m01;
shapes = (
{
closed = 1;
nodes = (
(110,120,l),
(110,709,l),
(79,680,l),
(401,680,l),
(366,709,l),
(366,495,l),
(390,510,l),
(160,510,l),
(160,450,l),
(426,450,l),
(426,740,l),
(50,740,l),
(50,120,l)
);
},
{
closed = 1;
nodes = (
(160,450,l),
(433,450,l),
(426,458,l),
(426,168,l),
(440,180,l),
(160,180,l),
(160,120,l),
(486,120,l),
(486,510,l),
(160,510,l)
);
}
);
width = 536;
}
);
unicode = 223;
},
{
glyphname = smiddletilde;
lastChange = "2025-06-30 22:17:45 +0000";
layers = (
{
anchors = (
{
name = bottom;
pos = (268,0);
},
{
name = top;
pos = (268,450);
}
);
hints = (
{
name = _corner.round;
origin = (1,13);
scale = (2,2);
type = Corner;
},
{
name = _corner.round;
options = 2;
origin = (1,14);
scale = (2,2);
type = Corner;
},
{
name = _corner.round;
origin = (1,6);
scale = (2,2);
type = Corner;
},
{
name = _corner.round;
options = 2;
origin = (1,5);
scale = (2,2);
type = Corner;
},
{
name = _corner.round;
origin = (1,7,1,9);
stem = 1000;
type = Corner;
},
{
name = _corner.round;
origin = (1,9,1,11);
stem = 1000;
type = Corner;
},
{
name = _corner.round;
origin = (1,1,1,3);
stem = 1000;
type = Corner;
},
{
name = _corner.round;
origin = (1,0);
type = Corner;
}
);
layerId = m01;
shapes = (
{
attr = {
identifier = ID0x31f142f90;
strokeWidth = 50;
};
closed = 0;
nodes = (
(404,168,l),
(477,168,o),
(501,199,o),
(501,279,cs)
);
},
{
closed = 1;
nodes = (
(110,270,l),
(110,425,l),
(75,390,l),
(446,390,l),
(446,450,l),
(50,450,l),
(50,210,l),
(405,210,l),
(386,234,l),
(386,45,l),
(405,60,l),
(51,60,l),
(51,0,l),
(446,0,l),
(446,270,l)
);
},
{
attr = {
identifier = ID0x31f142f90;
lineCapEnd = 4;
strokeWidth = 50;
};
closed = 0;
nodes = (
(31,168,l),
(31,239,o),
(62,267,o),
(99,276,cs)
);
}
);
width = 536;
}
);
unicode = 7540;
},
{
color = 4;
glyphname = t;
lastChange = "2025-07-02 18:21:57 +0000";
layers = (
{
anchors = (
{
name = bottom;
pos = (268,0);
},
{
name = center;
pos = (268,225);
},
{
name = top;
pos = (268,620);
},
{
name = topright;
pos = (516,800);
}
);
hints = (
{
name = _corner.round;
origin = (0,1);
scale = (2,2);
type = Corner;
},
{
name = _corner.round;
origin = (0,4,0,6);
stem = 1000;
type = Corner;
}
);
layerId = m01;
shapes = (
{
closed = 1;
nodes = (
(218,620,l),
(218,0,l),
(486,0,l),
(486,60,l),
(256,60,l),
(278,35,l),
(278,620,l)
);
},
{
closed = 1;
nodes = (
(30,390,l),
(466,390,l),
(466,450,l),
(30,450,l)
);
}
);
width = 536;
}
);
unicode = 116;
},
{
glyphname = tccurl;
lastChange = "2025-06-30 22:06:58 +0000";
layers = (
{
anchors = (
{
name = bottom;
pos = (268,0);
},
{
name = center;
pos = (268,225);
},
{
name = top;
pos = (268,620);
},
{
name = topright;
pos = (516,800);
}
);
hints = (
{
name = _corner.round;
type = Corner;
},
{
name = _corner.round;
type = Corner;
},
{
name = _corner.round;
type = Corner;
},
{
name = _corner.round;
origin = (0,1);
scale = (2,2);
type = Corner;
},
{
name = _corner.round;
origin = (2,0);
scale = (2,2);
type = Corner;
},
{
name = _corner.round;
origin = (2,1);
scale = (2,2);
type = Corner;
},
{
name = _corner.round;
origin = (0,4,0,6);
stem = 1000;
type = Corner;
},
{
name = _corner.round;
origin = (2,4,2,6);
stem = 1000;
type = Corner;
},
{
name = _corner.round;
origin = (2,6,2,8);
stem = 1000;
type = Corner;
}
);
layerId = m01;
shapes = (
{
closed = 1;
nodes = (
(68,620,l),
(68,0,l),
(350,0,l),
(350,60,l),
(106,60,l),
(128,35,l),
(128,620,l)
);
},
{
closed = 1;
nodes = (
(10,390,l),
(357,390,l),
(357,450,l),
(10,450,l)
);
},
{
closed = 1;
nodes = (
(216,450,l),
(216,0,l),
(431,0,l),
(431,60,l),
(247,60,l),
(276,35,l),
(276,415,l),
(247,390,l),
(472,390,l),
(472,450,l)
);
},
{
pos = (24,0);
ref = _part.curl;
}
);
width = 536;
}
);
unicode = 680;
},
{
glyphname = tesh;
lastChange = "2025-07-01 15:17:55 +0000";
layers = (
{
anchors = (
{
name = bottom;
pos = (268,0);
},
{
name = center;
pos = (268,225);
},
{
name = top;
pos = (268,620);
},
{
name = topright;
pos = (516,800);
}
);
hints = (
{
name = _corner.round;
origin = (0,1);
scale = (2,2);
type = Corner;
},
{
name = _corner.round;
origin = (0,4,0,6);
stem = 1000;
type = Corner;
}
);
layerId = m01;
shapes = (
{
closed = 1;
nodes = (
(178,620,l),
(178,0,l),
(406,0,l),
(406,60,l),
(216,60,l),
(238,35,l),
(238,620,l)
);
},
{
closed = 1;
nodes = (
(50,390,l),
(396,390,l),
(396,450,l),
(50,450,l)
);
},
{
alignment = -1;
angle = 180;
pos = (841,466);
ref = _part.hook;
},
{
closed = 1;
nodes = (
(371,0,l),
(431,0,l),
(431,466,l),
(371,466,l)
);
},
{
alignment = -1;
pos = (-39,0);
ref = _part.hook;
}
);
width = 536;
}
);
unicode = 679;
},
{
glyphname = ts;
lastChange = "2025-06-30 19:01:24 +0000";
layers = (
{
anchors = (
{
name = bottom;
pos = (268,0);
},
{
name = center;
pos = (268,225);
},
{
name = top;
pos = (268,620);
},
{
name = topright;
pos = (516,800);
}
);
hints = (
{
name = _corner.round;
type = Corner;
},
{
name = _corner.round;
type = Corner;
},
{
name = _corner.round;
type = Corner;
},
{
name = _corner.round;
type = Corner;
},
{
name = _corner.round;
type = Corner;
},
{
name = _corner.round;
type = Corner;
},
{
name = _corner.round;
type = Corner;
},
{
name = _corner.round;
type = Corner;
},
{
name = _corner.round;
type = Corner;
},
{
name = _corner.round;
type = Corner;
},
{
name = _corner.round;
type = Corner;
},
{
name = _corner.round;
type = Corner;
},
{
name = _corner.round;
type = Corner;
},
{
name = _corner.round;
type = Corner;
},
{
name = _corner.round;
type = Corner;
},
{
name = _corner.round;
origin = (0,1);
scale = (2,2);
type = Corner;
},
{
name = _corner.round;
options = 2;
origin = (2,0);
scale = (2,2);
type = Corner;
},
{
name = _corner.round;
origin = (2,1);
scale = (2,2);
type = Corner;
},
{
name = _corner.round;
origin = (2,8);
scale = (2,2);
type = Corner;
},
{
name = _corner.round;
options = 2;
origin = (2,9);
scale = (2,2);
type = Corner;
},
{
name = _corner.round;
origin = (0,4,0,6);
stem = 1000;
type = Corner;
},
{
name = _corner.round;
origin = (2,2,2,4);
stem = 1000;
type = Corner;
},
{
name = _corner.round;
origin = (2,4,2,6);
stem = 1000;
type = Corner;
},
{
name = _corner.round;
origin = (2,10,2,12);
stem = 1000;
type = Corner;
},
{
name = _corner.round;
origin = (1,1,2,12);
stem = 1000;
type = Corner;
}
);
layerId = m01;
shapes = (
{
closed = 1;
nodes = (
(88,620,l),
(88,0,l),
(242,0,l),
(242,60,l),
(126,60,l),
(148,35,l),
(148,620,l)
);
},
{
closed = 1;
nodes = (
(10,390,l),
(382,390,l),
(382,450,l),
(10,450,l)
);
},
{
closed = 1;
nodes = (
(250,450,l),
(250,210,l),
(495,210,l),
(466,234,l),
(466,25,l),
(495,60,l),
(242,60,l),
(242,0,l),
(526,0,l),
(526,270,l),
(275,270,l),
(310,224,l),
(310,425,l),
(275,390,l),
(526,390,l),
(526,450,l)
);
}
);
width = 536;
}
);
unicode = 678;
},
{
color = 4;
glyphname = u;
lastChange = "2025-07-02 18:21:57 +0000";
layers = (
{
anchors = (
{
name = bottom;
pos = (268,0);
},
{
name = ogonek;
pos = (482,10);
},
{
name = top;
pos = (268,450);
},
{
name = topright;
pos = (516,450);
}
);
hints = (
{
name = _corner.round;
type = Corner;
},
{
name = _corner.round;
origin = (0,9);
scale = (2,2);
type = Corner;
},
{
name = _corner.round;
origin = (0,5,0,7);
stem = 1000;
type = Corner;
}
);
layerId = m01;
shapes = (
{
closed = 1;
nodes = (
(486,0,l),
(486,450,l),
(426,450,l),
(426,35,l),
(451,60,l),
(85,60,l),
(110,35,l),
(110,450,l),
(50,450,l),
(50,0,l)
);
}
);
width = 536;
}
);
unicode = 117;
},
{
glyphname = ubar;
lastChange = "2025-06-30 17:51:21 +0000";
layers = (
{
layerId = m01;
shapes = (
{
ref = u;
},
{
closed = 1;
nodes = (
(20,229,l),
(520,229,l),
(520,289,l),
(20,289,l)
);
}
);
width = 536;
}
);
metricWidth = v;
unicode = 649;
},
{
glyphname = uhorn;
lastChange = "2025-06-30 20:55:08 +0000";
layers = (
{
hints = (
{
name = _corner.round;
origin = (0,9);
scale = (2,2);
type = Corner;
},
{
name = _corner.round;
origin = (0,5,0,7);
stem = 1000;
type = Corner;
}
);
layerId = m01;
shapes = (
{
closed = 1;
nodes = (
(386,0,l),
(386,450,l),
(326,450,l),
(326,35,l),
(351,60,l),
(45,60,l),
(70,35,l),
(70,450,l),
(10,450,l),
(10,0,l)
);
},
{
alignment = -1;
pos = (-90,-170);
ref = "_part.horn-sm";
}
);
width = 536;
}
);
unicode = 432;
},
{
glyphname = uhornacute;
lastChange = "2025-06-30 18:32:58 +0000";
layers = (
{
anchors = (
{
name = bottom;
pos = (268,0);
},
{
name = ogonek;
pos = (482,10);
},
{
name = top;
pos = (268,450);
},
{
name = topright;
pos = (516,450);
}
);
hints = (
{
name = _corner.round;
origin = (0,9);
scale = (2,2);
type = Corner;
},
{
name = _corner.round;
origin = (0,5,0,7);
stem = 1000;
type = Corner;
}
);
layerId = m01;
shapes = (
{
closed = 1;
nodes = (
(386,0,l),
(386,450,l),
(326,450,l),
(326,35,l),
(351,60,l),
(45,60,l),
(70,35,l),
(70,450,l),
(10,450,l),
(10,0,l)
);
},
{
pos = (-90,-170);
ref = "_part.horn-sm";
}
);
width = 536;
}
);
unicode = 7913;
},
{
glyphname = uhorndotbelow;
lastChange = "2025-06-30 18:34:08 +0000";
layers = (
{
hints = (
{
name = _corner.round;
origin = (0,9);
scale = (2,2);
type = Corner;
},
{
name = _corner.round;
origin = (0,5,0,7);
stem = 1000;
type = Corner;
}
);
layerId = m01;
shapes = (
{
closed = 1;
nodes = (
(386,0,l),
(386,450,l),
(326,450,l),
(326,35,l),
(351,60,l),
(45,60,l),
(70,35,l),
(70,450,l),
(10,450,l),
(10,0,l)
);
},
{
pos = (-90,-170);
ref = "_part.horn-sm";
},
{
pos = (-52,0);
ref = dotbelowcomb;
}
);
width = 536;
}
);
unicode = 7921;
},
{
glyphname = uhorngrave;
lastChange = "2025-06-30 18:34:04 +0000";
layers = (
{
hints = (
{
name = _corner.round;
origin = (0,9);
scale = (2,2);
type = Corner;
},
{
name = _corner.round;
origin = (0,5,0,7);
stem = 1000;
type = Corner;
}
);
layerId = m01;
shapes = (
{
closed = 1;
nodes = (
(386,0,l),
(386,450,l),
(326,450,l),
(326,35,l),
(351,60,l),
(45,60,l),
(70,35,l),
(70,450,l),
(10,450,l),
(10,0,l)
);
},
{
pos = (-90,-170);
ref = "_part.horn-sm";
},
{
pos = (-71,0);
ref = gravecomb;
}
);
width = 536;
}
);
unicode = 7915;
},
{
glyphname = uhornhookabove;
lastChange = "2025-06-30 18:33:59 +0000";
layers = (
{
hints = (
{
name = _corner.round;
origin = (0,9);
scale = (2,2);
type = Corner;
},
{
name = _corner.round;
origin = (0,5,0,7);
stem = 1000;
type = Corner;
}
);
layerId = m01;
shapes = (
{
closed = 1;
nodes = (
(386,0,l),
(386,450,l),
(326,450,l),
(326,35,l),
(351,60,l),
(45,60,l),
(70,35,l),
(70,450,l),
(10,450,l),
(10,0,l)
);
},
{
pos = (-90,-170);
ref = "_part.horn-sm";
},
{
pos = (-45,0);
ref = hookabovecomb;
}
);
width = 536;
}
);
unicode = 7917;
},
{
glyphname = uhorntilde;
lastChange = "2025-06-30 18:34:23 +0000";
layers = (
{
hints = (
{
name = _corner.round;
origin = (0,9);
scale = (2,2);
type = Corner;
},
{
name = _corner.round;
origin = (0,5,0,7);
stem = 1000;
type = Corner;
}
);
layerId = m01;
shapes = (
{
closed = 1;
nodes = (
(386,0,l),
(386,450,l),
(326,450,l),
(326,35,l),
(351,60,l),
(45,60,l),
(70,35,l),
(70,450,l),
(10,450,l),
(10,0,l)
);
},
{
pos = (-90,-170);
ref = "_part.horn-sm";
},
{
pos = (-59,0);
ref = tildecomb;
}
);
width = 600;
}
);
unicode = 7919;
},
{
glyphname = "upsilon-latin";
lastChange = "2025-06-30 17:42:01 +0000";
layers = (
{
hints = (
{
name = _corner.round;
origin = (0,0);
scale = (2,2);
type = Corner;
},
{
name = _corner.round;
origin = (0,1);
scale = (2,2);
type = Corner;
},
{
name = _corner.round;
origin = (0,2);
scale = (2,2);
type = Corner;
},
{
name = _corner.round;
origin = (0,3);
scale = (2,2);
type = Corner;
},
{
name = _corner.round;
origin = (0,5);
type = Corner;
},
{
name = _corner.round;
origin = (0,14);
type = Corner;
},
{
name = _corner.round;
origin = (1,1);
type = Corner;
},
{
name = _corner.round;
options = 1;
origin = (2,0);
scale = (1,-1);
type = Corner;
},
{
name = _corner.round;
options = 1;
origin = (2,2);
scale = (1,-1);
type = Corner;
},
{
name = _corner.round;
origin = (0,6,0,8);
stem = 1000;
type = Corner;
},
{
name = _corner.round;
origin = (0,8,0,10);
stem = 1000;
type = Corner;
},
{
name = _corner.round;
origin = (0,10,0,12);
stem = 1000;
type = Corner;
},
{
name = _corner.round;
origin = (0,12,0,14);
stem = 1000;
type = Corner;
}
);
layerId = m01;
shapes = (
{
closed = 1;
nodes = (
(50,390,l),
(50,0,l),
(486,0,l),
(486,390,l),
(302,390,l),
(302,330,l),
(447,330,l),
(426,355,l),
(426,28,l),
(461,60,l),
(75,60,l),
(110,28,l),
(110,355,l),
(87,330,l),
(234,330,l),
(234,390,l)
);
},
{
closed = 1;
nodes = (
(234,390,l),
(234,450,l),
(25,450,l),
(25,390,l)
);
},
{
closed = 1;
nodes = (
(511,390,l),
(511,450,l),
(302,450,l),
(302,390,l)
);
}
);
width = 536;
}
);
unicode = 650;
},
{
color = 4;
glyphname = v;
lastChange = "2025-07-02 18:21:57 +0000";
layers = (
{
anchors = (
{
name = bottom;
pos = (268,0);
},
{
name = top;
pos = (268,450);
}
);
layerId = m01;
shapes = (
{
closed = 1;
nodes = (
(314,0,l),
(486,450,l),
(423,450,l),
(253,6,l),
(283,6,l),
(113,450,l),
(50,450,l),
(222,0,l)
);
}
);
width = 536;
}
);
unicode = 118;
},
{
glyphname = vhook;
lastChange = "2025-06-30 17:38:48 +0000";
layers = (
{
anchors = (
{
name = bottom;
pos = (268,0);
},
{
name = top;
pos = (268,450);
}
);
layerId = m01;
shapes = (
{
closed = 1;
nodes = (
(314,0,l),
(486,450,l),
(426,450,l),
(256,6,l),
(280,6,l),
(110,450,l),
(50,450,l),
(222,0,l)
);
},
{
alignment = -1;
pos = (896,-16);
ref = _part.hook;
scale = (-1,1);
}
);
width = 536;
}
);
unicode = 651;
},
{
color = 4;
glyphname = w;
lastChange = "2025-07-02 18:21:57 +0000";
layers = (
{
anchors = (
{
name = bottom;
pos = (268,0);
},
{
name = top;
pos = (268,450);
}
);
hints = (
{
name = _corner.round;
options = 1;
origin = (0,2,0,4);
scale = (1,-1);
stem = 1000;
type = Corner;
},
{
name = _corner.round;
options = 1;
origin = (0,9);
scale = (2,-2);
type = Corner;
},
{
name = _corner.round;
options = 1;
origin = (1,8);
scale = (2,-2);
type = Corner;
},
{
name = _corner.round;
options = 1;
origin = (1,9);
scale = (2,-2);
type = Corner;
},
{
name = _corner.round;
options = 1;
origin = (0,0,1,4);
scale = (1,-1);
stem = 1000;
type = Corner;
},
{
name = _corner.round;
options = 2;
origin = (1,2,1,4);
scale = (-1,-1);
stem = 1000;
type = Corner;
},
{
name = _corner.round;
origin = (0,8);
scale = (2,2);
type = Corner;
},
{
name = _corner.round;
origin = (0,4,0,6);
stem = 1000;
type = Corner;
}
);
layerId = m01;
shapes = (
{
closed = 1;
nodes = (
(298,390,l),
(238,390,l),
(238,35,l),
(263,60,l),
(60,60,l),
(90,35,l),
(90,450,l),
(30,450,l),
(30,0,l),
(298,0,l)
);
},
{
closed = 1;
nodes = (
(506,450,l),
(446,450,l),
(446,34,l),
(471,60,l),
(271,60,l),
(298,34,l),
(298,390,l),
(238,390,l),
(238,0,l),
(506,0,l)
);
}
);
width = 536;
}
);
unicode = 119;
},
{
glyphname = whook;
lastChange = "2025-06-30 17:39:38 +0000";
layers = (
{
anchors = (
{
name = bottom;
pos = (248,0);
},
{
name = top;
pos = (248,450);
}
);
hints = (
{
name = _corner.round;
options = 1;
origin = (0,2,0,4);
scale = (1,-1);
stem = 1000;
type = Corner;
},
{
name = _corner.round;
options = 1;
origin = (0,9);
scale = (2,-2);
type = Corner;
},
{
name = _corner.round;
options = 1;
origin = (1,8);
scale = (2,-2);
type = Corner;
},
{
name = _corner.round;
options = 1;
origin = (1,9);
scale = (2,-2);
type = Corner;
},
{
name = _corner.round;
options = 1;
origin = (0,0,1,4);
scale = (1,-1);
stem = 1000;
type = Corner;
},
{
name = _corner.round;
options = 2;
origin = (1,2,1,4);
scale = (-1,-1);
stem = 1000;
type = Corner;
},
{
name = _corner.round;
origin = (0,8);
scale = (2,2);
type = Corner;
},
{
name = _corner.round;
origin = (0,4,0,6);
stem = 1000;
type = Corner;
}
);
layerId = m01;
shapes = (
{
closed = 1;
nodes = (
(268,390,l),
(208,390,l),
(208,35,l),
(233,60,l),
(40,60,l),
(70,35,l),
(70,450,l),
(10,450,l),
(10,0,l),
(268,0,l)
);
},
{
closed = 1;
nodes = (
(466,450,l),
(406,450,l),
(406,34,l),
(431,60,l),
(241,60,l),
(268,34,l),
(268,390,l),
(208,390,l),
(208,0,l),
(466,0,l)
);
},
{
alignment = -1;
pos = (-4,-16);
ref = _part.hook;
}
);
width = 536;
}
);
unicode = 11379;
},
{
color = 4;
glyphname = x;
lastChange = "2025-07-02 18:21:57 +0000";
layers = (
{
anchors = (
{
name = bottom;
pos = (268,0);
},
{
name = top;
pos = (268,450);
}
);
layerId = m01;
shapes = (
{
closed = 1;
nodes = (
(76,450,l),
(412,0,l),
(483,0,l),
(147,450,l)
);
},
{
closed = 1;
nodes = (
(287,212,l),
(456,450,l),
(385,450,l),
(253,272,l)
);
},
{
closed = 1;
nodes = (
(255,280,l),
(53,0,l),
(124,0,l),
(294,232,l)
);
}
);
width = 536;
}
);
unicode = 120;
},
{
color = 4;
glyphname = y;
lastChange = "2025-07-02 18:21:57 +0000";
layers = (
{
anchors = (
{
name = bottom;
pos = (268,0);
},
{
name = top;
pos = (268,450);
}
);
hints = (
{
name = _corner.round;
origin = (0,5);
scale = (2,2);
type = Corner;
},
{
name = _corner.round;
origin = (1,4);
scale = (2,2);
type = Corner;
},
{
name = _corner.round;
origin = (1,0,1,2);
stem = 1000;
type = Corner;
},
{
name = _corner.round;
origin = (0,1,0,3);
stem = 1000;
type = Corner;
}
);
layerId = m01;
shapes = (
{
closed = 1;
nodes = (
(447,60,l),
(86,60,l),
(111,35,l),
(110,450,l),
(50,450,l),
(51,0,l),
(447,0,l)
);
},
{
closed = 1;
nodes = (
(426,-165,l),
(447,-140,l),
(50,-140,l),
(50,-200,l),
(486,-200,l),
(486,450,l),
(426,450,l)
);
}
);
width = 536;
}
);
unicode = 121;
},
{
color = 4;
glyphname = z;
lastChange = "2025-07-02 18:21:57 +0000";
layers = (
{
anchors = (
{
name = bottom;
pos = (268,0);
},
{
name = center;
pos = (268,225);
},
{
name = top;
pos = (268,450);
}
);
layerId = m01;
shapes = (
{
closed = 1;
nodes = (
(61,0,l),
(496,0,l),
(496,60,l),
(115,60,l),
(110,25,l),
(465,390,l),
(465,450,l),
(80,450,l),
(80,390,l),
(416,390,l),
(416,425,l),
(61,60,l)
);
}
);
width = 536;
}
);
unicode = 122;
},
{
glyphname = zcurl;
lastChange = "2025-06-30 21:55:41 +0000";
layers = (
{
anchors = (
{
name = bottom;
pos = (268,0);
},
{
name = center;
pos = (268,225);
},
{
name = top;
pos = (268,450);
}
);
layerId = m01;
shapes = (
{
closed = 1;
nodes = (
(61,0,l),
(407,0,l),
(407,60,l),
(115,60,l),
(110,25,l),
(465,390,l),
(465,450,l),
(80,450,l),
(80,390,l),
(416,390,l),
(416,425,l),
(61,60,l)
);
},
{
ref = _part.curl;
}
);
width = 536;
}
);
unicode = 657;
},
{
glyphname = zmiddletilde;
lastChange = "2025-06-30 21:11:41 +0000";
layers = (
{
anchors = (
{
name = top;
pos = (268,304);
}
);
layerId = m01;
shapes = (
{
ref = z;
},
{
attr = {
identifier = ID0x31f142f90;
strokeWidth = 50;
};
closed = 0;
nodes = (
(102,168,l),
(102,242,o),
(132,279,o),
(184,279,cs),
(294,279,o),
(234,168,o),
(343,168,cs),
(390,168,o),
(423,199,o),
(423,279,cs)
);
}
);
width = 536;
}
);
unicode = 7542;
},
{
glyphname = saltillo;
lastChange = "2025-06-30 02:00:31 +0000";
layers = (
{
layerId = m01;
shapes = (
{
closed = 1;
nodes = (
(274,450,l),
(324,450,l),
(329,709,l),
(269,709,l)
);
}
);
width = 600;
}
);
unicode = 42892;
},
{
glyphname = fi;
lastChange = "2025-07-01 19:28:08 +0000";
layers = (
{
anchors = (
{
name = caret_1;
pos = (454.5,0);
}
);
hints = (
{
name = _corner.round;
origin = (0,0);
scale = (2,2);
type = Corner;
},
{
name = _corner.round;
origin = (0,3,0,5);
stem = 1000;
type = Corner;
},
{
name = _corner.round;
origin = (3,1);
scale = (2,2);
type = Corner;
},
{
name = _corner.round;
origin = (3,4,3,6);
stem = 1000;
type = Corner;
}
);
layerId = m01;
shapes = (
{
closed = 1;
nodes = (
(246,619,l),
(246,0,l),
(306,0,l),
(306,590,l),
(291,559,l),
(566,559,l),
(566,619,l)
);
},
{
closed = 1;
nodes = (
(443,60,l),
(443,0,l),
(1032,0,l),
(1032,60,l)
);
},
{
closed = 1;
nodes = (
(833,486,o),
(851,504,o),
(851,526,cs),
(851,548,o),
(833,566,o),
(811,566,cs),
(789,566,o),
(771,548,o),
(771,526,cs),
(771,504,o),
(789,486,o),
(811,486,cs)
);
},
{
closed = 1;
nodes = (
(844,25,l),
(844,450,l),
(30,450,l),
(30,390,l),
(814,390,l),
(784,421,l),
(784,25,l)
);
}
);
width = 1072;
}
);
unicode = 64257;
},
{
glyphname = fl;
lastChange = "2025-07-01 19:29:21 +0000";
layers = (
{
anchors = (
{
name = caret_1;
pos = (451,0);
}
);
hints = (
{
name = _corner.round;
origin = (0,0);
scale = (2,2);
type = Corner;
},
{
name = _corner.round;
origin = (0,3);
type = Corner;
},
{
name = _corner.round;
origin = (0,8);
scale = (2,2);
type = Corner;
},
{
name = _corner.round;
origin = (0,4,0,6);
stem = 1000;
type = Corner;
}
);
layerId = m01;
shapes = (
{
closed = 1;
nodes = (
(266,620,l),
(266,0,l),
(326,0,l),
(326,560,l),
(819,560,l),
(784,590,l),
(784,28,l),
(844,28,l),
(844,620,l)
);
},
{
closed = 1;
nodes = (
(50,390,l),
(540,390,l),
(540,450,l),
(50,450,l)
);
},
{
closed = 1;
nodes = (
(596,60,l),
(596,0,l),
(1032,0,l),
(1032,60,l)
);
}
);
width = 1072;
}
);
unicode = 64258;
},
{
glyphname = ordfeminine;
lastChange = "2025-06-27 15:01:09 +0000";
layers = (
{
anchors = (
{
name = bottom;
pos = (169.621,466);
},
{
name = ogonek;
pos = (305.066,472.597);
},
{
name = top;
pos = (169.621,762.869);
}
);
hints = (
{
name = _corner.round;
origin = (0,4);
scale = (1.6,1.7);
type = Corner;
},
{
name = _corner.round;
origin = (0,1);
scale = (1.6,1.7);
type = Corner;
},
{
name = _corner.round;
origin = (0,2);
scale = (1.6,1.7);
type = Corner;
},
{
name = _corner.round;
origin = (0,1);
scale = (1.26583,1.31942);
type = Corner;
},
{
name = _corner.round;
origin = (0,11,0,13);
scale = (0.7,0.7);
stem = 1000;
type = Corner;
},
{
name = _corner.round;
origin = (0,13);
scale = (0.7,0.7);
stem = 1000;
type = Corner;
},
{
name = _corner.round;
origin = (0,7,0,9);
scale = (0.7,0.7);
stem = 1000;
type = Corner;
}
);
layerId = m01;
shapes = (
{
closed = 1;
nodes = (
(377,690,l),
(122,690,l),
(122,466,l),
(398,466,l),
(398,800,l),
(141,800,l),
(141,740,l),
(377,740,l),
(338,767,l),
(338,491,l),
(377,526,l),
(144,526,l),
(182,491,l),
(182,642,l),
(144,630,l),
(377,630,l)
);
}
);
width = 536;
}
);
unicode = 170;
},
{
glyphname = ordmasculine;
lastChange = "2025-06-27 15:02:04 +0000";
layers = (
{
anchors = (
{
name = bottom;
pos = (198.625,466);
},
{
name = center;
pos = (198.625,632.756);
},
{
name = ogonek;
pos = (357.229,473.411);
},
{
name = top;
pos = (198.625,799.513);
},
{
name = topright;
pos = (382.428,799.513);
}
);
hints = (
{
name = _corner.round;
origin = (0,3);
scale = (1.6,1.6);
type = Corner;
},
{
name = _corner.round;
origin = (0,0);
scale = (1.6,1.6);
type = Corner;
},
{
name = _corner.round;
options = 2;
origin = (0,1);
scale = (1.6,1.6);
type = Corner;
},
{
name = _corner.round;
options = 2;
origin = (0,2);
scale = (1.6,1.6);
type = Corner;
},
{
name = _corner.round;
origin = (1,0,1,2);
scale = (0.7,0.7);
stem = 1000;
type = Corner;
},
{
name = _corner.round;
origin = (1,0,1,6);
scale = (0.7,0.7);
stem = 1000;
type = Corner;
},
{
name = _corner.round;
origin = (1,2,1,4);
scale = (0.7,0.7);
stem = 1000;
type = Corner;
},
{
name = _corner.round;
origin = (1,4,1,6);
scale = (0.7,0.7);
stem = 1000;
type = Corner;
}
);
layerId = m01;
shapes = (
{
closed = 1;
nodes = (
(37,800,l),
(37,466,l),
(360,466,l),
(360,800,l)
);
},
{
closed = 1;
nodes = (
(97,774,l),
(64,740,l),
(334,740,l),
(300,774,l),
(300,492,l),
(334,526,l),
(64,526,l),
(97,492,l)
);
}
);
width = 397;
}
);
unicode = 186;
},
{
glyphname = clickalveolar;
lastChange = "2025-06-30 22:14:56 +0000";
layers = (
{
layerId = m01;
shapes = (
{
pos = (0,-22);
ref = bar;
scale = (1,0.8022);
},
{
closed = 1;
nodes = (
(127,390,l),
(407,390,l),
(407,450,l),
(127,450,l)
);
},
{
closed = 1;
nodes = (
(127,240,l),
(407,240,l),
(407,300,l),
(127,300,l)
);
}
);
width = 536;
}
);
unicode = 450;
},
{
glyphname = "Be-cy";
lastChange = "2025-07-02 18:35:26 +0000";
layers = (
{
layerId = m01;
shapes = (
{
ref = b;
},
{
closed = 1;
nodes = (
(89,560,l),
(446,560,l),
(446,620,l),
(89,620,l)
);
}
);
width = 536;
}
);
unicode = 1041;
},
{
glyphname = "Ge-cy";
lastChange = "2025-07-02 20:39:01 +0000";
layers = (
{
anchors = (
{
name = bottom;
pos = (268,0);
},
{
name = bottomright;
pos = (516,0);
},
{
name = top;
pos = (268,620);
}
);
layerId = m01;
shapes = (
{
closed = 1;
nodes = (
(110,0,l),
(110,585,l),
(82,560,l),
(486,560,l),
(486,620,l),
(50,620,l),
(50,0,l)
);
}
);
width = 536;
}
);
unicode = 1043;
},
{
glyphname = "Geupturn-cy";
lastChange = "2025-07-02 20:27:17 +0000";
layers = (
{
layerId = m01;
shapes = (
{
closed = 1;
nodes = (
(33,620,l),
(33,0,l),
(93,0,l),
(93,585,l),
(65,560,l),
(378,560,l),
(378,620,l)
);
},
{
angle = 180;
pos = (913,1180);
ref = _part.hook;
}
);
width = 536;
}
);
unicode = 1168;
},
{
glyphname = "Gedescender-cy";
lastChange = "2025-07-03 16:03:00 +0000";
layers = (
{
layerId = m01;
shapes = (
{
closed = 1;
nodes = (
(110,0,l),
(110,585,l),
(82,560,l),
(486,560,l),
(486,620,l),
(50,620,l),
(50,0,l)
);
},
{
alignment = -1;
pos = (-426,620);
ref = "_part.horn-sm";
scale = (1,-1);
}
);
width = 536;
}
);
unicode = 1270;
},
{
glyphname = "Gestroke-cy";
lastChange = "2025-07-03 01:06:33 +0000";
layers = (
{
anchors = (
{
name = bottom;
pos = (268,0);
},
{
name = top;
pos = (268,620);
}
);
layerId = m01;
shapes = (
{
closed = 1;
nodes = (
(70,0,l),
(130,0,l),
(130,595,l),
(101,560,l),
(506,560,l),
(506,620,l),
(70,620,l)
);
},
{
closed = 1;
nodes = (
(30,330,l),
(430,330,l),
(430,390,l),
(30,390,l)
);
}
);
width = 536;
}
);
unicode = 1170;
},
{
glyphname = "Gemiddlehook-cy";
lastChange = "2025-07-03 16:34:19 +0000";
layers = (
{
hints = (
{
name = _corner.round;
origin = (1,6);
scale = (2,2);
type = Corner;
},
{
name = _corner.round;
origin = (2,6);
scale = (2,2);
type = Corner;
},
{
name = _corner.round;
origin = (1,2,1,4);
stem = 1000;
type = Corner;
},
{
name = _corner.round;
origin = (2,2,2,4);
stem = 1000;
type = Corner;
}
);
layerId = m01;
shapes = (
{
closed = 1;
nodes = (
(50,620,l),
(50,0,l),
(110,0,l),
(110,620,l)
);
},
{
closed = 1;
nodes = (
(80,450,l),
(80,390,l),
(451,390,l),
(426,415,l),
(426,154,l),
(486,154,l),
(486,450,l)
);
},
{
closed = 1;
nodes = (
(486,154,l),
(426,154,l),
(426,35,l),
(451,60,l),
(361,60,l),
(361,0,l),
(486,0,l)
);
},
{
closed = 1;
nodes = (
(96,560,l),
(446,560,l),
(446,620,l),
(96,620,l)
);
}
);
width = 600;
}
);
unicode = 1172;
},
{
glyphname = "De-cy";
lastChange = "2025-07-02 20:34:02 +0000";
layers = (
{
layerId = m01;
shapes = (
{
alignment = -1;
pos = (936,-560);
ref = _part.hook;
scale = (-1,1);
},
{
alignment = -1;
pos = (-400,-560);
ref = _part.hook;
},
{
closed = 1;
nodes = (
(135,0,l),
(401,0,l),
(401,60,l),
(135,60,l)
);
},
{
closed = 1;
nodes = (
(341,32,l),
(401,32,l),
(401,620,l),
(341,620,l)
);
},
{
closed = 1;
nodes = (
(156,560,l),
(401,560,l),
(401,620,l),
(156,620,l)
);
},
{
attr = {
strokeWidth = 60;
};
closed = 0;
nodes = (
(186,608,l),
(186,468,o),
(185,231,o),
(185,196,cs),
(185,142,o),
(159,86,o),
(117,26,cs)
);
}
);
width = 536;
}
);
unicode = 1044;
},
{
glyphname = "Zhe-cy";
lastChange = "2025-07-02 18:34:39 +0000";
layers = (
{
anchors = (
{
name = bottom;
pos = (266,0);
},
{
name = top;
pos = (266,620);
}
);
layerId = m01;
shapes = (
{
closed = 1;
nodes = (
(234,620,l),
(234,0,l),
(294,0,l),
(294,620,l)
);
},
{
closed = 1;
nodes = (
(17,0,l),
(87,0,l),
(282,282,l),
(247,343,l)
);
},
{
closed = 1;
nodes = (
(252,333,l),
(94,620,l),
(26,620,l),
(247,218,l)
);
},
{
closed = 1;
nodes = (
(254,282,l),
(449,0,l),
(519,0,l),
(289,343,l)
);
},
{
closed = 1;
nodes = (
(510,620,l),
(442,620,l),
(284,333,l),
(289,218,l)
);
}
);
width = 536;
}
);
unicode = 1046;
},
{
glyphname = "Ze-cy";
lastChange = "2025-07-03 16:00:13 +0000";
layers = (
{
anchors = (
{
name = bottom;
pos = (268,0);
},
{
name = top;
pos = (268,620);
}
);
hints = (
{
name = _corner.round;
origin = (0,6);
scale = (2,2);
type = Corner;
},
{
name = _corner.round;
origin = (0,3);
type = Corner;
},
{
name = _corner.round;
options = 2;
origin = (0,2);
scale = (-1,1);
type = Corner;
},
{
name = _corner.round;
origin = (0,7);
scale = (2,2);
type = Corner;
},
{
name = _corner.round;
options = 2;
origin = (1,4);
scale = (-1,1);
type = Corner;
},
{
name = _corner.round;
origin = (1,3);
type = Corner;
},
{
name = _corner.round;
origin = (1,0);
scale = (2,2);
type = Corner;
},
{
name = _corner.round;
origin = (1,7);
scale = (2,2);
type = Corner;
}
);
layerId = m01;
shapes = (
{
closed = 1;
nodes = (
(50,620,l),
(50,560,l),
(426,560,l),
(426,390,l),
(126,390,l),
(126,330,l),
(486,330,l),
(486,620,l)
);
},
{
closed = 1;
nodes = (
(486,390,l),
(126,390,l),
(126,330,l),
(426,330,l),
(426,60,l),
(50,60,l),
(50,0,l),
(486,0,l)
);
}
);
width = 536;
}
);
unicode = 1047;
},
{
glyphname = "El-cy";
lastChange = "2025-07-02 23:42:03 +0000";
layers = (
{
layerId = m01;
shapes = (
{
angle = 180;
pos = (565,620);
ref = _part.hook;
},
{
closed = 1;
nodes = (
(95,154,l),
(155,154,l),
(155,591,l),
(127,560,l),
(453,560,l),
(426,591,l),
(426,0,l),
(486,0,l),
(486,620,l),
(95,620,l)
);
}
);
width = 536;
}
);
unicode = 1051;
},
{
glyphname = "Pe-cy";
lastChange = "2025-07-02 18:24:57 +0000";
layers = (
{
layerId = m01;
shapes = (
{
closed = 1;
nodes = (
(50,620,l),
(50,0,l),
(110,0,l),
(110,585,l),
(82,560,l),
(454,560,l),
(426,585,l),
(426,0,l),
(486,0,l),
(486,620,l)
);
}
);
width = 536;
}
);
unicode = 1055;
},
{
glyphname = "U-cy";
lastChange = "2025-07-02 18:26:55 +0000";
layers = (
{
anchors = (
{
name = bottom;
pos = (268,170);
},
{
name = top;
pos = (268,620);
}
);
hints = (
{
name = _corner.round;
origin = (0,5);
scale = (2,2);
type = Corner;
},
{
name = _corner.round;
origin = (1,4);
scale = (2,2);
type = Corner;
},
{
name = _corner.round;
origin = (1,0,1,2);
stem = 1000;
type = Corner;
},
{
name = _corner.round;
origin = (0,1,0,3);
stem = 1000;
type = Corner;
}
);
layerId = m01;
shapes = (
{
closed = 1;
nodes = (
(447,260,l),
(86,260,l),
(111,235,l),
(110,620,l),
(50,620,l),
(51,200,l),
(447,200,l)
);
},
{
closed = 1;
nodes = (
(426,35,l),
(447,60,l),
(50,60,l),
(50,0,l),
(486,0,l),
(486,620,l),
(426,620,l)
);
}
);
width = 536;
}
);
unicode = 1059;
},
{
glyphname = "Ef-cy";
lastChange = "2025-07-02 20:33:25 +0000";
layers = (
{
anchors = (
{
name = bottom;
pos = (268,0);
},
{
name = center;
pos = (268,310);
},
{
name = ogonek;
pos = (482,10);
},
{
name = top;
pos = (268,620);
},
{
name = topleft;
pos = (20,620);
},
{
name = topright;
pos = (516,620);
}
);
hints = (
{
name = _corner.round;
origin = (0,0);
scale = (2,2);
type = Corner;
},
{
name = _corner.round;
origin = (0,1);
scale = (2,2);
type = Corner;
},
{
name = _corner.round;
origin = (0,2);
scale = (2,2);
type = Corner;
},
{
name = _corner.round;
origin = (0,3);
scale = (2,2);
type = Corner;
},
{
name = _corner.round;
origin = (1,0,1,2);
stem = 1000;
type = Corner;
},
{
name = _corner.round;
origin = (1,0,1,6);
stem = 1000;
type = Corner;
},
{
name = _corner.round;
origin = (1,2,1,4);
stem = 1000;
type = Corner;
},
{
name = _corner.round;
origin = (1,4,1,6);
stem = 1000;
type = Corner;
}
);
layerId = m01;
shapes = (
{
closed = 1;
nodes = (
(20,50,l),
(516,50,l),
(516,570,l),
(20,570,l)
);
},
{
closed = 1;
nodes = (
(81,522,l),
(56,510,l),
(480,510,l),
(457,522,l),
(457,99,l),
(480,110,l),
(56,110,l),
(81,99,l)
);
},
{
closed = 1;
nodes = (
(238,0,l),
(298,0,l),
(298,620,l),
(238,620,l)
);
}
);
width = 536;
}
);
unicode = 1060;
},
{
glyphname = "Tse-cy";
lastChange = "2025-07-02 20:03:56 +0000";
layers = (
{
layerId = m01;
shapes = (
{
closed = 1;
nodes = (
(53,60,l),
(80,25,l),
(80,620,l),
(20,620,l),
(20,0,l),
(406,0,l),
(406,620,l),
(346,620,l),
(346,25,l),
(377,60,l)
);
},
{
pos = (941,-560);
ref = _part.hook;
scale = (-1,1);
}
);
width = 536;
}
);
unicode = 1062;
},
{
glyphname = "Sha-cy";
lastChange = "2025-07-02 20:01:00 +0000";
layers = (
{
layerId = m01;
shapes = (
{
closed = 1;
nodes = (
(298,25,l),
(298,620,l),
(238,620,l),
(238,25,l)
);
},
{
closed = 1;
nodes = (
(63,60,l),
(90,25,l),
(90,620,l),
(30,620,l),
(30,0,l),
(506,0,l),
(506,620,l),
(446,620,l),
(446,25,l),
(477,60,l)
);
}
);
width = 536;
}
);
unicode = 1064;
},
{
glyphname = "Shcha-cy";
lastChange = "2025-07-02 20:03:32 +0000";
layers = (
{
layerId = m01;
shapes = (
{
closed = 1;
nodes = (
(238,25,l),
(238,620,l),
(178,620,l),
(178,25,l)
);
},
{
closed = 1;
nodes = (
(53,60,l),
(80,25,l),
(80,620,l),
(20,620,l),
(20,0,l),
(406,0,l),
(406,620,l),
(346,620,l),
(346,25,l),
(377,60,l)
);
},
{
pos = (941,-560);
ref = _part.hook;
scale = (-1,1);
}
);
width = 536;
}
);
unicode = 1065;
},
{
glyphname = "Dzhe-cy";
lastChange = "2025-07-02 23:40:58 +0000";
layers = (
{
layerId = m01;
shapes = (
{
closed = 1;
nodes = (
(486,620,l),
(426,620,l),
(426,35,l),
(454,60,l),
(82,60,l),
(110,35,l),
(110,620,l),
(50,620,l),
(50,0,l),
(486,0,l)
);
},
{
closed = 1;
nodes = (
(234,-110,l),
(294,-110,l),
(294,29,l),
(234,29,l)
);
}
);
width = 536;
}
);
unicode = 1039;
},
{
glyphname = "Yeru-cy";
lastChange = "2025-07-02 20:25:47 +0000";
layers = (
{
anchors = (
{
name = bottom;
pos = (268,0);
},
{
name = center;
pos = (134,640);
},
{
name = top;
pos = (268,450);
}
);
hints = (
{
name = _corner.round;
origin = (0,10);
scale = (2,2);
type = Corner;
},
{
name = _corner.round;
origin = (0,11);
scale = (2,2);
type = Corner;
},
{
name = _corner.round;
origin = (0,1,0,3);
stem = 1000;
type = Corner;
},
{
name = _corner.round;
origin = (0,3,0,5);
stem = 1000;
type = Corner;
}
);
layerId = m01;
shapes = (
{
closed = 1;
nodes = (
(68,390,l),
(349,390,l),
(331,414,l),
(331,36,l),
(349,60,l),
(68,60,l),
(95,36,l),
(95,620,l),
(35,620,l),
(35,0,l),
(391,0,l),
(391,450,l),
(68,450,l)
);
},
{
closed = 1;
nodes = (
(441,0,l),
(501,0,l),
(501,620,l),
(441,620,l)
);
}
);
width = 536;
}
);
unicode = 1067;
},
{
glyphname = "Hardsign-cy";
lastChange = "2025-07-02 18:37:33 +0000";
layers = (
{
layerId = m01;
shapes = (
{
pos = (30,0);
ref = b;
},
{
closed = 1;
nodes = (
(10,560,l),
(110,560,l),
(110,620,l),
(10,620,l)
);
}
);
width = 536;
}
);
unicode = 1066;
},
{
glyphname = "Lje-cy";
lastChange = "2025-07-02 23:44:13 +0000";
layers = (
{
hints = (
{
name = _corner.round;
type = Corner;
},
{
name = _corner.round;
type = Corner;
},
{
name = _corner.round;
origin = (0,10);
scale = (2,2);
type = Corner;
},
{
name = _corner.round;
origin = (0,11);
scale = (2,2);
type = Corner;
},
{
name = _corner.round;
origin = (0,3,0,5);
stem = 1000;
type = Corner;
},
{
name = _corner.round;
origin = (0,1,0,3);
stem = 1000;
type = Corner;
}
);
layerId = m01;
shapes = (
{
closed = 1;
nodes = (
(263,390,l),
(474,390,l),
(456,414,l),
(456,36,l),
(474,60,l),
(263,60,l),
(290,36,l),
(290,620,l),
(230,620,l),
(230,0,l),
(516,0,l),
(516,450,l),
(263,450,l)
);
},
{
angle = 180;
pos = (545,620);
ref = _part.hook;
},
{
closed = 1;
nodes = (
(75,154,l),
(135,154,l),
(135,591,l),
(107,560,l),
(286,560,l),
(286,620,l),
(75,620,l)
);
}
);
width = 536;
}
);
unicode = 1033;
},
{
glyphname = "Nje-cy";
lastChange = "2025-07-02 23:45:58 +0000";
layers = (
{
anchors = (
{
name = bottom;
pos = (268,0);
},
{
name = center;
pos = (268,465);
},
{
name = top;
pos = (268,620);
},
{
name = topleft;
pos = (20,620);
}
);
hints = (
{
name = _corner.round;
origin = (0,10);
scale = (2,2);
type = Corner;
},
{
name = _corner.round;
origin = (0,11);
scale = (2,2);
type = Corner;
},
{
name = _corner.round;
origin = (0,1,0,3);
stem = 1000;
type = Corner;
},
{
name = _corner.round;
origin = (0,3,0,5);
stem = 1000;
type = Corner;
}
);
layerId = m01;
shapes = (
{
closed = 1;
nodes = (
(61,390,l),
(464,390,l),
(446,414,l),
(446,36,l),
(464,60,l),
(281,60,l),
(308,36,l),
(308,620,l),
(248,620,l),
(248,0,l),
(506,0,l),
(506,450,l),
(61,450,l)
);
},
{
closed = 1;
nodes = (
(30,0,l),
(90,0,l),
(90,620,l),
(30,620,l)
);
}
);
width = 536;
}
);
unicode = 1034;
},
{
glyphname = "Ereversed-cy";
lastChange = "2025-07-02 20:26:20 +0000";
layers = (
{
layerId = m01;
shapes = (
{
pos = (536,0);
ref = C;
scale = (-1,1);
},
{
closed = 1;
nodes = (
(185,280,l),
(442,280,l),
(442,340,l),
(185,340,l)
);
}
);
width = 536;
}
);
unicode = 1069;
},
{
glyphname = "Tshe-cy";
lastChange = "2025-07-02 23:47:34 +0000";
layers = (
{
hints = (
{
name = _corner.round;
origin = (1,6);
scale = (2,2);
type = Corner;
},
{
name = _corner.round;
origin = (1,2,1,4);
stem = 1000;
type = Corner;
}
);
layerId = m01;
shapes = (
{
closed = 1;
nodes = (
(90,620,l),
(90,0,l),
(150,0,l),
(150,620,l)
);
},
{
closed = 1;
nodes = (
(120,450,l),
(120,390,l),
(451,390,l),
(426,415,l),
(426,0,l),
(486,0,l),
(486,450,l)
);
},
{
closed = 1;
nodes = (
(10,560,l),
(446,560,l),
(446,620,l),
(10,620,l)
);
}
);
width = 536;
}
);
unicode = 1035;
},
{
glyphname = "Yu-cy";
lastChange = "2025-07-02 19:54:32 +0000";
layers = (
{
anchors = (
{
name = bottom;
pos = (268,0);
},
{
name = center;
pos = (268,310);
},
{
name = ogonek;
pos = (482,10);
},
{
name = top;
pos = (268,620);
},
{
name = topleft;
pos = (20,620);
},
{
name = topright;
pos = (516,620);
}
);
hints = (
{
name = _corner.round;
origin = (0,1);
scale = (2,2);
type = Corner;
},
{
name = _corner.round;
origin = (0,2);
scale = (2,2);
type = Corner;
},
{
name = _corner.round;
origin = (0,0);
scale = (2,2);
type = Corner;
},
{
name = _corner.round;
origin = (0,3);
scale = (2,2);
type = Corner;
},
{
name = _corner.round;
origin = (1,0,1,2);
stem = 1000;
type = Corner;
},
{
name = _corner.round;
origin = (1,0,1,6);
stem = 1000;
type = Corner;
},
{
name = _corner.round;
origin = (1,2,1,4);
stem = 1000;
type = Corner;
},
{
name = _corner.round;
origin = (1,4,1,6);
stem = 1000;
type = Corner;
}
);
layerId = m01;
shapes = (
{
closed = 1;
nodes = (
(155,0,l),
(501,0,l),
(501,620,l),
(155,620,l)
);
},
{
closed = 1;
nodes = (
(215,582,l),
(200,560,l),
(464,560,l),
(441,582,l),
(441,39,l),
(464,60,l),
(200,60,l),
(215,39,l)
);
},
{
closed = 1;
nodes = (
(35,0,l),
(95,0,l),
(95,620,l),
(35,620,l)
);
},
{
closed = 1;
nodes = (
(73,280,l),
(205,280,l),
(205,340,l),
(73,340,l)
);
}
);
width = 536;
}
);
unicode = 1070;
},
{
glyphname = "Dje-cy";
lastChange = "2025-07-02 23:49:24 +0000";
layers = (
{
hints = (
{
name = _corner.round;
origin = (1,6);
scale = (2,2);
type = Corner;
},
{
name = _corner.round;
origin = (1,2,1,4);
stem = 1000;
type = Corner;
}
);
layerId = m01;
shapes = (
{
closed = 1;
nodes = (
(90,620,l),
(90,0,l),
(150,0,l),
(150,620,l)
);
},
{
closed = 1;
nodes = (
(120,450,l),
(120,390,l),
(451,390,l),
(426,415,l),
(426,154,l),
(486,154,l),
(486,450,l)
);
},
{
closed = 1;
nodes = (
(10,560,l),
(446,560,l),
(446,620,l),
(10,620,l)
);
},
{
angle = 180;
pos = (896,620);
ref = _part.hook;
}
);
width = 536;
}
);
unicode = 1026;
},
{
glyphname = "Yat-cy";
lastChange = "2025-07-03 15:46:07 +0000";
layers = (
{
layerId = m01;
shapes = (
{
alignment = -1;
pos = (30,0);
ref = b;
},
{
closed = 1;
nodes = (
(10,512,l),
(330,512,l),
(330,572,l),
(10,572,l)
);
}
);
width = 536;
}
);
unicode = 1122;
},
{
glyphname = "Fita-cy";
lastChange = "2025-07-03 15:45:36 +0000";
layers = (
{
layerId = m01;
shapes = (
{
ref = O;
},
{
attr = {
identifier = ID0x31f142f90;
strokeWidth = 50;
};
closed = 0;
nodes = (
(79,285,l),
(89,298,o),
(103,308,o),
(118,314,cs),
(222,351,o),
(296,260,o),
(400,297,cs),
(417,304,o),
(438,317,o),
(455,335,cs)
);
}
);
width = 536;
}
);
unicode = 1138;
},
{
glyphname = "Izhitsa-cy";
lastChange = "2025-07-03 15:35:41 +0000";
layers = (
{
anchors = (
{
name = bottom;
pos = (268,0);
},
{
name = top;
pos = (268,620);
}
);
hints = (
{
name = _corner.round;
origin = (1,3);
scale = (2,2);
type = Corner;
},
{
name = _corner.round;
origin = (1,0);
type = Corner;
}
);
layerId = m01;
shapes = (
{
closed = 1;
nodes = (
(284,0,l),
(413,472,l),
(351,472,l),
(226,17,l),
(248,17,l),
(81,620,l),
(19,620,l),
(190,0,l)
);
},
{
closed = 1;
nodes = (
(438,566,l),
(501,566,l),
(517,626,l),
(392,626,l),
(351,472,l),
(413,472,l)
);
}
);
width = 536;
}
);
unicode = 1140;
},
{
glyphname = "Zhedescender-cy";
lastChange = "2025-07-03 15:37:13 +0000";
layers = (
{
layerId = m01;
shapes = (
{
closed = 1;
nodes = (
(199,620,l),
(199,0,l),
(259,0,l),
(259,620,l)
);
},
{
closed = 1;
nodes = (
(12,0,l),
(82,0,l),
(247,282,l),
(212,343,l)
);
},
{
closed = 1;
nodes = (
(217,333,l),
(89,620,l),
(21,620,l),
(212,218,l)
);
},
{
closed = 1;
nodes = (
(219,282,l),
(384,0,l),
(454,0,l),
(254,343,l)
);
},
{
closed = 1;
nodes = (
(445,620,l),
(377,620,l),
(249,333,l),
(254,218,l)
);
},
{
pos = (-92,620);
ref = "_part.horn-sm";
scale = (1,-1);
}
);
width = 536;
}
);
unicode = 1174;
},
{
glyphname = "Kadescender-cy";
lastChange = "2025-07-03 15:38:49 +0000";
layers = (
{
anchors = (
{
name = bottom;
pos = (228,0);
},
{
name = top;
pos = (228,620);
}
);
layerId = m01;
shapes = (
{
closed = 1;
nodes = (
(40,0,l),
(101,0,l),
(101,620,l),
(40,620,l)
);
},
{
closed = 1;
nodes = (
(164,332,l),
(377,0,l),
(449,0,l),
(201,393,l)
);
},
{
closed = 1;
nodes = (
(406,620,l),
(334,620,l),
(49,232,l),
(48,123,l)
);
},
{
alignment = -1;
pos = (-99,620);
ref = "_part.horn-sm";
scale = (1,-1);
}
);
width = 536;
}
);
unicode = 1178;
},
{
glyphname = "Kaverticalstroke-cy";
lastChange = "2025-07-03 16:36:47 +0000";
layers = (
{
layerId = m01;
shapes = (
{
closed = 1;
nodes = (
(159,143,l),
(219,143,l),
(219,542,l),
(159,542,l)
);
},
{
pos = (-12,0);
ref = K;
}
);
width = 536;
}
);
unicode = 1180;
},
{
glyphname = "Kastroke-cy";
lastChange = "2025-07-03 16:37:35 +0000";
layers = (
{
layerId = m01;
shapes = (
{
pos = (12,0);
ref = K;
},
{
closed = 1;
nodes = (
(15,540,l),
(220,540,l),
(220,600,l),
(15,600,l)
);
}
);
width = 536;
}
);
unicode = 1182;
},
{
glyphname = "Kabashkir-cy";
lastChange = "2025-07-03 16:38:34 +0000";
layers = (
{
anchors = (
{
name = bottom;
pos = (285,0);
},
{
name = top;
pos = (285,620);
}
);
layerId = m01;
shapes = (
{
closed = 1;
nodes = (
(97,0,l),
(157,0,l),
(157,620,l),
(97,620,l)
);
},
{
closed = 1;
nodes = (
(241,332,l),
(454,0,l),
(526,0,l),
(278,393,l)
);
},
{
closed = 1;
nodes = (
(483,620,l),
(411,620,l),
(124,266,l),
(123,157,l)
);
},
{
closed = 1;
nodes = (
(10,560,l),
(110,560,l),
(110,620,l),
(10,620,l)
);
}
);
width = 536;
}
);
unicode = 1184;
},
{
glyphname = "Endescender-cy";
lastChange = "2025-07-03 15:40:00 +0000";
layers = (
{
anchors = (
{
name = bottom;
pos = (248,0);
},
{
name = center;
pos = (248,465);
},
{
name = top;
pos = (248,620);
},
{
name = topleft;
pos = (0,620);
}
);
layerId = m01;
shapes = (
{
closed = 1;
nodes = (
(30,0,l),
(90,0,l),
(90,620,l),
(30,620,l)
);
},
{
closed = 1;
nodes = (
(386,0,l),
(446,0,l),
(446,620,l),
(386,620,l)
);
},
{
closed = 1;
nodes = (
(52,330,l),
(407,330,l),
(407,390,l),
(52,390,l)
);
},
{
alignment = -1;
pos = (-90,620);
ref = "_part.horn-sm";
scale = (1,-1);
}
);
width = 536;
}
);
unicode = 1186;
},
{
glyphname = "EnGe-cy";
lastChange = "2025-07-03 16:39:17 +0000";
layers = (
{
anchors = (
{
name = bottom;
pos = (268,0);
},
{
name = center;
pos = (268,465);
},
{
name = top;
pos = (268,620);
},
{
name = topleft;
pos = (20,620);
}
);
layerId = m01;
shapes = (
{
closed = 1;
nodes = (
(30,0,l),
(90,0,l),
(90,620,l),
(30,620,l)
);
},
{
closed = 1;
nodes = (
(356,0,l),
(416,0,l),
(416,620,l),
(356,620,l)
);
},
{
closed = 1;
nodes = (
(82,330,l),
(387,330,l),
(387,390,l),
(82,390,l)
);
},
{
closed = 1;
nodes = (
(382,560,l),
(516,560,l),
(516,620,l),
(382,620,l)
);
}
);
width = 536;
}
);
unicode = 1188;
},
{
glyphname = "Pemiddlehook-cy";
lastChange = "2025-07-03 19:40:48 +0000";
layers = (
{
layerId = m01;
shapes = (
{
attr = {
strokeWidth = 60;
};
closed = 0;
nodes = (
(290,189,l),
(290,233,o),
(331,282,o),
(388,282,cs),
(441,282,o),
(493,235,o),
(493,151,cs),
(493,80,o),
(437,30,o),
(358,30,cs)
);
},
{
closed = 1;
nodes = (
(40,0,l),
(100,0,l),
(100,595,l),
(71,560,l),
(289,560,l),
(260,595,l),
(260,0,l),
(320,0,l),
(320,620,l),
(40,620,l)
);
}
);
width = 536;
}
);
unicode = 1190;
},
{
glyphname = "Pedescender-cy";
lastChange = "2025-07-03 19:51:39 +0000";
layers = (
{
layerId = m01;
shapes = (
{
closed = 1;
nodes = (
(40,0,l),
(100,0,l),
(100,424,l),
(71,389,l),
(399,389,l),
(370,424,l),
(370,0,l),
(430,0,l),
(430,449,l),
(40,449,l)
);
},
{
alignment = -1;
pos = (-106,620);
ref = "_part.horn-sm";
scale = (1,-1);
}
);
width = 536;
}
);
unicode = 1316;
},
{
glyphname = "Haabkhasian-cy";
lastChange = "2025-07-03 19:44:58 +0000";
layers = (
{
layerId = m01;
shapes = (
{
attr = {
strokeWidth = 60;
};
closed = 0;
nodes = (
(230,590,l),
(127,590,o),
(50,479,o),
(50,305,cs),
(50,144,o),
(142,30,o),
(233,30,cs),
(320,30,o),
(468,145,o),
(468,327,cs),
(468,412,o),
(439,495,o),
(354,495,cs),
(277,495,o),
(238,412,o),
(238,327,cs),
(238,153,o),
(353,30,o),
(516,30,c)
);
}
);
width = 536;
}
);
unicode = 1192;
},
{
glyphname = "Ustraightstroke-cy";
lastChange = "2025-07-03 15:29:19 +0000";
layers = (
{
layerId = m01;
shapes = (
{
ref = Y;
},
{
closed = 1;
nodes = (
(78,227,l),
(458,227,l),
(458,287,l),
(78,287,l)
);
}
);
width = 536;
}
);
unicode = 1200;
},
{
glyphname = "Hadescender-cy";
lastChange = "2025-07-03 15:48:22 +0000";
layers = (
{
anchors = (
{
name = bottom;
pos = (268,0);
},
{
name = top;
pos = (268,620);
}
);
layerId = m01;
shapes = (
{
closed = 1;
nodes = (
(45,620,l),
(372,0,l),
(443,0,l),
(116,620,l)
);
},
{
closed = 1;
nodes = (
(275,281,l),
(473,620,l),
(405,620,l),
(207,281,l)
);
},
{
closed = 1;
nodes = (
(223,324,l),
(22,0,l),
(90,0,l),
(278,302,l)
);
},
{
alignment = -1;
pos = (-104,620);
ref = "_part.horn-sm";
scale = (1,-1);
}
);
width = 536;
}
);
unicode = 1202;
},
{
glyphname = "Tetse-cy";
lastChange = "2025-07-03 19:28:45 +0000";
layers = (
{
layerId = m01;
shapes = (
{
closed = 1;
nodes = (
(113,60,l),
(140,25,l),
(140,620,l),
(80,620,l),
(80,0,l),
(406,0,l),
(406,620,l),
(346,620,l),
(346,25,l),
(377,60,l)
);
},
{
pos = (941,-560);
ref = _part.hook;
scale = (-1,1);
},
{
closed = 1;
nodes = (
(10,560,l),
(210,560,l),
(210,620,l),
(10,620,l)
);
}
);
width = 536;
}
);
unicode = 1204;
},
{
glyphname = "Chedescender-cy";
lastChange = "2025-07-03 15:49:33 +0000";
layers = (
{
anchors = (
{
name = bottom;
pos = (268,-180);
},
{
name = center;
pos = (402,-20);
},
{
name = top;
pos = (268,620);
}
);
hints = (
{
name = _corner.round;
origin = (1,6);
scale = (2,2);
type = Corner;
},
{
name = _corner.round;
origin = (1,2,1,4);
stem = 1000;
type = Corner;
}
);
layerId = m01;
shapes = (
{
closed = 1;
nodes = (
(436,0,l),
(436,620,l),
(376,620,l),
(376,0,l)
);
},
{
closed = 1;
nodes = (
(406,170,l),
(406,230,l),
(75,230,l),
(100,205,l),
(100,620,l),
(40,620,l),
(40,170,l)
);
},
{
alignment = -1;
pos = (-100,620);
ref = "_part.horn-sm";
scale = (1,-1);
}
);
width = 536;
}
);
unicode = 1206;
},
{
glyphname = "Cheverticalstroke-cy";
lastChange = "2025-07-03 16:45:27 +0000";
layers = (
{
layerId = m01;
shapes = (
{
angle = 180;
pos = (536,620);
ref = h;
},
{
closed = 1;
nodes = (
(238,50,l),
(298,50,l),
(298,450,l),
(238,450,l)
);
}
);
width = 536;
}
);
unicode = 1208;
},
{
glyphname = "Shhadescender-cy";
lastChange = "2025-07-03 16:40:46 +0000";
layers = (
{
hints = (
{
name = _corner.round;
origin = (1,6);
scale = (2,2);
type = Corner;
},
{
name = _corner.round;
origin = (1,2,1,4);
stem = 1000;
type = Corner;
}
);
layerId = m01;
shapes = (
{
closed = 1;
nodes = (
(40,620,l),
(40,0,l),
(100,0,l),
(100,620,l)
);
},
{
closed = 1;
nodes = (
(70,450,l),
(70,390,l),
(441,390,l),
(386,415,l),
(386,0,l),
(446,0,l),
(446,450,l)
);
},
{
alignment = -1;
pos = (-90,620);
ref = "_part.horn-sm";
scale = (1,-1);
}
);
width = 536;
}
);
unicode = 1318;
},
{
glyphname = "Cheabkhasian-cy";
lastChange = "2025-07-03 16:43:35 +0000";
layers = (
{
anchors = (
{
name = bottom;
pos = (268,170);
},
{
name = ogonek;
pos = (482,180);
},
{
name = top;
pos = (268,620);
}
);
hints = (
{
name = _corner.round;
origin = (0,1);
scale = (2,2);
type = Corner;
},
{
name = _corner.round;
origin = (0,2);
scale = (2,2);
type = Corner;
},
{
name = _corner.round;
origin = (0,3);
scale = (2,2);
type = Corner;
},
{
name = _corner.round;
origin = (0,4);
scale = (2,2);
type = Corner;
},
{
name = _corner.round;
origin = (0,11,0,13);
stem = 1000;
type = Corner;
},
{
name = _corner.round;
origin = (0,13,0,15);
stem = 1000;
type = Corner;
},
{
name = _corner.round;
origin = (0,7,0,9);
stem = 1000;
type = Corner;
},
{
name = _corner.round;
origin = (0,9,0,11);
stem = 1000;
type = Corner;
}
);
layerId = m01;
shapes = (
{
closed = 1;
nodes = (
(199,287,l),
(520,287,l),
(520,620,l),
(164,620,l),
(164,0,l),
(520,0,l),
(520,60,l),
(199,60,l),
(224,27,l),
(224,595,l),
(199,560,l),
(485,560,l),
(460,595,l),
(460,324,l),
(485,347,l),
(199,347,l)
);
},
{
alignment = -1;
angle = 90;
pos = (630,-123);
ref = _part.hook;
}
);
width = 536;
}
);
unicode = 1212;
},
{
glyphname = "Chedescenderabkhasian-cy";
lastChange = "2025-07-03 16:44:32 +0000";
layers = (
{
hints = (
{
name = _corner.round;
type = Corner;
},
{
name = _corner.round;
type = Corner;
},
{
name = _corner.round;
type = Corner;
},
{
name = _corner.round;
type = Corner;
},
{
name = _corner.round;
origin = (0,1);
scale = (2,2);
type = Corner;
},
{
name = _corner.round;
origin = (0,2);
scale = (2,2);
type = Corner;
},
{
name = _corner.round;
origin = (0,3);
scale = (2,2);
type = Corner;
},
{
name = _corner.round;
origin = (0,4);
scale = (2,2);
type = Corner;
},
{
name = _corner.round;
origin = (0,9,0,11);
stem = 1000;
type = Corner;
},
{
name = _corner.round;
origin = (0,7,0,9);
stem = 1000;
type = Corner;
},
{
name = _corner.round;
origin = (0,11,0,13);
stem = 1000;
type = Corner;
},
{
name = _corner.round;
origin = (0,13,0,15);
stem = 1000;
type = Corner;
}
);
layerId = m01;
shapes = (
{
closed = 1;
nodes = (
(199,287,l),
(520,287,l),
(520,620,l),
(164,620,l),
(164,0,l),
(520,0,l),
(520,60,l),
(199,60,l),
(224,27,l),
(224,595,l),
(199,560,l),
(485,560,l),
(460,595,l),
(460,324,l),
(485,347,l),
(199,347,l)
);
},
{
alignment = -1;
angle = 90;
pos = (630,-123);
ref = _part.hook;
},
{
closed = 1;
nodes = (
(325,-110,l),
(385,-110,l),
(385,28,l),
(325,28,l)
);
}
);
width = 600;
}
);
unicode = 1214;
},
{
glyphname = "Kahook-cy";
lastChange = "2025-07-03 19:56:03 +0000";
layers = (
{
anchors = (
{
name = bottom;
pos = (268,0);
},
{
name = top;
pos = (268,620);
}
);
layerId = m01;
shapes = (
{
closed = 1;
nodes = (
(50,0,l),
(110,0,l),
(110,620,l),
(50,620,l)
);
},
{
closed = 1;
nodes = (
(466,620,l),
(394,620,l),
(79,232,l),
(78,123,l)
);
},
{
attr = {
strokeWidth = 60;
};
closed = 0;
nodes = (
(203,340,l),
(363,340,o),
(476,236,o),
(476,89,cs),
(476,-62,o),
(368,-169,o),
(214,-169,cs)
);
}
);
width = 536;
}
);
unicode = 1219;
},
{
glyphname = "Eltail-cy";
lastChange = "2025-07-03 19:30:41 +0000";
layers = (
{
layerId = m01;
shapes = (
{
alignment = -1;
angle = 180;
pos = (545,620);
ref = _part.hook;
},
{
closed = 1;
nodes = (
(75,154,l),
(135,154,l),
(135,591,l),
(107,560,l),
(413,560,l),
(386,591,l),
(386,0,l),
(446,0,l),
(446,620,l),
(75,620,l)
);
},
{
alignment = -1;
pos = (-90,620);
ref = "_part.horn-sm";
scale = (1,-1);
}
);
width = 536;
}
);
unicode = 1221;
},
{
glyphname = "Entail-cy";
lastChange = "2025-07-03 16:12:52 +0000";
layers = (
{
layerId = m01;
shapes = (
{
closed = 1;
nodes = (
(30,0,l),
(90,0,l),
(90,620,l),
(30,620,l)
);
},
{
closed = 1;
nodes = (
(385,0,l),
(445,0,l),
(445,620,l),
(385,620,l)
);
},
{
closed = 1;
nodes = (
(62,330,l),
(416,330,l),
(416,390,l),
(62,390,l)
);
},
{
alignment = -1;
pos = (-91,620);
ref = "_part.horn-sm";
scale = (1,-1);
}
);
width = 536;
}
);
unicode = 1225;
},
{
glyphname = "Emtail-cy";
lastChange = "2025-07-03 16:12:01 +0000";
layers = (
{
anchors = (
{
name = bottom;
pos = (268,0);
},
{
name = top;
pos = (268,620);
}
);
hints = (
{
name = _corner.round;
options = 1;
origin = (1,4);
scale = (2,-2);
type = Corner;
},
{
name = _corner.round;
options = 1;
origin = (1,1);
scale = (1,-1);
type = Corner;
}
);
layerId = m01;
shapes = (
{
closed = 1;
nodes = (
(70,0,l),
(70,588,l),
(19,588,l),
(194,237,l),
(262,237,l),
(432,578,l),
(386,594,l),
(386,0,l),
(446,0,l),
(446,620,l),
(386,620,l),
(207,261,l),
(249,261,l),
(70,620,l),
(10,620,l),
(10,0,l)
);
},
{
closed = 1;
nodes = (
(386,0,l),
(466,0,l),
(466,-140,l),
(526,-140,l),
(526,60,l),
(386,60,l)
);
}
);
width = 536;
}
);
unicode = 1229;
},
{
glyphname = "Dzeabkhasian-cy";
lastChange = "2025-07-03 16:24:48 +0000";
layers = (
{
hints = (
{
name = _corner.round;
origin = (0,0);
scale = (2,2);
type = Corner;
},
{
name = _corner.round;
origin = (0,3);
type = Corner;
},
{
name = _corner.round;
options = 2;
origin = (0,4);
scale = (-1,1);
type = Corner;
},
{
name = _corner.round;
origin = (0,7);
scale = (2,2);
type = Corner;
},
{
name = _corner.round;
origin = (1,1);
scale = (0.5,0.5);
type = Corner;
}
);
layerId = m01;
shapes = (
{
closed = 1;
nodes = (
(486,390,l),
(206,390,l),
(206,330,l),
(426,330,l),
(426,60,l),
(50,60,l),
(50,0,l),
(486,0,l)
);
},
{
attr = {
strokeWidth = 60;
};
closed = 0;
nodes = (
(226,368,l),
(465,590,l),
(41,590,l)
);
}
);
width = 600;
}
);
unicode = 1248;
},
{
glyphname = "Obarred-cy";
lastChange = "2025-07-03 15:31:27 +0000";
layers = (
{
layerId = m01;
shapes = (
{
closed = 1;
nodes = (
(71,285,l),
(463,285,l),
(463,335,l),
(71,335,l)
);
},
{
ref = O;
}
);
width = 536;
}
);
unicode = 1256;
},
{
glyphname = "Hahook-cy";
lastChange = "2025-07-03 16:30:17 +0000";
layers = (
{
anchors = (
{
name = bottom;
pos = (268,0);
},
{
name = top;
pos = (268,620);
}
);
hints = (
{
name = _corner.round;
origin = (3,0);
type = Corner;
},
{
name = _corner.round;
origin = (3,3);
scale = (2,2);
type = Corner;
}
);
layerId = m01;
shapes = (
{
closed = 1;
nodes = (
(46,620,l),
(414,0,l),
(484,0,l),
(116,620,l)
);
},
{
closed = 1;
nodes = (
(297,311,l),
(473,620,l),
(405,620,l),
(229,311,l)
);
},
{
closed = 1;
nodes = (
(237,322,l),
(22,0,l),
(90,0,l),
(292,300,l)
);
},
{
closed = 1;
nodes = (
(474,-105,l),
(408,-105,l),
(429,-144,l),
(565,-144,l),
(484,0,l),
(414,0,l)
);
}
);
width = 536;
}
);
unicode = 1276;
},
{
glyphname = "be-cy";
lastChange = "2025-07-02 20:19:24 +0000";
layers = (
{
hints = (
{
name = _corner.round;
origin = (0,0);
type = Corner;
},
{
name = _corner.round;
origin = (0,3);
scale = (2,2);
type = Corner;
},
{
name = _corner.round;
origin = (0,4);
scale = (2,2);
type = Corner;
},
{
name = _corner.round;
origin = (0,5);
scale = (2,2);
type = Corner;
},
{
name = _corner.round;
options = 2;
origin = (0,6);
scale = (2,2);
type = Corner;
},
{
name = _corner.round;
origin = (0,9);
type = Corner;
},
{
name = _corner.round;
options = 2;
origin = (0,10);
scale = (-1,1);
type = Corner;
},
{
name = _corner.round;
origin = (0,11);
type = Corner;
},
{
name = _corner.round;
origin = (1,0);
scale = (2,2);
type = Corner;
},
{
name = _corner.round;
origin = (1,3);
type = Corner;
}
);
layerId = m01;
shapes = (
{
closed = 1;
nodes = (
(110,560,l),
(342,560,l),
(342,620,l),
(50,620,l),
(50,0,l),
(486,0,l),
(486,363,l),
(76,363,l),
(76,303,l),
(426,303,l),
(426,60,l),
(110,60,l)
);
},
{
closed = 1;
nodes = (
(486,560,l),
(486,687,l),
(426,687,l),
(426,620,l),
(286,620,l),
(286,560,l)
);
}
);
width = 536;
}
);
unicode = 1073;
},
{
glyphname = "ve-cy";
lastChange = "2025-07-01 19:41:34 +0000";
layers = (
{
anchors = (
{
name = bottom;
pos = (268,0);
},
{
name = center;
pos = (134,155);
},
{
name = top;
pos = (268,620);
}
);
hints = (
{
name = _corner.round;
origin = (0,1);
scale = (2,2);
type = Corner;
},
{
name = _corner.round;
options = 2;
origin = (0,2);
scale = (2,2);
type = Corner;
},
{
name = _corner.round;
origin = (1,2,1,4);
stem = 1000;
type = Corner;
},
{
name = _corner.round;
origin = (1,4,1,6);
stem = 1000;
type = Corner;
},
{
name = _corner.round;
origin = (2,1);
scale = (2,2);
type = Corner;
},
{
name = _corner.round;
options = 2;
origin = (2,2);
scale = (2,2);
type = Corner;
},
{
name = _corner.round;
origin = (3,2,3,4);
stem = 1000;
type = Corner;
},
{
name = _corner.round;
origin = (3,4,3,6);
stem = 1000;
type = Corner;
}
);
layerId = m01;
shapes = (
{
closed = 1;
nodes = (
(50,200,l),
(486,200,l),
(486,450,l),
(50,450,l)
);
},
{
closed = 1;
nodes = (
(110,419,l),
(79,390,l),
(451,390,l),
(426,419,l),
(426,253,l),
(436,260,l),
(79,260,l),
(110,245,l)
);
},
{
closed = 1;
nodes = (
(50,0,l),
(486,0,l),
(486,260,l),
(50,260,l)
);
},
{
closed = 1;
nodes = (
(110,231,l),
(79,200,l),
(454,200,l),
(426,231,l),
(426,28,l),
(454,60,l),
(79,60,l),
(110,28,l)
);
}
);
width = 536;
}
);
unicode = 1074;
},
{
glyphname = "ge-cy";
lastChange = "2025-07-02 18:35:54 +0000";
layers = (
{
layerId = m01;
shapes = (
{
closed = 1;
nodes = (
(50,450,l),
(50,0,l),
(110,0,l),
(110,415,l),
(82,390,l),
(486,390,l),
(486,450,l)
);
}
);
width = 536;
}
);
unicode = 1075;
},
{
glyphname = "geupturn-cy";
lastChange = "2025-07-02 20:27:43 +0000";
layers = (
{
layerId = m01;
shapes = (
{
closed = 1;
nodes = (
(33,450,l),
(33,0,l),
(93,0,l),
(93,415,l),
(65,390,l),
(378,390,l),
(378,450,l)
);
},
{
angle = 180;
pos = (913,1010);
ref = _part.hook;
}
);
width = 536;
}
);
unicode = 1169;
},
{
glyphname = "gedescender-cy";
lastChange = "2025-07-03 16:02:01 +0000";
layers = (
{
layerId = m01;
shapes = (
{
closed = 1;
nodes = (
(50,450,l),
(50,0,l),
(110,0,l),
(110,415,l),
(82,390,l),
(486,390,l),
(486,450,l)
);
},
{
alignment = -1;
pos = (-426,620);
ref = "_part.horn-sm";
scale = (1,-1);
}
);
width = 536;
}
);
unicode = 1271;
},
{
glyphname = "gestroke-cy";
lastChange = "2025-07-03 15:50:20 +0000";
layers = (
{
layerId = m01;
shapes = (
{
closed = 1;
nodes = (
(90,450,l),
(90,0,l),
(150,0,l),
(150,415,l),
(122,390,l),
(520,390,l),
(520,450,l)
);
},
{
closed = 1;
nodes = (
(30,227,l),
(370,227,l),
(370,287,l),
(30,287,l)
);
}
);
width = 600;
}
);
unicode = 1171;
},
{
glyphname = "gemiddlehook-cy";
lastChange = "2025-07-03 19:53:33 +0000";
layers = (
{
hints = (
{
name = _corner.round;
origin = (1,6);
scale = (2,2);
type = Corner;
},
{
name = _corner.round;
origin = (2,6);
scale = (2,2);
type = Corner;
},
{
name = _corner.round;
origin = (1,2,1,4);
stem = 1000;
type = Corner;
},
{
name = _corner.round;
origin = (2,2,2,4);
stem = 1000;
type = Corner;
}
);
layerId = m01;
shapes = (
{
closed = 1;
nodes = (
(50,450,l),
(50,0,l),
(110,0,l),
(110,450,l)
);
},
{
closed = 1;
nodes = (
(80,280,l),
(80,220,l),
(451,220,l),
(426,245,l),
(426,0,l),
(486,0,l),
(486,280,l)
);
},
{
closed = 1;
nodes = (
(486,0,l),
(426,0,l),
(426,-119,l),
(451,-94,l),
(361,-94,l),
(361,-154,l),
(486,-154,l)
);
},
{
closed = 1;
nodes = (
(96,390,l),
(446,390,l),
(446,450,l),
(96,450,l)
);
}
);
width = 600;
}
);
unicode = 1173;
},
{
glyphname = "de-cy";
lastChange = "2025-07-02 20:35:18 +0000";
layers = (
{
layerId = m01;
shapes = (
{
alignment = -1;
pos = (936,-560);
ref = _part.hook;
scale = (-1,1);
},
{
alignment = -1;
pos = (-400,-560);
ref = _part.hook;
},
{
closed = 1;
nodes = (
(135,0,l),
(401,0,l),
(401,60,l),
(135,60,l)
);
},
{
closed = 1;
nodes = (
(341,32,l),
(401,32,l),
(401,450,l),
(341,450,l)
);
},
{
closed = 1;
nodes = (
(156,390,l),
(401,390,l),
(401,450,l),
(156,450,l)
);
},
{
attr = {
strokeWidth = 60;
};
closed = 0;
nodes = (
(186,438,l),
(186,298,o),
(185,231,o),
(185,196,cs),
(185,142,o),
(166,93,o),
(124,33,cs)
);
}
);
width = 536;
}
);
unicode = 1076;
},
{
glyphname = "zhe-cy";
lastChange = "2025-07-02 18:36:16 +0000";
layers = (
{
layerId = m01;
shapes = (
{
closed = 1;
nodes = (
(234,450,l),
(234,0,l),
(294,0,l),
(294,450,l)
);
},
{
closed = 1;
nodes = (
(17,0,l),
(87,0,l),
(282,205,l),
(247,249,l)
);
},
{
closed = 1;
nodes = (
(252,242,l),
(94,450,l),
(26,450,l),
(247,158,l)
);
},
{
closed = 1;
nodes = (
(254,205,l),
(449,0,l),
(519,0,l),
(289,249,l)
);
},
{
closed = 1;
nodes = (
(510,450,l),
(442,450,l),
(284,242,l),
(289,158,l)
);
}
);
width = 536;
}
);
unicode = 1078;
},
{
glyphname = "ii-cy";
lastChange = "2025-07-01 19:40:49 +0000";
layers = (
{
anchors = (
{
name = bottomright;
pos = (516,0);
},
{
name = top;
pos = (268,450);
}
);
layerId = m01;
shapes = (
{
closed = 1;
nodes = (
(144,0,l),
(455,450,l),
(391,450,l),
(80,0,l)
);
},
{
closed = 1;
nodes = (
(426,0,l),
(486,0,l),
(482,450,l),
(426,450,l)
);
},
{
closed = 1;
nodes = (
(110,450,l),
(50,450,l),
(50,0,l),
(110,0,l)
);
}
);
width = 536;
}
);
unicode = 1080;
},
{
glyphname = "ka-cy";
lastChange = "2025-07-01 19:39:03 +0000";
layers = (
{
anchors = (
{
name = bottom;
pos = (268,0);
},
{
name = top;
pos = (268,620);
}
);
layerId = m01;
shapes = (
{
closed = 1;
nodes = (
(50,0,l),
(110,0,l),
(110,450,l),
(50,450,l)
);
},
{
closed = 1;
nodes = (
(224,252,l),
(437,0,l),
(509,0,l),
(261,313,l)
);
},
{
closed = 1;
nodes = (
(481,450,l),
(394,450,l),
(79,152,l),
(80,69,l)
);
}
);
width = 536;
}
);
unicode = 1082;
},
{
glyphname = "el-cy";
lastChange = "2025-07-02 19:58:13 +0000";
layers = (
{
layerId = m01;
shapes = (
{
angle = 180;
pos = (565,620);
ref = _part.hook;
},
{
closed = 1;
nodes = (
(95,154,l),
(155,154,l),
(155,421,l),
(127,390,l),
(453,390,l),
(426,421,l),
(426,0,l),
(486,0,l),
(486,450,l),
(95,450,l)
);
}
);
width = 536;
}
);
unicode = 1083;
},
{
glyphname = "em-cy";
lastChange = "2025-07-01 19:38:13 +0000";
layers = (
{
anchors = (
{
name = bottom;
pos = (268,0);
},
{
name = top;
pos = (268,620);
}
);
layerId = m01;
shapes = (
{
closed = 1;
nodes = (
(90,0,l),
(90,418,l),
(59,418,l),
(234,67,l),
(302,67,l),
(472,408,l),
(446,424,l),
(446,0,l),
(506,0,l),
(506,450,l),
(426,450,l),
(247,91,l),
(289,91,l),
(110,450,l),
(30,450,l),
(30,0,l)
);
}
);
width = 536;
}
);
unicode = 1084;
},
{
glyphname = "en-cy";
lastChange = "2025-07-01 19:37:59 +0000";
layers = (
{
anchors = (
{
name = bottom;
pos = (268,0);
},
{
name = center;
pos = (268,465);
},
{
name = top;
pos = (268,620);
},
{
name = topleft;
pos = (20,620);
}
);
layerId = m01;
shapes = (
{
closed = 1;
nodes = (
(50,0,l),
(110,0,l),
(110,450,l),
(50,450,l)
);
},
{
closed = 1;
nodes = (
(426,0,l),
(486,0,l),
(486,450,l),
(426,450,l)
);
},
{
closed = 1;
nodes = (
(95,227,l),
(440,227,l),
(440,287,l),
(95,287,l)
);
}
);
width = 536;
}
);
unicode = 1085;
},
{
glyphname = "pe-cy";
lastChange = "2025-07-01 19:37:40 +0000";
layers = (
{
anchors = (
{
name = bottom;
pos = (268,0);
},
{
name = top;
pos = (268,450);
}
);
layerId = m01;
shapes = (
{
closed = 1;
nodes = (
(50,450,l),
(50,0,l),
(110,0,l),
(110,415,l),
(82,390,l),
(454,390,l),
(426,415,l),
(426,0,l),
(486,0,l),
(486,450,l)
);
}
);
width = 536;
}
);
unicode = 1087;
},
{
glyphname = "te-cy";
lastChange = "2025-07-01 19:37:16 +0000";
layers = (
{
anchors = (
{
name = bottom;
pos = (268,0);
},
{
name = center;
pos = (268,310);
},
{
name = top;
pos = (268,620);
}
);
layerId = m01;
shapes = (
{
closed = 1;
nodes = (
(20,450,l),
(20,390,l),
(253,390,l),
(238,425,l),
(238,0,l),
(298,0,l),
(298,425,l),
(283,390,l),
(516,390,l),
(516,450,l)
);
}
);
width = 536;
}
);
unicode = 1090;
},
{
glyphname = "ef-cy";
lastChange = "2025-07-01 19:43:49 +0000";
layers = (
{
hints = (
{
name = _corner.round;
origin = (0,0);
scale = (2,2);
type = Corner;
},
{
name = _corner.round;
options = 2;
origin = (0,1);
scale = (2,2);
type = Corner;
},
{
name = _corner.round;
options = 2;
origin = (0,2);
scale = (2,2);
type = Corner;
},
{
name = _corner.round;
origin = (0,3);
scale = (2,2);
type = Corner;
},
{
name = _corner.round;
origin = (1,0,1,2);
stem = 1000;
type = Corner;
},
{
name = _corner.round;
origin = (1,0,1,6);
stem = 1000;
type = Corner;
},
{
name = _corner.round;
origin = (1,2,1,4);
stem = 1000;
type = Corner;
},
{
name = _corner.round;
origin = (1,4,1,6);
stem = 1000;
type = Corner;
}
);
layerId = m01;
shapes = (
{
closed = 1;
nodes = (
(50,450,l),
(50,0,l),
(486,0,l),
(486,450,l)
);
},
{
closed = 1;
nodes = (
(110,405,l),
(87,390,l),
(451,390,l),
(426,405,l),
(426,35,l),
(451,60,l),
(87,60,l),
(110,35,l)
);
},
{
closed = 1;
nodes = (
(238,-110,l),
(298,-110,l),
(298,560,l),
(238,560,l)
);
}
);
width = 536;
}
);
unicode = 1092;
},
{
glyphname = "tse-cy";
lastChange = "2025-07-02 20:04:21 +0000";
layers = (
{
layerId = m01;
shapes = (
{
closed = 1;
nodes = (
(53,60,l),
(80,25,l),
(80,450,l),
(20,450,l),
(20,0,l),
(406,0,l),
(406,450,l),
(346,450,l),
(346,25,l),
(377,60,l)
);
},
{
pos = (941,-560);
ref = _part.hook;
scale = (-1,1);
}
);
width = 536;
}
);
unicode = 1094;
},
{
glyphname = "che-cy";
lastChange = "2025-07-02 20:15:38 +0000";
layers = (
{
anchors = (
{
name = bottomright;
pos = (516,0);
},
{
name = top;
pos = (268,450);
}
);
hints = (
{
name = _corner.round;
type = Corner;
},
{
name = _corner.round;
origin = (1,6);
scale = (2,2);
type = Corner;
},
{
name = _corner.round;
origin = (1,2,1,4);
stem = 1000;
type = Corner;
}
);
layerId = m01;
shapes = (
{
closed = 1;
nodes = (
(486,0,l),
(486,450,l),
(426,450,l),
(426,0,l)
);
},
{
closed = 1;
nodes = (
(456,170,l),
(456,230,l),
(85,230,l),
(110,205,l),
(110,450,l),
(50,450,l),
(50,170,l)
);
}
);
width = 536;
}
);
unicode = 1095;
},
{
glyphname = "sha-cy";
lastChange = "2025-07-02 20:04:31 +0000";
layers = (
{
layerId = m01;
shapes = (
{
closed = 1;
nodes = (
(298,25,l),
(298,450,l),
(238,450,l),
(238,25,l)
);
},
{
closed = 1;
nodes = (
(63,60,l),
(90,25,l),
(90,450,l),
(30,450,l),
(30,0,l),
(506,0,l),
(506,450,l),
(446,450,l),
(446,25,l),
(477,60,l)
);
}
);
width = 536;
}
);
unicode = 1096;
},
{
glyphname = "shcha-cy";
lastChange = "2025-07-02 20:04:44 +0000";
layers = (
{
layerId = m01;
shapes = (
{
closed = 1;
nodes = (
(238,25,l),
(238,450,l),
(178,450,l),
(178,25,l)
);
},
{
closed = 1;
nodes = (
(53,60,l),
(80,25,l),
(80,450,l),
(20,450,l),
(20,0,l),
(406,0,l),
(406,450,l),
(346,450,l),
(346,25,l),
(377,60,l)
);
},
{
pos = (941,-560);
ref = _part.hook;
scale = (-1,1);
}
);
width = 536;
}
);
unicode = 1097;
},
{
glyphname = "dzhe-cy";
lastChange = "2025-07-02 23:41:23 +0000";
layers = (
{
layerId = m01;
shapes = (
{
closed = 1;
nodes = (
(486,450,l),
(426,450,l),
(426,35,l),
(454,60,l),
(82,60,l),
(110,35,l),
(110,450,l),
(50,450,l),
(50,0,l),
(486,0,l)
);
},
{
closed = 1;
nodes = (
(234,-110,l),
(294,-110,l),
(294,29,l),
(234,29,l)
);
}
);
width = 536;
}
);
unicode = 1119;
},
{
glyphname = "softsign-cy";
lastChange = "2025-07-02 19:52:43 +0000";
layers = (
{
anchors = (
{
name = bottom;
pos = (268,0);
},
{
name = center;
pos = (134,640);
},
{
name = top;
pos = (268,450);
}
);
hints = (
{
name = _corner.round;
origin = (0,10);
scale = (2,2);
type = Corner;
},
{
name = _corner.round;
origin = (0,11);
scale = (2,2);
type = Corner;
},
{
name = _corner.round;
origin = (0,1,0,3);
stem = 1000;
type = Corner;
},
{
name = _corner.round;
origin = (0,3,0,5);
stem = 1000;
type = Corner;
}
);
layerId = m01;
shapes = (
{
closed = 1;
nodes = (
(83,227,l),
(444,227,l),
(426,244,l),
(426,36,l),
(444,60,l),
(83,60,l),
(110,36,l),
(110,450,l),
(50,450,l),
(50,0,l),
(486,0,l),
(486,287,l),
(83,287,l)
);
}
);
width = 536;
}
);
unicode = 1100;
},
{
glyphname = "yeru-cy";
lastChange = "2025-07-02 20:31:24 +0000";
layers = (
{
anchors = (
{
name = bottom;
pos = (268,0);
},
{
name = center;
pos = (134,640);
},
{
name = top;
pos = (268,450);
}
);
hints = (
{
name = _corner.round;
origin = (0,10);
scale = (2,2);
type = Corner;
},
{
name = _corner.round;
origin = (0,11);
scale = (2,2);
type = Corner;
},
{
name = _corner.round;
origin = (0,1,0,3);
stem = 1000;
type = Corner;
},
{
name = _corner.round;
origin = (0,3,0,5);
stem = 1000;
type = Corner;
}
);
layerId = m01;
shapes = (
{
closed = 1;
nodes = (
(53,227,l),
(251,227,l),
(227,244,l),
(227,36,l),
(239,60,l),
(53,60,l),
(80,36,l),
(80,450,l),
(20,450,l),
(20,0,l),
(287,0,l),
(287,287,l),
(53,287,l)
);
},
{
closed = 1;
nodes = (
(427,25,l),
(427,450,l),
(292,450,l),
(292,390,l),
(382,390,l),
(367,425,l),
(367,25,l)
);
},
{
closed = 1;
nodes = (
(287,60,l),
(287,0,l),
(516,0,l),
(516,60,l)
);
}
);
width = 536;
}
);
unicode = 1099;
},
{
glyphname = "hardsign-cy";
lastChange = "2025-07-02 19:53:09 +0000";
layers = (
{
layerId = m01;
shapes = (
{
alignment = -1;
pos = (28,0);
ref = "softsign-cy";
},
{
closed = 1;
nodes = (
(10,390,l),
(110,390,l),
(110,450,l),
(10,450,l)
);
}
);
width = 536;
}
);
unicode = 1098;
},
{
glyphname = "lje-cy";
lastChange = "2025-07-02 23:50:40 +0000";
layers = (
{
anchors = (
{
name = bottom;
pos = (562,0);
},
{
name = center;
pos = (428,640);
},
{
name = top;
pos = (562,450);
}
);
hints = (
{
name = _corner.round;
origin = (2,10);
scale = (2,2);
type = Corner;
},
{
name = _corner.round;
origin = (2,11);
scale = (2,2);
type = Corner;
},
{
name = _corner.round;
origin = (2,1,2,3);
stem = 1000;
type = Corner;
},
{
name = _corner.round;
origin = (2,3,2,5);
stem = 1000;
type = Corner;
}
);
layerId = m01;
shapes = (
{
closed = 1;
nodes = (
(95,154,l),
(155,154,l),
(155,421,l),
(127,390,l),
(266,390,l),
(266,450,l),
(95,450,l)
);
},
{
angle = 180;
pos = (565,620);
ref = _part.hook;
},
{
closed = 1;
nodes = (
(293,227,l),
(474,227,l),
(456,244,l),
(456,36,l),
(474,60,l),
(293,60,l),
(320,36,l),
(320,450,l),
(260,450,l),
(260,0,l),
(516,0,l),
(516,287,l),
(293,287,l)
);
}
);
width = 536;
}
);
unicode = 1113;
},
{
glyphname = "nje-cy";
lastChange = "2025-07-02 23:52:53 +0000";
layers = (
{
anchors = (
{
name = bottom;
pos = (613,0);
},
{
name = center;
pos = (479,640);
},
{
name = top;
pos = (613,450);
}
);
hints = (
{
name = _corner.round;
origin = (1,10);
scale = (2,2);
type = Corner;
},
{
name = _corner.round;
origin = (1,11);
scale = (2,2);
type = Corner;
},
{
name = _corner.round;
origin = (1,1,1,3);
stem = 1000;
type = Corner;
},
{
name = _corner.round;
origin = (1,3,1,5);
stem = 1000;
type = Corner;
}
);
layerId = m01;
shapes = (
{
closed = 1;
nodes = (
(30,0,l),
(90,0,l),
(90,450,l),
(30,450,l)
);
},
{
closed = 1;
nodes = (
(59,227,l),
(528,227,l),
(510,244,l),
(510,36,l),
(528,60,l),
(303,60,l),
(330,36,l),
(330,450,l),
(270,450,l),
(270,0,l),
(570,0,l),
(570,287,l),
(59,287,l)
);
}
);
width = 600;
}
);
unicode = 1114;
},
{
glyphname = "ereversed-cy";
lastChange = "2025-07-02 20:28:10 +0000";
layers = (
{
layerId = m01;
shapes = (
{
pos = (536,0);
ref = c;
scale = (-1,1);
},
{
closed = 1;
nodes = (
(185,195,l),
(442,195,l),
(442,255,l),
(185,255,l)
);
}
);
width = 536;
}
);
unicode = 1101;
},
{
glyphname = "tshe-cy";
lastChange = "2025-07-02 23:53:36 +0000";
layers = (
{
layerId = m01;
shapes = (
{
ref = h;
},
{
closed = 1;
nodes = (
(10,527,l),
(270,527,l),
(270,587,l),
(10,587,l)
);
}
);
width = 536;
}
);
unicode = 1115;
},
{
glyphname = "yu-cy";
lastChange = "2025-07-02 19:55:04 +0000";
layers = (
{
hints = (
{
name = _corner.round;
origin = (0,0);
scale = (2,2);
type = Corner;
},
{
name = _corner.round;
origin = (0,1);
scale = (2,2);
type = Corner;
},
{
name = _corner.round;
origin = (0,2);
scale = (2,2);
type = Corner;
},
{
name = _corner.round;
origin = (0,3);
scale = (2,2);
type = Corner;
},
{
name = _corner.round;
origin = (1,0,1,2);
stem = 1000;
type = Corner;
},
{
name = _corner.round;
origin = (1,0,1,6);
stem = 1000;
type = Corner;
},
{
name = _corner.round;
origin = (1,2,1,4);
stem = 1000;
type = Corner;
},
{
name = _corner.round;
origin = (1,4,1,6);
stem = 1000;
type = Corner;
}
);
layerId = m01;
shapes = (
{
closed = 1;
nodes = (
(155,0,l),
(501,0,l),
(501,450,l),
(155,450,l)
);
},
{
closed = 1;
nodes = (
(215,412,l),
(200,390,l),
(464,390,l),
(441,412,l),
(441,39,l),
(464,60,l),
(200,60,l),
(215,39,l)
);
},
{
closed = 1;
nodes = (
(35,0,l),
(95,0,l),
(95,450,l),
(35,450,l)
);
},
{
closed = 1;
nodes = (
(73,195,l),
(205,195,l),
(205,255,l),
(73,255,l)
);
}
);
width = 536;
}
);
unicode = 1102;
},
{
glyphname = "ya-cy";
lastChange = "2025-07-02 19:51:55 +0000";
layers = (
{
anchors = (
{
name = bottom;
pos = (268,0);
},
{
name = top;
pos = (268,620);
}
);
hints = (
{
name = _corner.round;
origin = (0,10);
scale = (2,2);
type = Corner;
},
{
name = _corner.round;
options = 2;
origin = (0,9);
scale = (2,2);
type = Corner;
},
{
name = _corner.round;
origin = (1,0);
scale = (2,2);
type = Corner;
},
{
name = _corner.round;
origin = (0,0,0,2);
stem = 1000;
type = Corner;
},
{
name = _corner.round;
origin = (0,2,0,4);
stem = 1000;
type = Corner;
},
{
name = _corner.round;
origin = (1,3,1,5);
stem = 1000;
type = Corner;
}
);
layerId = m01;
shapes = (
{
closed = 1;
nodes = (
(93,260,l),
(110,247,l),
(110,415,l),
(85,390,l),
(459,390,l),
(426,415,l),
(426,0,l),
(486,0,l),
(486,450,l),
(50,450,l),
(50,200,l),
(459,200,l),
(459,260,l)
);
},
{
closed = 1;
nodes = (
(50,260,l),
(50,0,l),
(110,0,l),
(110,228,l),
(93,200,l),
(459,200,l),
(459,260,l)
);
}
);
width = 536;
}
);
unicode = 1103;
},
{
glyphname = "yat-cy";
lastChange = "2025-07-03 15:50:59 +0000";
layers = (
{
anchors = (
{
name = bottom;
pos = (268,0);
},
{
name = center;
pos = (134,640);
},
{
name = top;
pos = (268,450);
}
);
hints = (
{
name = _corner.round;
type = Corner;
},
{
name = _corner.round;
type = Corner;
},
{
name = _corner.round;
origin = (0,10);
scale = (2,2);
type = Corner;
},
{
name = _corner.round;
origin = (0,11);
scale = (2,2);
type = Corner;
},
{
name = _corner.round;
origin = (0,1,0,3);
stem = 1000;
type = Corner;
},
{
name = _corner.round;
origin = (0,3,0,5);
stem = 1000;
type = Corner;
}
);
layerId = m01;
shapes = (
{
closed = 1;
nodes = (
(173,390,l),
(444,390,l),
(426,414,l),
(426,36,l),
(444,60,l),
(173,60,l),
(200,36,l),
(200,620,l),
(140,620,l),
(140,0,l),
(486,0,l),
(486,450,l),
(173,450,l)
);
},
{
closed = 1;
nodes = (
(23,505,l),
(409,505,l),
(409,565,l),
(23,565,l)
);
}
);
width = 536;
}
);
unicode = 1123;
},
{
glyphname = "fita-cy";
lastChange = "2025-07-03 15:42:47 +0000";
layers = (
{
layerId = m01;
shapes = (
{
pos = (0,6);
ref = o;
},
{
attr = {
identifier = ID0x31f142f90;
strokeWidth = 50;
};
closed = 0;
nodes = (
(79,204,l),
(89,217,o),
(103,227,o),
(118,233,cs),
(222,270,o),
(296,179,o),
(400,216,cs),
(417,223,o),
(438,236,o),
(455,254,cs)
);
}
);
width = 536;
}
);
unicode = 1139;
},
{
glyphname = "izhitsa-cy";
lastChange = "2025-07-03 15:45:08 +0000";
layers = (
{
anchors = (
{
name = bottom;
pos = (268,0);
},
{
name = top;
pos = (268,450);
}
);
hints = (
{
name = _corner.round;
origin = (1,0);
type = Corner;
},
{
name = _corner.round;
origin = (1,3);
scale = (2,2);
type = Corner;
}
);
layerId = m01;
shapes = (
{
closed = 1;
nodes = (
(286,0,l),
(399,296,l),
(336,296,l),
(225,6,l),
(255,6,l),
(85,450,l),
(22,450,l),
(194,0,l)
);
},
{
closed = 1;
nodes = (
(432,390,l),
(494,390,l),
(515,450,l),
(390,450,l),
(336,296,l),
(399,296,l)
);
}
);
width = 536;
}
);
unicode = 1141;
},
{
glyphname = "zhedescender-cy";
lastChange = "2025-07-03 15:51:55 +0000";
layers = (
{
layerId = m01;
shapes = (
{
closed = 1;
nodes = (
(211,450,l),
(211,0,l),
(271,0,l),
(271,450,l)
);
},
{
closed = 1;
nodes = (
(34,0,l),
(104,0,l),
(259,205,l),
(224,249,l)
);
},
{
closed = 1;
nodes = (
(229,242,l),
(111,450,l),
(43,450,l),
(224,158,l)
);
},
{
closed = 1;
nodes = (
(231,205,l),
(386,0,l),
(456,0,l),
(266,249,l)
);
},
{
closed = 1;
nodes = (
(447,450,l),
(379,450,l),
(261,242,l),
(266,158,l)
);
},
{
alignment = -1;
pos = (-90,620);
ref = "_part.horn-sm";
scale = (1,-1);
}
);
width = 536;
}
);
unicode = 1175;
},
{
glyphname = "kaverticalstroke-cy";
lastChange = "2025-07-03 16:49:50 +0000";
layers = (
{
anchors = (
{
name = bottom;
pos = (268,0);
},
{
name = top;
pos = (268,800);
}
);
layerId = m01;
shapes = (
{
closed = 1;
nodes = (
(60,450,l),
(60,0,l),
(120,0,l),
(120,450,l)
);
},
{
closed = 1;
nodes = (
(88,123,l),
(434,450,l),
(353,450,l),
(88,212,l)
);
},
{
closed = 1;
nodes = (
(398,0,l),
(473,0,l),
(243,304,l),
(200,261,l)
);
},
{
closed = 1;
nodes = (
(160,387,l),
(160,127,l),
(220,127,l),
(220,387,l)
);
}
);
width = 536;
}
);
unicode = 1181;
},
{
glyphname = "kastroke-cy";
lastChange = "2025-07-03 16:50:21 +0000";
layers = (
{
layerId = m01;
shapes = (
{
ref = k;
},
{
closed = 1;
nodes = (
(33,450,l),
(233,450,l),
(233,510,l),
(33,510,l)
);
}
);
width = 536;
}
);
unicode = 1183;
},
{
glyphname = "kabashkir-cy";
lastChange = "2025-07-03 16:51:11 +0000";
layers = (
{
anchors = (
{
name = bottom;
pos = (301,0);
},
{
name = top;
pos = (301,800);
}
);
layerId = m01;
shapes = (
{
closed = 1;
nodes = (
(96,450,l),
(96,0,l),
(156,0,l),
(156,450,l)
);
},
{
closed = 1;
nodes = (
(124,116,l),
(467,450,l),
(386,450,l),
(124,205,l)
);
},
{
closed = 1;
nodes = (
(431,0,l),
(506,0,l),
(276,304,l),
(233,261,l)
);
},
{
closed = 1;
nodes = (
(10,391,l),
(130,391,l),
(130,451,l),
(10,451,l)
);
}
);
width = 536;
}
);
unicode = 1185;
},
{
glyphname = "endescender-cy";
lastChange = "2025-07-03 15:53:53 +0000";
layers = (
{
layerId = m01;
shapes = (
{
closed = 1;
nodes = (
(40,0,l),
(100,0,l),
(100,450,l),
(40,450,l)
);
},
{
closed = 1;
nodes = (
(386,0,l),
(446,0,l),
(446,450,l),
(386,450,l)
);
},
{
closed = 1;
nodes = (
(85,227,l),
(400,227,l),
(400,287,l),
(85,287,l)
);
},
{
alignment = -1;
pos = (-90,620);
ref = "_part.horn-sm";
scale = (1,-1);
}
);
width = 536;
}
);
unicode = 1187;
},
{
glyphname = "enge-cy";
lastChange = "2025-07-03 16:51:55 +0000";
layers = (
{
layerId = m01;
shapes = (
{
closed = 1;
nodes = (
(40,0,l),
(100,0,l),
(100,450,l),
(40,450,l)
);
},
{
closed = 1;
nodes = (
(366,0,l),
(426,0,l),
(426,450,l),
(366,450,l)
);
},
{
closed = 1;
nodes = (
(85,227,l),
(380,227,l),
(380,287,l),
(85,287,l)
);
},
{
closed = 1;
nodes = (
(392,390,l),
(516,390,l),
(516,450,l),
(392,450,l)
);
}
);
width = 536;
}
);
unicode = 1189;
},
{
glyphname = "pedescender-cy";
lastChange = "2025-07-03 19:47:16 +0000";
layers = (
{
layerId = m01;
shapes = (
{
closed = 1;
nodes = (
(50,0,l),
(110,0,l),
(110,595,l),
(81,560,l),
(469,560,l),
(440,595,l),
(440,0,l),
(500,0,l),
(500,620,l),
(50,620,l)
);
},
{
alignment = -1;
pos = (-36,620);
ref = "_part.horn-sm";
scale = (1,-1);
}
);
width = 536;
}
);
unicode = 1317;
},
{
glyphname = "pemiddlehook-cy";
lastChange = "2025-07-03 19:52:04 +0000";
layers = (
{
layerId = m01;
shapes = (
{
attr = {
strokeWidth = 60;
};
closed = 0;
nodes = (
(290,189,l),
(290,233,o),
(331,282,o),
(388,282,cs),
(441,282,o),
(493,235,o),
(493,151,cs),
(493,80,o),
(437,30,o),
(358,30,cs)
);
},
{
closed = 1;
nodes = (
(40,0,l),
(100,0,l),
(100,425,l),
(71,390,l),
(289,390,l),
(260,425,l),
(260,0,l),
(320,0,l),
(320,450,l),
(40,450,l)
);
}
);
width = 536;
}
);
unicode = 1191;
},
{
glyphname = "haabkhasian-cy";
lastChange = "2025-07-03 19:46:52 +0000";
layers = (
{
layerId = m01;
shapes = (
{
attr = {
strokeWidth = 60;
};
closed = 0;
nodes = (
(241,419,l),
(138,419,o),
(50,353,o),
(50,230,cs),
(50,69,o),
(176,30,o),
(267,30,cs),
(417,30,o),
(522,118,o),
(522,242,cs),
(522,331,o),
(475,394,o),
(408,394,cs),
(340,394,o),
(292,331,o),
(292,242,cs),
(292,118,o),
(403,30,o),
(560,30,c)
);
}
);
width = 600;
}
);
unicode = 1193;
},
{
glyphname = "tedescender-cy";
lastChange = "2025-07-03 16:52:46 +0000";
layers = (
{
layerId = m01;
shapes = (
{
closed = 1;
nodes = (
(516,390,l),
(516,450,l),
(20,450,l),
(20,390,l)
);
},
{
closed = 1;
nodes = (
(238,0,l),
(298,0,l),
(298,415,l),
(238,415,l)
);
},
{
alignment = -1;
pos = (-238,620);
ref = "_part.horn-sm";
scale = (1,-1);
}
);
width = 536;
}
);
unicode = 1197;
},
{
glyphname = "tetse-cy";
lastChange = "2025-07-03 19:28:29 +0000";
layers = (
{
layerId = m01;
shapes = (
{
closed = 1;
nodes = (
(103,60,l),
(130,25,l),
(130,450,l),
(70,450,l),
(70,0,l),
(406,0,l),
(406,450,l),
(346,450,l),
(346,25,l),
(377,60,l)
);
},
{
pos = (941,-560);
ref = _part.hook;
scale = (-1,1);
},
{
closed = 1;
nodes = (
(10,390,l),
(190,390,l),
(190,450,l),
(10,450,l)
);
}
);
width = 536;
}
);
unicode = 1205;
},
{
glyphname = "chedescender-cy";
lastChange = "2025-07-03 15:55:44 +0000";
layers = (
{
anchors = (
{
name = bottom;
pos = (268,-350);
},
{
name = center;
pos = (402,-190);
},
{
name = top;
pos = (268,450);
}
);
hints = (
{
name = _corner.round;
type = Corner;
},
{
name = _corner.round;
origin = (1,6);
scale = (2,2);
type = Corner;
},
{
name = _corner.round;
origin = (1,2,1,4);
stem = 1000;
type = Corner;
}
);
layerId = m01;
shapes = (
{
closed = 1;
nodes = (
(446,0,l),
(446,450,l),
(386,450,l),
(386,0,l)
);
},
{
closed = 1;
nodes = (
(416,170,l),
(416,230,l),
(65,230,l),
(90,205,l),
(90,450,l),
(30,450,l),
(30,170,l)
);
},
{
pos = (-90,620);
ref = "_part.horn-sm";
scale = (1,-1);
}
);
width = 536;
}
);
unicode = 1207;
},
{
glyphname = "cheverticalstroke-cy";
lastChange = "2025-07-03 16:48:37 +0000";
layers = (
{
hints = (
{
name = _corner.round;
origin = (1,6);
scale = (2,2);
type = Corner;
},
{
name = _corner.round;
origin = (1,2,1,4);
stem = 1000;
type = Corner;
}
);
layerId = m01;
shapes = (
{
closed = 1;
nodes = (
(486,0,l),
(486,450,l),
(426,450,l),
(426,0,l)
);
},
{
closed = 1;
nodes = (
(456,170,l),
(456,230,l),
(85,230,l),
(110,205,l),
(110,450,l),
(50,450,l),
(50,170,l)
);
},
{
closed = 1;
nodes = (
(243,75,l),
(303,75,l),
(303,317,l),
(243,317,l)
);
}
);
width = 536;
}
);
unicode = 1209;
},
{
glyphname = "shhadescender-cy";
lastChange = "2025-07-03 16:32:25 +0000";
layers = (
{
anchors = (
{
name = bottom;
pos = (268,0);
},
{
name = center;
pos = (134,640);
},
{
name = top;
pos = (268,800);
}
);
hints = (
{
name = _corner.round;
origin = (1,6);
scale = (2,2);
type = Corner;
},
{
name = _corner.round;
origin = (1,2,1,4);
stem = 1000;
type = Corner;
}
);
layerId = m01;
shapes = (
{
closed = 1;
nodes = (
(40,620,l),
(40,0,l),
(100,0,l),
(100,620,l)
);
},
{
closed = 1;
nodes = (
(70,450,l),
(70,390,l),
(411,390,l),
(386,415,l),
(386,0,l),
(446,0,l),
(446,450,l)
);
},
{
alignment = -1;
pos = (-90,620);
ref = "_part.horn-sm";
scale = (1,-1);
}
);
width = 536;
}
);
unicode = 1319;
},
{
glyphname = "cheabkhasian-cy";
lastChange = "2025-07-03 16:46:51 +0000";
layers = (
{
anchors = (
{
name = bottom;
pos = (268,0);
},
{
name = ogonek;
pos = (486,0);
},
{
name = top;
pos = (268,450);
}
);
hints = (
{
name = _corner.round;
origin = (0,3);
scale = (2,2);
type = Corner;
},
{
name = _corner.round;
origin = (0,4);
scale = (2,2);
type = Corner;
},
{
name = _corner.round;
origin = (0,2);
scale = (2,2);
type = Corner;
},
{
name = _corner.round;
origin = (0,1);
scale = (2,2);
type = Corner;
},
{
name = _corner.round;
origin = (0,11,0,13);
stem = 1000;
type = Corner;
},
{
name = _corner.round;
origin = (0,13,0,15);
stem = 1000;
type = Corner;
},
{
name = _corner.round;
origin = (0,9,0,11);
stem = 1000;
type = Corner;
},
{
name = _corner.round;
origin = (0,7,0,9);
stem = 1000;
type = Corner;
}
);
layerId = m01;
shapes = (
{
closed = 1;
nodes = (
(185,210,l),
(506,210,l),
(506,450,l),
(150,450,l),
(150,0,l),
(506,0,l),
(506,60,l),
(185,60,l),
(210,40,l),
(210,413,l),
(185,390,l),
(464,390,l),
(446,413,l),
(446,254,l),
(464,270,l),
(185,270,l)
);
},
{
alignment = -1;
angle = 90;
pos = (636,-200);
ref = _part.hook;
}
);
width = 536;
}
);
unicode = 1213;
},
{
glyphname = "chedescenderabkhasian-cy";
lastChange = "2025-07-03 16:47:11 +0000";
layers = (
{
hints = (
{
name = _corner.round;
origin = (0,1);
scale = (2,2);
type = Corner;
},
{
name = _corner.round;
origin = (0,2);
scale = (2,2);
type = Corner;
},
{
name = _corner.round;
origin = (0,3);
scale = (2,2);
type = Corner;
},
{
name = _corner.round;
origin = (0,4);
scale = (2,2);
type = Corner;
},
{
name = _corner.round;
origin = (0,11,0,13);
stem = 1000;
type = Corner;
},
{
name = _corner.round;
origin = (0,13,0,15);
stem = 1000;
type = Corner;
},
{
name = _corner.round;
origin = (0,9,0,11);
stem = 1000;
type = Corner;
},
{
name = _corner.round;
origin = (0,7,0,9);
stem = 1000;
type = Corner;
}
);
layerId = m01;
shapes = (
{
closed = 1;
nodes = (
(185,210,l),
(506,210,l),
(506,450,l),
(150,450,l),
(150,0,l),
(506,0,l),
(506,60,l),
(185,60,l),
(210,40,l),
(210,413,l),
(185,390,l),
(464,390,l),
(446,413,l),
(446,254,l),
(464,270,l),
(185,270,l)
);
},
{
alignment = -1;
angle = 90;
pos = (636,-200);
ref = _part.hook;
},
{
closed = 1;
nodes = (
(313,-110,l),
(373,-110,l),
(373,30,l),
(313,30,l)
);
}
);
width = 600;
}
);
unicode = 1215;
},
{
glyphname = "palochka-cy";
lastChange = "2025-07-03 15:56:03 +0000";
layers = (
{
layerId = m01;
shapes = (
{
closed = 1;
nodes = (
(270,0,l),
(330,0,l),
(330,620,l),
(270,620,l)
);
}
);
width = 600;
}
);
unicode = 1231;
},
{
glyphname = "kahook-cy";
lastChange = "2025-07-03 19:58:39 +0000";
layers = (
{
anchors = (
{
name = bottom;
pos = (268,0);
},
{
name = top;
pos = (268,800);
}
);
layerId = m01;
shapes = (
{
attr = {
strokeWidth = 60;
};
closed = 0;
nodes = (
(217,277,l),
(344,277,o),
(439,193,o),
(439,87,c),
(439,-23,o),
(353,-110,o),
(230,-110,cs)
);
},
{
closed = 1;
nodes = (
(67,450,l),
(67,0,l),
(127,0,l),
(127,450,l)
);
},
{
closed = 1;
nodes = (
(95,116,l),
(438,450,l),
(357,450,l),
(95,205,l)
);
}
);
width = 536;
}
);
unicode = 1220;
},
{
glyphname = "eltail-cy";
lastChange = "2025-07-03 19:31:54 +0000";
layers = (
{
layerId = m01;
shapes = (
{
angle = 180;
pos = (555,620);
ref = _part.hook;
},
{
closed = 1;
nodes = (
(85,154,l),
(145,154,l),
(145,421,l),
(117,390,l),
(403,390,l),
(376,421,l),
(376,0,l),
(436,0,l),
(436,450,l),
(85,450,l)
);
},
{
alignment = -1;
pos = (-100,620);
ref = "_part.horn-sm";
scale = (1,-1);
}
);
width = 536;
}
);
unicode = 1222;
},
{
glyphname = "enhook-cy";
lastChange = "2025-07-03 16:53:59 +0000";
layers = (
{
layerId = m01;
shapes = (
{
closed = 1;
nodes = (
(50,0,l),
(110,0,l),
(110,450,l),
(50,450,l)
);
},
{
closed = 1;
nodes = (
(426,0,l),
(486,0,l),
(486,450,l),
(426,450,l)
);
},
{
closed = 1;
nodes = (
(82,227,l),
(457,227,l),
(457,287,l),
(82,287,l)
);
},
{
alignment = -1;
angle = 180;
pos = (896,466);
ref = _part.hook;
}
);
width = 536;
}
);
unicode = 1224;
},
{
glyphname = "entail-cy";
lastChange = "2025-07-03 16:54:27 +0000";
layers = (
{
layerId = m01;
shapes = (
{
closed = 1;
nodes = (
(50,0,l),
(110,0,l),
(110,450,l),
(50,450,l)
);
},
{
closed = 1;
nodes = (
(426,0,l),
(486,0,l),
(486,450,l),
(426,450,l)
);
},
{
closed = 1;
nodes = (
(82,227,l),
(457,227,l),
(457,287,l),
(82,287,l)
);
},
{
pos = (-50,620);
ref = "_part.horn-sm";
scale = (1,-1);
}
);
width = 600;
}
);
unicode = 1226;
},
{
glyphname = "chekhakassian-cy";
lastChange = "2025-07-03 16:55:30 +0000";
layers = (
{
anchors = (
{
name = bottom;
pos = (268,-350);
},
{
name = center;
pos = (402,-190);
},
{
name = top;
pos = (268,450);
}
);
hints = (
{
name = _corner.round;
origin = (1,6);
scale = (2,2);
type = Corner;
},
{
name = _corner.round;
origin = (1,2,1,4);
stem = 1000;
type = Corner;
}
);
layerId = m01;
shapes = (
{
closed = 1;
nodes = (
(486,0,l),
(486,450,l),
(426,450,l),
(426,0,l)
);
},
{
closed = 1;
nodes = (
(456,170,l),
(456,230,l),
(85,230,l),
(110,205,l),
(110,450,l),
(50,450,l),
(50,170,l)
);
},
{
angle = 180;
pos = (962,620);
ref = "_part.horn-sm";
}
);
width = 536;
}
);
unicode = 1228;
},
{
glyphname = "emtail-cy";
lastChange = "2025-07-03 16:56:36 +0000";
layers = (
{
anchors = (
{
name = bottom;
pos = (268,0);
},
{
name = top;
pos = (268,620);
}
);
layerId = m01;
shapes = (
{
closed = 1;
nodes = (
(100,0,l),
(100,418,l),
(69,418,l),
(204,67,l),
(272,67,l),
(402,408,l),
(376,424,l),
(376,0,l),
(436,0,l),
(436,450,l),
(356,450,l),
(217,91,l),
(259,91,l),
(120,450,l),
(40,450,l),
(40,0,l)
);
},
{
pos = (-100,620);
ref = "_part.horn-sm";
scale = (1,-1);
}
);
width = 536;
}
);
unicode = 1230;
},
{
glyphname = "dzeabkhasian-cy";
lastChange = "2025-07-03 16:25:20 +0000";
layers = (
{
hints = (
{
name = _corner.round;
origin = (0,0);
scale = (2,2);
type = Corner;
},
{
name = _corner.round;
origin = (0,3);
type = Corner;
},
{
name = _corner.round;
options = 2;
origin = (0,4);
scale = (-1,1);
type = Corner;
},
{
name = _corner.round;
origin = (0,7);
scale = (2,2);
type = Corner;
},
{
name = _corner.round;
origin = (1,0);
scale = (0.5,0.5);
type = Corner;
},
{
name = _corner.round;
origin = (1,1);
scale = (0.5,0.5);
type = Corner;
}
);
layerId = m01;
shapes = (
{
closed = 1;
nodes = (
(486,220,l),
(206,220,l),
(206,160,l),
(426,160,l),
(426,-110,l),
(50,-110,l),
(50,-170,l),
(486,-170,l)
);
},
{
attr = {
strokeWidth = 60;
};
closed = 0;
nodes = (
(226,198,l),
(465,420,l),
(41,420,l)
);
}
);
width = 600;
}
);
unicode = 1249;
},
